<svg width="228" height="48" viewBox="0 0 228 48" fill="none" xmlns="http://www.w3.org/2000/svg">
<rect x="13" y="7" width="212" height="39" rx="19.5" fill="#8AF2F2"/>
<rect x="1.09651" y="1.09651" width="225.807" height="45.807" rx="22.9035" stroke="#656565" stroke-width="2.19303"/>
<path d="M77.656 34V25.168H87.992V21.168H77.656V16.656H88.216V12.656H73.112V34H77.656ZM93.3133 16.88C94.6573 16.88 95.7453 15.792 95.7453 14.448C95.7453 13.104 94.6573 12.048 93.3133 12.048C92.0013 12.048 90.8813 13.104 90.8813 14.448C90.8813 15.792 92.0013 16.88 93.3133 16.88ZM95.3613 34V18.544H91.2973V34H95.3613ZM113.887 34V23.088C113.887 20.08 112.255 18.16 108.863 18.16C106.335 18.16 104.447 19.376 103.455 20.56V18.544H99.391V34H103.455V23.6C104.127 22.672 105.375 21.776 106.975 21.776C108.703 21.776 109.823 22.512 109.823 24.656V34H113.887ZM119.938 16.88C121.282 16.88 122.37 15.792 122.37 14.448C122.37 13.104 121.282 12.048 119.938 12.048C118.626 12.048 117.506 13.104 117.506 14.448C117.506 15.792 118.626 16.88 119.938 16.88ZM121.986 34V18.544H117.922V34H121.986ZM131.584 34.384C135.872 34.384 138.272 32.24 138.272 29.424C138.272 23.184 129.12 25.104 129.12 22.8C129.12 21.936 130.08 21.264 131.552 21.264C133.44 21.264 135.2 22.064 136.128 23.056L137.76 20.272C136.224 19.056 134.144 18.16 131.52 18.16C127.456 18.16 125.184 20.432 125.184 23.024C125.184 29.104 134.368 27.024 134.368 29.584C134.368 30.544 133.536 31.248 131.776 31.248C129.856 31.248 127.552 30.192 126.432 29.136L124.672 31.984C126.304 33.488 128.896 34.384 131.584 34.384ZM155.794 34V23.024C155.794 20.016 154.162 18.16 150.77 18.16C148.242 18.16 146.322 19.376 145.33 20.56V12.656H141.266V34H145.33V23.6C146.034 22.672 147.282 21.776 148.85 21.776C150.61 21.776 151.73 22.448 151.73 24.592V34H155.794Z" fill="#656565"/>
</svg>
