<svg width="61" height="58" viewBox="0 0 61 58" fill="none" xmlns="http://www.w3.org/2000/svg">
<path d="M29.3756 11.8336C30.8201 13.5489 32.2646 15.1739 33.709 16.8892C33.5285 17.9726 33.2576 18.8754 33.1673 19.5976C31.7229 19.5976 27.3895 19.5976 26.4867 19.5976C26.2158 18.3337 26.0353 17.1601 25.945 15.8961C27.0283 14.4517 28.202 13.1878 29.3756 11.8336Z" fill="#414042"/>
<path d="M16.0142 50.0219L7.79873 51.2858C6.80565 51.4664 5.90286 50.7442 5.7223 49.7511L1.02775 17.5212C0.847192 16.5281 1.56943 15.6253 2.56251 15.4448L22.2435 12.6461C23.2366 12.4655 24.1394 13.1878 24.3199 14.1809L25.0422 19.1462" stroke="#414042" stroke-width="0.8" stroke-miterlimit="10" stroke-linecap="round"/>
<path d="M15.8336 38.1049C14.5697 37.2021 13.2155 36.3896 11.9516 35.4868C10.778 34.584 9.87516 33.4104 9.60433 31.8756C9.24321 29.7992 10.8682 27.9033 12.7641 28.3547C13.3961 28.445 14.028 28.8964 14.5697 29.1673C14.8405 28.8964 15.1114 28.445 15.4725 28.1742C15.7433 27.9033 16.1045 27.8131 16.4656 27.7228C16.4656 29.7992 16.4656 36.6605 16.4656 37.473C16.285 37.7438 16.1947 37.9244 16.0142 38.1952C16.0142 38.1049 15.9239 38.1049 15.8336 38.1049Z" fill="#414042"/>
<path d="M19.174 20.5906L19.9865 20.5004C20.3476 20.5004 19.806 20.5004 19.174 20.5906Z" fill="#2BB673"/>
<path d="M4.54863 19.9587C4.27779 19.7782 3.91668 19.5073 3.64584 19.3268C3.375 19.1462 3.10416 18.7851 3.10416 18.424C3.01388 17.8823 3.375 17.4309 3.91668 17.5212C4.09723 17.5212 4.18751 17.6114 4.36807 17.7017C4.45835 17.6114 4.45835 17.5212 4.63891 17.4309C4.81947 17.2503 5.18059 17.2503 5.45143 17.4309C5.72227 17.6115 5.81255 17.9726 5.81255 18.3337C5.72227 18.7851 5.45143 19.1462 5.09031 19.5073C4.81947 19.6879 4.63891 19.7782 4.54863 19.9587C4.54863 19.8684 4.54863 19.8684 4.54863 19.9587Z" fill="#414042"/>
<path d="M34.7021 18.9657L37.3202 7.95153C37.591 6.95845 38.4938 6.41677 39.4869 6.59733L58.8068 11.021C59.7998 11.2016 60.4318 12.1947 60.161 13.1878L52.9386 44.8759C52.758 45.869 51.765 46.501 50.7719 46.2301L42.8273 44.4245" stroke="#414042" stroke-width="0.8" stroke-miterlimit="10" stroke-linecap="round"/>
<path d="M42.105 31.1534C43.0981 30.9728 43.6398 30.2506 44.0009 29.2575C43.1884 29.438 42.737 29.438 42.1953 29.2575C42.1953 28.3547 42.1953 26.0074 42.1953 24.0213C42.4661 23.931 42.6467 23.8407 42.9175 23.8407C43.1884 21.7643 44.5426 20.5906 46.2579 20.9518C48.0635 21.3129 48.876 22.8476 48.244 25.1046C49.1468 25.6463 49.8691 26.3685 49.9593 27.4519C50.0496 28.1741 49.8691 28.8964 49.3274 29.438C48.244 30.7922 46.7093 30.7922 44.994 29.5283C44.8134 30.6117 45.1745 31.6048 46.0773 32.1464C46.1676 32.2367 46.2579 32.4173 46.3482 32.5076C44.9037 32.1464 43.5495 31.8756 42.105 31.5145C42.105 31.4242 42.105 31.2436 42.105 31.1534Z" fill="#414042"/>
<path d="M39.2161 11.653L39.3063 11.5627C39.5772 11.5627 39.7577 11.2919 39.848 11.1113C39.3063 11.2016 38.8549 11.021 38.8549 10.5696C38.7647 10.1182 39.0355 9.75712 39.5772 9.66684C39.6675 9.12516 40.0286 8.85432 40.48 8.9446C40.9314 9.03488 41.1119 9.48628 41.0217 10.028C41.2925 10.1182 41.4731 10.3891 41.4731 10.6599C41.4731 10.8405 41.4731 11.021 41.2925 11.2016C41.0217 11.5627 40.5703 11.5627 40.1189 11.2016C40.0286 11.4724 40.2091 11.7433 40.3897 11.8335L40.48 11.9238C40.0286 11.8335 39.6675 11.7433 39.2161 11.653Z" fill="#414042"/>
<path d="M49.0566 44.0634L49.1469 43.9731C49.4177 43.9731 49.5983 43.7023 49.6885 43.5217C49.1469 43.612 48.6955 43.4314 48.6955 42.98C48.6052 42.5286 48.876 42.1675 49.4177 42.0772C49.508 41.5356 49.8691 41.2647 50.3205 41.355C50.7719 41.4453 50.9524 41.8967 50.8622 42.4384C51.133 42.5286 51.3136 42.7995 51.3136 43.0703C51.3136 43.2509 51.3136 43.4314 51.133 43.612C50.8622 43.9731 50.4108 43.9731 49.9594 43.612C49.8691 43.8828 50.0497 44.1537 50.2302 44.244L50.3205 44.3342C49.9594 44.2439 49.508 44.1537 49.0566 44.0634Z" fill="#414042"/>
<path d="M17.6392 11.8336V2.80559C17.6392 1.81252 18.4517 1 19.4448 1H39.3064C40.2994 1 41.112 1.81252 41.112 2.80559V5.33343" stroke="#414042" stroke-width="0.8" stroke-miterlimit="10" stroke-linecap="round"/>
<path d="M39.3064 56.7929H19.4448C18.4517 56.7929 17.6392 55.9803 17.6392 54.9873V22.4866C17.6392 21.4935 18.4517 20.681 19.4448 20.681H39.3064C40.2994 20.681 41.112 21.4935 41.112 22.4866V54.9873C41.112 55.9803 40.2994 56.7929 39.3064 56.7929Z" stroke="#414042" stroke-width="0.8" stroke-miterlimit="10"/>
<path d="M34.4312 38.6466C33.709 36.5702 30.82 34.6743 29.3756 33.2299C27.9311 34.5841 25.0421 36.5702 24.3199 38.6466C23.9588 39.73 24.5005 40.9939 25.4033 41.6259C26.3061 42.3481 27.3894 42.3481 28.3825 41.8064C28.5631 41.7162 28.7436 41.6259 29.0145 41.4453C28.8339 42.7995 28.2922 43.7926 26.938 44.244C27.7505 44.244 28.6533 44.244 29.4658 44.244C30.2784 44.244 31.1812 44.244 31.9937 44.244C30.6395 43.7926 30.0978 42.7995 29.9172 41.4453C30.1881 41.6259 30.3686 41.7162 30.5492 41.8064C31.5423 42.2578 32.6256 42.2578 33.5284 41.6259C34.341 40.9939 34.8826 39.73 34.4312 38.6466Z" fill="#414042"/>
<path d="M22.6046 24.2019C22.4241 23.6602 21.6116 23.1185 21.2504 22.7574C20.8893 23.1185 20.0768 23.6602 19.8963 24.2019C19.806 24.4727 19.8963 24.8338 20.1671 25.0144C20.4379 25.1949 20.7088 25.1949 20.9796 25.1047C20.9796 25.1047 21.0699 25.0144 21.1602 25.0144C21.0699 25.3755 20.9796 25.6463 20.6185 25.7366C20.8893 25.7366 21.0699 25.7366 21.3407 25.7366C21.6116 25.7366 21.7921 25.7366 22.063 25.7366C21.7018 25.6463 21.5213 25.3755 21.5213 25.0144C21.6116 25.1047 21.6116 25.1047 21.7018 25.1047C21.9727 25.1949 22.2435 25.1949 22.5144 25.0144C22.5144 24.8338 22.6949 24.563 22.6046 24.2019Z" fill="#414042"/>
<path d="M39.2161 53.2719C39.0355 52.7303 38.223 52.1886 37.8619 51.8275C37.5008 52.1886 36.6883 52.7303 36.5077 53.2719C36.4174 53.5428 36.5077 53.9039 36.7785 54.0844C37.0494 54.265 37.3202 54.265 37.5911 54.1747C37.5911 54.1747 37.6813 54.0844 37.7716 54.0844C37.6813 54.4456 37.5911 54.7164 37.2299 54.8067C37.5008 54.8067 37.6813 54.8067 37.9522 54.8067C38.223 54.8067 38.4036 54.8067 38.6744 54.8067C38.3133 54.7164 38.1327 54.4456 38.1327 54.0844C38.223 54.1747 38.223 54.1747 38.3133 54.1747C38.5841 54.265 38.855 54.265 39.1258 54.0844C39.1258 53.9039 39.3064 53.5428 39.2161 53.2719Z" fill="#414042"/>
<path d="M20.9796 2.98621C20.9796 3.07649 21.0698 3.07649 21.0698 3.16677C21.431 3.61816 21.7921 3.97928 22.1532 4.43068L22.2435 4.52096C21.7921 4.97236 21.431 5.51404 20.9796 5.96544C20.5282 5.51404 20.167 4.97236 19.7156 4.52096C20.167 3.97928 20.5282 3.52788 20.9796 2.98621Z" fill="#414042"/>
</svg>
