<svg width="46" height="60" viewBox="0 0 46 60" fill="none" xmlns="http://www.w3.org/2000/svg">
<path d="M6.12462 56.1981C7.42351 58.1995 10.2648 59.8807 17.6523 57.6391C25.7704 55.1574 31.8589 44.1897 31.8589 36.9046C31.8589 29.0591 29.7482 14.9692 14.2427 15.6897C-0.53221 16.4102 0.523142 30.42 1.49731 34.1827C2.55266 38.2655 6.44934 43.149 11.0766 43.3091C15.704 43.4692 15.7851 40.9074 15.3792 39.1461C14.9733 37.3849 12.7003 36.5844 11.5637 36.7445C10.4272 36.9846 10.0213 38.2655 8.88477 37.7051C7.74823 37.1447 3.60801 34.1827 6.12462 26.4172C8.64122 18.6518 19.1947 18.6518 24.3903 24.4158C29.5859 30.1799 28.6929 41.7079 22.3608 47.9523C21.4678 48.7529 19.5195 49.2332 21.2242 46.9917C22.929 44.7501 26.2575 37.0647 24.4715 30.42C22.6855 23.7754 16.2722 21.6939 11.4014 23.9355C6.53052 26.177 7.66705 31.861 7.99178 31.9411C8.3165 32.0211 8.07296 29.2192 10.9955 28.0984C13.918 26.8976 14.6486 27.538 14.5674 27.8582C14.4862 28.0984 9.37185 30.34 9.94012 34.9832C10.0213 35.3035 13.3497 32.7417 16.8405 36.4242C19.1135 38.8259 18.2206 43.3091 14.4051 45.2304C10.9143 46.9917 8.64122 45.4706 6.2058 48.5928C3.85156 51.4748 4.98809 54.4369 6.12462 56.1981Z" stroke="black" stroke-miterlimit="10"/>
<path d="M16.9473 11.167C27.9067 11.8875 36.1871 21.3341 35.4565 32.3018" stroke="black" stroke-miterlimit="10" stroke-linecap="round"/>
<path d="M17.1914 7.24414C30.2615 8.0447 40.2468 19.4127 39.3538 32.5419" stroke="black" stroke-miterlimit="10" stroke-linecap="round"/>
<path d="M17.5977 1.32031C33.9962 2.36104 46.4168 16.531 45.3615 32.9425" stroke="black" stroke-miterlimit="10" stroke-linecap="round"/>
</svg>
