<svg width="603" height="594" viewBox="0 0 603 594" fill="none" xmlns="http://www.w3.org/2000/svg">
<mask id="mask0" mask-type="alpha" maskUnits="userSpaceOnUse" x="0" y="109" width="603" height="486">
<rect y="109.397" width="603" height="484.603" fill="#C4C4C4"/>
</mask>
<g mask="url(#mask0)">
<g opacity="0.5">
<path opacity="0.5" d="M459.237 460.251L414.432 533.258L571.293 484.197L459.237 460.251Z" stroke="#5A5A5B"/>
<path opacity="0.5" d="M459.238 460.251L375.217 343.522L414.349 533.258L459.238 460.251Z" stroke="#5A5A5B"/>
<path opacity="0.5" d="M375.217 343.522L328.826 486.617L414.433 533.175L375.217 343.522Z" stroke="#5A5A5B"/>
<path opacity="0.5" d="M268.166 319.075L328.825 486.617L375.299 343.439L268.166 319.075Z" stroke="#5A5A5B"/>
<path opacity="0.5" d="M287.107 679.607L414.432 533.259L328.826 486.617L287.107 679.607Z" stroke="#5A5A5B"/>
<path opacity="0.5" d="M196.41 571.723L287.106 679.607L328.825 486.617L196.41 571.723Z" stroke="#5A5A5B"/>
<path opacity="0.5" d="M196.41 571.723L160.949 675.852L287.023 679.607L196.41 571.723Z" stroke="#5A5A5B"/>
<path opacity="0.5" d="M104.797 369.972L328.826 486.617L268.25 318.992L104.797 369.972Z" stroke="#5A5A5B"/>
<path opacity="0.5" d="M142.01 195.171L104.797 369.972L268.25 319.075L142.01 195.171Z" stroke="#5A5A5B"/>
<path opacity="0.5" d="M104.797 369.973L140.258 474.77L328.826 486.701L104.797 369.973Z" stroke="#5A5A5B"/>
<path opacity="0.5" d="M64.4121 605.098L160.949 675.852L196.41 571.723L64.4121 605.098Z" stroke="#5A5A5B"/>
<path opacity="0.5" d="M328.826 486.617L140.258 474.686L196.411 571.723L328.826 486.617Z" stroke="#5A5A5B"/>
<path opacity="0.5" d="M140.256 474.77L64.4121 605.098L196.41 571.723L140.256 474.77Z" stroke="#5A5A5B"/>
<path opacity="0.5" d="M104.796 369.973L1.08398 548.695L140.257 474.686L104.796 369.973Z" stroke="#5A5A5B"/>
<path opacity="0.5" d="M1.08398 150.949V263.673L142.009 195.171L1.08398 150.949Z" stroke="#5A5A5B"/>
<path opacity="0.5" d="M1.08398 263.673L104.796 369.972L142.009 195.171L1.08398 263.673Z" stroke="#5A5A5B"/>
<path opacity="0.5" d="M1.08398 548.695L64.4127 605.098L140.257 474.77L1.08398 548.695Z" stroke="#5A5A5B"/>
<path opacity="0.5" d="M1.08398 263.674V393.085L104.796 369.973L1.08398 263.674Z" stroke="#5A5A5B"/>
<path opacity="0.5" d="M1.08398 548.694V706.975L64.4127 605.098L1.08398 548.694Z" stroke="#5A5A5B"/>
<path opacity="0.5" d="M1.08398 393.085V548.778L104.796 369.973L1.08398 393.085Z" stroke="#5A5A5B"/>
<path opacity="0.5" d="M571.294 487.869C573.322 487.869 574.966 486.225 574.966 484.198C574.966 482.17 573.322 480.526 571.294 480.526C569.267 480.526 567.623 482.17 567.623 484.198C567.623 486.225 569.267 487.869 571.294 487.869Z" fill="#5A5A5B"/>
<path opacity="0.5" d="M414.431 536.93C416.459 536.93 418.102 535.287 418.102 533.259C418.102 531.232 416.459 529.588 414.431 529.588C412.403 529.588 410.76 531.232 410.76 533.259C410.76 535.287 412.403 536.93 414.431 536.93Z" fill="#5A5A5B"/>
<path opacity="0.5" d="M459.238 463.923C461.265 463.923 462.909 462.279 462.909 460.251C462.909 458.224 461.265 456.58 459.238 456.58C457.21 456.58 455.566 458.224 455.566 460.251C455.566 462.279 457.21 463.923 459.238 463.923Z" fill="#5A5A5B"/>
<path opacity="0.5" d="M328.826 490.289C330.853 490.289 332.497 488.645 332.497 486.618C332.497 484.59 330.853 482.946 328.826 482.946C326.798 482.946 325.154 484.59 325.154 486.618C325.154 488.645 326.798 490.289 328.826 490.289Z" fill="#5A5A5B"/>
<path opacity="0.5" d="M268.167 323.581C270.195 323.581 271.839 321.937 271.839 319.91C271.839 317.882 270.195 316.238 268.167 316.238C266.14 316.238 264.496 317.882 264.496 319.91C264.496 321.937 266.14 323.581 268.167 323.581Z" fill="#5A5A5B"/>
<path opacity="0.5" d="M104.796 373.643C106.824 373.643 108.467 372 108.467 369.972C108.467 367.944 106.824 366.301 104.796 366.301C102.769 366.301 101.125 367.944 101.125 369.972C101.125 372 102.769 373.643 104.796 373.643Z" fill="#5A5A5B"/>
<path opacity="0.5" d="M140.257 478.44C142.285 478.44 143.928 476.796 143.928 474.769C143.928 472.741 142.285 471.098 140.257 471.098C138.23 471.098 136.586 472.741 136.586 474.769C136.586 476.796 138.23 478.44 140.257 478.44Z" fill="#5A5A5B"/>
<path opacity="0.5" d="M196.411 575.561C198.439 575.561 200.083 573.918 200.083 571.89C200.083 569.862 198.439 568.219 196.411 568.219C194.384 568.219 192.74 569.862 192.74 571.89C192.74 573.918 194.384 575.561 196.411 575.561Z" fill="#5A5A5B"/>
<path opacity="0.5" d="M142.009 198.925C144.037 198.925 145.68 197.282 145.68 195.254C145.68 193.227 144.037 191.583 142.009 191.583C139.982 191.583 138.338 193.227 138.338 195.254C138.338 197.282 139.982 198.925 142.009 198.925Z" fill="#5A5A5B"/>
<path opacity="0.5" d="M375.216 347.194C377.244 347.194 378.887 345.55 378.887 343.523C378.887 341.495 377.244 339.852 375.216 339.852C373.189 339.852 371.545 341.495 371.545 343.523C371.545 345.55 373.189 347.194 375.216 347.194Z" fill="#5A5A5B"/>
</g>
</g>
<mask id="mask1" mask-type="alpha" maskUnits="userSpaceOnUse" x="0" y="0" width="527" height="594">
<rect width="526.35" height="594" fill="#C4C4C4"/>
</mask>
<g mask="url(#mask1)">
<g opacity="0.8">
<mask id="mask2" mask-type="alpha" maskUnits="userSpaceOnUse" x="-33" y="-64" width="539" height="622">
<rect x="-32.1758" y="-63.5254" width="537.9" height="621.225" fill="#C4C4C4"/>
</mask>
<g mask="url(#mask2)">
<g opacity="0.4">
<path opacity="0.4" d="M466.619 267.713L346.994 282.728L415.799 334.208L466.619 267.713Z" stroke="#919396"/>
<path opacity="0.4" d="M346.994 282.645L352.027 434.94L415.799 334.125L346.994 282.645Z" stroke="#919396"/>
<path opacity="0.4" d="M346.995 282.645L261.277 357.967L352.027 435.022L346.995 282.645Z" stroke="#919396"/>
<path opacity="0.4" d="M352.027 435.023L261.277 357.968L247.252 479.243L352.027 435.023Z" stroke="#919396"/>
<path opacity="0.4" d="M261.278 357.968L346.996 282.645L236.693 101.558L261.278 357.968Z" stroke="#919396"/>
<path opacity="0.4" d="M261.278 357.968L236.693 101.558L172.426 226.38L261.278 357.968Z" stroke="#919396"/>
<path opacity="0.4" d="M236.693 101.557L121.936 79.6943L172.426 226.297L236.693 101.557Z" stroke="#919396"/>
<path opacity="0.4" d="M247.252 479.243L261.277 357.968L103.537 453.503L247.252 479.243Z" stroke="#919396"/>
<path opacity="0.4" d="M247.252 479.243L103.537 453.503L115.665 603.323L247.252 479.243Z" stroke="#919396"/>
<path opacity="0.4" d="M261.277 357.968L160.38 342.705L103.537 453.503L261.277 357.968Z" stroke="#919396"/>
<path opacity="0.4" d="M172.425 226.38L121.935 79.7773L46.3652 136.372L172.425 226.38Z" stroke="#919396"/>
<path opacity="0.4" d="M172.425 226.38L160.463 342.705L261.36 357.967L172.425 226.38Z" stroke="#919396"/>
<path opacity="0.4" d="M172.426 226.38L46.2832 136.372L160.381 342.705L172.426 226.38Z" stroke="#919396"/>
<path opacity="0.4" d="M160.38 342.705L-31.3496 249.397L103.538 453.502L160.38 342.705Z" stroke="#919396"/>
<path opacity="0.4" d="M115.665 603.24L-31.3496 534.683V647.46L115.665 603.24Z" stroke="#919396"/>
<path opacity="0.4" d="M115.665 603.24L103.538 453.42L-31.3496 534.682L115.665 603.24Z" stroke="#919396"/>
<path opacity="0.4" d="M121.935 79.7773L-31.3496 90.9148L46.2829 136.29L121.935 79.7773Z" stroke="#919396"/>
<path opacity="0.4" d="M160.38 342.705L46.2829 136.372L-31.3496 249.397L160.38 342.705Z" stroke="#919396"/>
<path opacity="0.4" d="M121.935 79.7779L-31.3496 -43.7246V90.9154L121.935 79.7779Z" stroke="#919396"/>
<path opacity="0.4" d="M103.538 453.502L-31.3496 405.157V534.682L103.538 453.502Z" stroke="#919396"/>
<path opacity="0.4" d="M46.2829 136.372L-31.3496 90.9971V249.397L46.2829 136.372Z" stroke="#919396"/>
<path opacity="0.4" d="M103.538 453.502L-31.3496 249.397V405.157L103.538 453.502Z" stroke="#919396"/>
<path opacity="0.4" d="M247.254 483.697C249.714 483.697 251.709 481.703 251.709 479.242C251.709 476.782 249.714 474.787 247.254 474.787C244.793 474.787 242.799 476.782 242.799 479.242C242.799 481.703 244.793 483.697 247.254 483.697Z" fill="#919396"/>
<path opacity="0.4" d="M352.029 439.477C354.49 439.477 356.484 437.483 356.484 435.022C356.484 432.562 354.49 430.567 352.029 430.567C349.569 430.567 347.574 432.562 347.574 435.022C347.574 437.483 349.569 439.477 352.029 439.477Z" fill="#919396"/>
<path opacity="0.4" d="M415.801 338.58C418.261 338.58 420.256 336.585 420.256 334.125C420.256 331.664 418.261 329.67 415.801 329.67C413.34 329.67 411.346 331.664 411.346 334.125C411.346 336.585 413.34 338.58 415.801 338.58Z" fill="#919396"/>
<path opacity="0.4" d="M346.994 288.091C349.455 288.091 351.449 286.096 351.449 283.636C351.449 281.175 349.455 279.181 346.994 279.181C344.534 279.181 342.539 281.175 342.539 283.636C342.539 286.096 344.534 288.091 346.994 288.091Z" fill="#919396"/>
<path opacity="0.4" d="M261.279 362.423C263.74 362.423 265.734 360.428 265.734 357.968C265.734 355.507 263.74 353.513 261.279 353.513C258.819 353.513 256.824 355.507 256.824 357.968C256.824 360.428 258.819 362.423 261.279 362.423Z" fill="#919396"/>
<path opacity="0.4" d="M236.693 106.013C239.154 106.013 241.148 104.018 241.148 101.558C241.148 99.0971 239.154 97.1025 236.693 97.1025C234.233 97.1025 232.238 99.0971 232.238 101.558C232.238 104.018 234.233 106.013 236.693 106.013Z" fill="#919396"/>
<path opacity="0.4" d="M172.426 230.835C174.886 230.835 176.881 228.84 176.881 226.38C176.881 223.919 174.886 221.925 172.426 221.925C169.965 221.925 167.971 223.919 167.971 226.38C167.971 228.84 169.965 230.835 172.426 230.835Z" fill="#919396"/>
<path opacity="0.4" d="M160.381 347.16C162.841 347.16 164.836 345.165 164.836 342.705C164.836 340.245 162.841 338.25 160.381 338.25C157.92 338.25 155.926 340.245 155.926 342.705C155.926 345.165 157.92 347.16 160.381 347.16Z" fill="#919396"/>
<path opacity="0.4" d="M103.537 457.545C105.997 457.545 107.992 455.55 107.992 453.09C107.992 450.629 105.997 448.635 103.537 448.635C101.077 448.635 99.082 450.629 99.082 453.09C99.082 455.55 101.077 457.545 103.537 457.545Z" fill="#919396"/>
<path opacity="0.4" d="M121.935 84.2323C124.396 84.2323 126.39 82.2377 126.39 79.7773C126.39 77.3168 124.396 75.3223 121.935 75.3223C119.475 75.3223 117.48 77.3168 117.48 79.7773C117.48 82.2377 119.475 84.2323 121.935 84.2323Z" fill="#919396"/>
<path opacity="0.4" d="M46.2831 140.828C48.7435 140.828 50.7381 138.833 50.7381 136.373C50.7381 133.913 48.7435 131.918 46.2831 131.918C43.8227 131.918 41.8281 133.913 41.8281 136.373C41.8281 138.833 43.8227 140.828 46.2831 140.828Z" fill="#919396"/>
<path opacity="0.4" d="M466.619 271.426C469.08 271.426 471.074 269.431 471.074 266.971C471.074 264.51 469.08 262.516 466.619 262.516C464.159 262.516 462.164 264.51 462.164 266.971C462.164 269.431 464.159 271.426 466.619 271.426Z" fill="#919396"/>
</g>
</g>
</g>
</g>
</svg>
