<svg width="64" height="56" viewBox="0 0 64 56" fill="none" xmlns="http://www.w3.org/2000/svg">
<g clip-path="url(#clip0)">
<path d="M53.6707 20.3902C52.8008 20.8634 51.9527 21.3366 51.0829 21.8098C50.0825 22.369 48.9952 23.0143 48.669 24.1112C48.1906 25.7459 49.6693 27.2515 50.9959 28.3485C52.3224 29.4454 53.7577 31.0371 53.1705 32.6287C52.0615 35.683 47.4295 33.8332 45.2331 35.2313C43.7325 36.1992 43.3411 38.2856 43.7543 40.0063C44.1675 41.727 45.1678 43.2541 45.9507 44.8673C46.7118 46.4805 47.2337 48.3517 46.6031 50.0079C45.6897 52.4169 42.667 53.4063 40.0791 53.1482C36.5997 52.7826 33.4464 50.6317 31.4023 47.814C29.3798 44.9748 28.3795 41.5119 28.1185 38.049C28.0533 37.1456 27.9663 36.1132 27.2704 35.5109C26.0309 34.4785 24.1824 35.6615 23.0734 36.866C20.0506 40.1784 18.0064 45.4695 13.8311 47.4914C11.004 48.8679 7.56808 48.4378 4.76278 47.0182C2.21844 45.7276 -0.0649441 43.2756 0.0872815 40.458C0.217761 37.8984 2.26193 35.7905 4.54532 34.543C6.8287 33.2955 9.37305 32.6502 11.6564 31.4458C12.3088 31.1016 12.9612 30.6929 13.3092 30.0477C13.8311 29.0798 13.5049 27.8538 12.8307 26.9934C12.1783 26.1115 11.2215 25.5093 10.3516 24.8425C8.02476 23.0573 6.11107 20.7558 4.78453 18.1533C4.04515 16.7122 3.52323 14.8839 4.52357 13.5934C5.74138 12.0232 8.26397 12.5179 10.0907 13.3568C11.9174 14.1956 14.0051 15.2926 15.81 14.4107C17.8324 13.4213 18.0499 10.7112 18.0064 8.47427C17.9412 5.05436 18.985 2.53782 22.2687 1.07521C28.3143 -1.6134 35.9255 1.56992 37.9915 7.89353C38.4046 9.20557 38.6439 10.6682 39.6442 11.6146C41.3404 13.2062 44.0805 12.4104 46.3421 11.8297C49.5389 10.9908 52.8878 10.7757 56.1716 11.2059C58.2157 11.464 60.6731 12.4749 60.7383 14.4968C60.8036 16.239 59.0638 17.4435 57.5198 18.2823C56.2368 18.9706 54.9537 19.6804 53.6707 20.3902Z" stroke="black" stroke-width="0.8" stroke-miterlimit="10"/>
<path d="M45.016 20.0034C43.4067 20.4981 40.3622 20.6702 40.6449 22.3694C40.9928 24.929 42.9935 27.8542 41.1016 30.7364C39.775 32.5216 40.9494 35.2747 41.841 37.3181C42.1454 37.8773 42.4716 38.415 42.7543 38.9528C43.3197 40.0712 43.7547 41.3617 43.385 42.5662C42.863 44.3085 40.9059 45.1258 39.1661 45.0183C38.579 44.9752 38.0136 44.8677 37.4482 44.6956C36.8828 44.5236 36.3608 44.2654 35.8389 43.9643C31.8376 41.1467 31.0982 35.3823 29.0323 31.188C27.858 28.4564 23.5739 28.4564 22.3343 31.9839C21.1165 35.92 19.4855 43.5557 14.0707 42.05C13.4183 41.7919 12.7876 41.4478 12.2222 41.0176C10.5477 39.7271 9.4604 37.7483 10.0476 35.4468C10.4825 33.9197 11.5046 33.3174 12.7441 33.2099C13.353 33.1454 14.0054 33.2099 14.6578 33.3389C16.3106 34.0487 18.1373 33.5325 18.0068 31.1665C17.6153 27.7466 15.4407 25.2731 14.3969 22.1328C14.2011 21.5736 14.0489 20.9928 13.9402 20.3906C14.5491 20.3476 15.0927 20.4981 15.5929 20.7347C17.9198 21.8962 18.9419 25.9399 21.7472 24.7139C24.3568 23.703 23.7261 19.8744 23.6826 17.1858C23.6174 16.433 23.5956 15.6801 23.5956 14.9488C23.6391 12.0236 24.3568 9.42106 27.336 8.13053C28.0102 7.93695 28.7278 7.91544 29.4237 7.97996C31.7723 8.21656 34.0122 9.55011 35.317 11.6795C35.578 12.1097 35.7954 12.5614 35.9694 13.0561C36.4696 14.4326 36.774 16.1318 38.405 16.0458C41.6452 15.6586 44.8637 14.4111 48.1909 14.7338C48.8651 14.7983 49.6262 14.9704 50.2351 15.3145C50.844 15.6586 51.3007 16.1748 51.3659 16.9062C51.4529 19.014 48.6259 19.5948 46.9296 19.7453C46.3207 19.8099 45.6683 19.8959 45.016 20.0034Z" stroke="black" stroke-width="0.8" stroke-miterlimit="10"/>
<path d="M36.7293 22.9069C36.1204 23.1005 34.9244 23.165 35.0548 23.8318C35.1853 24.8212 35.9682 25.9397 35.2288 27.0581C34.7069 27.7464 35.1636 28.8003 35.5115 29.5962C35.6202 29.8113 35.7507 30.0264 35.8595 30.2414C36.0769 30.6716 36.2509 31.1663 36.0987 31.6395C35.9029 32.3063 35.1418 32.6289 34.4677 32.5859C34.2502 32.5644 34.011 32.5214 33.8153 32.4569C33.6196 32.3923 33.4021 32.2848 33.1846 32.1772C31.6406 31.1018 31.3579 28.8649 30.5533 27.2302C30.0966 26.1763 28.4439 26.1763 27.9655 27.5313C27.487 29.0585 26.3345 28.1121 26.291 27.2087C26.1388 25.8751 25.2906 24.9287 24.8992 23.7243C24.8122 23.5092 24.8992 22.7779 25.3559 23.1865C26.117 23.8318 26.6607 25.1869 27.7263 24.7137C28.7266 24.3265 28.4874 22.8424 28.4874 21.81C28.4656 21.5303 28.4439 21.2292 28.4656 20.9496C28.4874 19.8096 28.7701 18.8202 29.9227 18.3255C30.1836 18.261 30.4663 18.2395 30.7273 18.261C31.6406 18.347 32.4887 18.8632 33.0107 19.7021C33.1194 19.8742 33.2064 20.0462 33.2716 20.2398C33.4673 20.7775 33.5761 21.4228 34.2067 21.4013C35.468 21.2507 36.7076 20.7775 37.9906 20.9066C38.2516 20.9281 38.556 20.9926 38.7735 21.1432C39.0127 21.2722 39.1867 21.4658 39.2084 21.7454C39.2519 22.5628 38.1428 22.7779 37.4904 22.8424C37.2295 22.8424 36.9685 22.8639 36.7293 22.9069Z" stroke="black" stroke-width="0.8" stroke-miterlimit="10"/>
</g>
<defs>
<clipPath id="clip0">
<rect width="64" height="55.5789" fill="white"/>
</clipPath>
</defs>
</svg>
