<svg width="88" height="48" viewBox="0 0 88 48" fill="none" xmlns="http://www.w3.org/2000/svg">
<path d="M52.4056 5.6784C52.3175 5.76611 52.2293 5.85382 52.1412 5.94153C51.8769 6.20465 51.5244 6.29236 51.1719 6.38007L50.7313 6.46777C50.467 5.94153 50.2026 5.41528 50.2026 4.88903C50.2026 4.71361 50.2908 4.45049 50.467 4.27507C50.6432 4.09965 50.9076 4.01195 51.0838 4.09965C51.3482 4.18736 51.4363 4.36278 51.5244 4.5382C51.5244 4.5382 51.5244 4.5382 51.5244 4.6259C51.6125 4.6259 51.7887 4.5382 51.8769 4.5382C52.1412 4.5382 52.4056 4.71361 52.4937 4.88903C52.5818 5.23986 52.4937 5.50299 52.4056 5.6784Z" fill="#343434"/>
<path d="M51.5244 26.4652C50.9076 25.0619 50.2908 23.7463 49.7621 22.2553C49.3215 20.8519 49.2334 19.4486 49.7621 18.0453C50.5551 16.2034 52.8462 15.5017 54.2561 16.8174C54.6966 17.2559 54.961 17.8699 55.3135 18.4838C55.6659 18.3961 56.1065 18.2207 56.6352 18.133C56.9877 18.133 57.3402 18.133 57.6926 18.2207C57.957 18.3084 58.0451 18.4838 57.957 18.6592C56.5471 20.8519 52.0531 26.4652 51.7888 26.553C51.7006 26.4652 51.6125 26.4652 51.5244 26.4652Z" fill="#343434"/>
<path d="M64.2133 46.9013L49.1452 34.7976C48.3522 34.1836 48.264 33.0434 48.8809 32.3417L68.7954 7.78346C69.4123 6.99409 70.5578 6.90638 71.2627 7.52034L86.3308 19.6241C87.1239 20.238 87.212 21.3782 86.5952 22.0799L66.6806 46.6382C66.0638 47.4275 64.9183 47.5152 64.2133 46.9013Z" stroke="#343434" stroke-width="0.8" stroke-miterlimit="10"/>
<path d="M71.7034 30.5876C72.4964 28.4826 71.439 25.062 71.0865 23.0447C68.9717 23.2201 65.447 22.8693 63.5084 24.0972C62.5391 24.7111 62.0985 26.0268 62.3629 27.167C62.6272 28.3072 63.5084 29.0088 64.654 29.272C64.8302 29.3597 65.0064 29.3597 65.3589 29.3597C64.3015 30.3244 63.2441 30.763 61.9223 30.2367C62.6272 30.763 63.2441 31.2892 63.949 31.8155C64.654 32.3417 65.2708 32.868 65.9757 33.3942C65.1827 32.1663 65.3589 31.1138 66.1519 29.8859C66.2401 30.2367 66.3282 30.4122 66.4163 30.5876C66.945 31.6401 67.7381 32.3417 68.9717 32.3417C70.1172 32.4294 71.3509 31.7278 71.7034 30.5876Z" fill="#343434"/>
<path d="M15.7487 21.8167C15.1319 23.8339 13.8982 26.9914 14.3388 29.1841C14.6032 30.3243 15.6606 31.2014 16.8061 31.2891C16.3655 28.921 15.7487 22.8691 15.7487 21.8167Z" fill="#343434"/>
<path d="M71.5271 12.0811C71.7033 11.5548 71.439 10.6777 71.3509 10.1515C70.8222 10.1515 69.941 10.1515 69.4123 10.4146C69.1479 10.59 69.0598 10.9409 69.1479 11.204C69.236 11.4671 69.4123 11.6425 69.7648 11.7302C69.8529 11.7302 69.8529 11.7302 69.941 11.7302C69.6766 11.9934 69.4123 12.0811 69.0598 11.9934C69.236 12.1688 69.4123 12.2565 69.5885 12.4319C69.7648 12.6073 69.941 12.695 70.1172 12.8704C69.941 12.5196 69.941 12.2565 70.1172 11.9934C70.1172 12.0811 70.1172 12.0811 70.2053 12.1688C70.2935 12.4319 70.5578 12.6073 70.8222 12.6073C71.0865 12.5196 71.439 12.3442 71.5271 12.0811Z" fill="#343434"/>
<path d="M53.9036 40.4108L38.6592 34.7098C37.778 34.359 37.2493 33.3942 37.6018 32.4294L48.7927 2.87174C49.1452 1.99466 50.1145 1.46841 51.0838 1.81924L66.3281 7.60798" stroke="#343434" stroke-width="0.8" stroke-miterlimit="10" stroke-linecap="round"/>
<path d="M47.1186 39.2706L28.0852 35.4114C27.1159 35.236 26.499 34.2712 26.6753 33.3065L33.1079 2.4332C33.2841 1.46841 34.2534 0.854451 35.2227 1.02987L46.5017 3.31028" stroke="#343434" stroke-width="0.8" stroke-miterlimit="10" stroke-linecap="round"/>
<path d="M36.1919 38.2181L21.0357 40.06C20.0664 40.1477 19.1852 39.5337 19.0971 38.569L15.22 7.25716C15.1318 6.29238 15.7487 5.41529 16.718 5.32759L30.6405 3.66113" stroke="#343434" stroke-width="0.8" stroke-miterlimit="10" stroke-linecap="round"/>
<path d="M31.698 40.1477L19.009 47.1644C18.1279 47.6029 17.0705 47.3398 16.6299 46.4627L1.2093 18.9224C0.768709 18.0453 1.03306 16.9928 1.91424 16.5542L13.6339 10.0638" stroke="#343434" stroke-width="0.8" stroke-miterlimit="10" stroke-linecap="round"/>
<path d="M6.23204 18.0452C5.79145 17.6943 4.91027 17.6066 4.38157 17.4312C4.20533 17.9575 3.76474 18.7468 3.94098 19.2731C4.0291 19.5362 4.29345 19.7993 4.5578 19.7993C4.82216 19.7993 5.08651 19.7116 5.26274 19.4485C5.26274 19.4485 5.35086 19.3608 5.35086 19.2731C5.5271 19.6239 5.43898 19.887 5.26274 20.1502C5.43898 20.0625 5.61521 19.9747 5.87957 19.7993C6.0558 19.7116 6.23204 19.6239 6.49639 19.4485C6.14392 19.5362 5.87957 19.3608 5.70333 19.0977C5.79145 19.0977 5.87957 19.0977 5.87957 19.0977C6.14392 19.0977 6.40827 18.9223 6.58451 18.6591C6.49639 18.5714 6.40827 18.2206 6.23204 18.0452Z" fill="#343434"/>
<path d="M38.6592 17.4313C38.8355 15.3263 40.1572 14.1861 41.9196 14.4492C42.1839 14.4492 42.7126 14.7124 42.8889 14.8001C42.3602 16.5542 39.5404 24.0971 39.0998 25.2373C38.5711 25.1496 38.0424 24.9742 37.5137 24.8865C38.8355 24.7111 39.4523 23.9217 39.8929 22.7815C37.6899 23.22 36.1919 22.5184 35.8395 20.7642C35.5751 19.0978 36.5444 17.8699 38.6592 17.4313Z" fill="#343434"/>
<path d="M34.9583 4.62587C35.0464 4.36274 35.3108 4.18733 35.6632 4.18733C35.7514 3.66108 36.0157 3.31025 36.4563 3.39795C36.8969 3.48566 37.1612 3.83649 37.0731 4.45045C37.5137 4.71358 37.6899 5.15212 37.4256 5.50295C37.0731 5.85378 36.6325 5.94149 36.1919 5.59066C36.1038 5.85378 36.1919 6.0292 36.6325 6.29232C36.1919 6.20461 35.7514 6.11691 35.3989 6.11691C35.7514 6.0292 35.9276 5.85378 36.0157 5.59066C35.9276 5.59066 35.7514 5.67836 35.6632 5.67836C35.2227 5.67836 34.9583 5.32753 34.9583 4.88899C34.8702 4.80128 34.8702 4.71358 34.9583 4.62587Z" fill="#343434"/>
<path d="M27.6446 14.9754C27.8208 15.1508 27.9089 15.3262 28.0852 15.5017C28.4376 15.7648 28.6139 16.0279 28.9663 16.291C28.5257 18.7469 27.6446 23.22 27.204 25.1495C25.8822 24.0093 24.4723 22.7814 23.1506 21.6412C24.5605 19.3608 25.9703 17.1681 27.4683 14.9754C27.5565 14.9754 27.5565 14.9754 27.6446 14.9754Z" fill="#343434"/>
<path d="M18.4803 6.90631C18.4803 6.99402 18.5684 6.99402 18.5684 7.08173C19.009 7.43256 19.3615 7.8711 19.8021 8.22193L19.8902 8.30964C19.5377 8.83589 19.1852 9.36214 18.7447 9.88839C18.3041 9.44985 17.7754 9.01131 17.3348 8.57277C17.6872 7.95881 18.0397 7.43256 18.4803 6.90631Z" fill="#343434"/>
</svg>
