<svg width="63" height="48" viewBox="0 0 63 48" fill="none" xmlns="http://www.w3.org/2000/svg">
<path d="M1 4.80002V2.90015L8.49071 1.3457V18.0991H4.74535V4.05159L1 4.80002ZM13.3885 3.24558V1.3457H28.3123V3.18801H30.1561V16.2568H28.3123V18.0991H13.3885V16.2568H11.5446V3.24558H13.3885ZM24.5669 5.08788V3.24558H15.2323V12.5147H17.0762V10.6724H18.9201V8.83006H20.8792V6.98775H22.723V5.08788H24.5669ZM17.1338 14.4145V16.2568H26.4684V6.93018H24.6245V8.77249H22.7807V10.6148H20.8792V12.5147H19.0353V14.357H17.1338V14.4145ZM33.21 4.80002V2.90015L40.7007 1.3457V18.0991H36.9554L37.013 4.05159L33.21 4.80002ZM45.5985 3.24558V1.3457H60.5223V3.18801H62.3662V16.2568H60.5223V18.0991H45.5985V16.2568H43.7546V3.24558H45.5985ZM56.8346 5.08788V3.24558H47.5V12.5147H49.3439V10.6724H51.1877V8.83006H53.0316V6.98775H54.8755V5.08788H56.8346ZM49.3439 14.4145V16.2568H58.6784V6.93018H56.8346V8.77249H54.9907V10.6148H53.1468V12.5147H51.303V14.357H49.3439V14.4145ZM2.84387 31.8013V29.959H17.7677V31.8013H19.6115V44.8701H17.7677V46.7124H2.84387V44.8701H1V31.8013H2.84387ZM14.0799 33.6436V31.8013H4.74535V41.1279H6.58922V39.2856H8.43309V37.4433H10.277V35.5434H12.1208V33.7011H14.0799V33.6436ZM6.58922 42.9702V44.8125H15.9238V35.5434H14.0799V37.3857H12.2361V39.2281H10.3922V41.0704H8.54833V42.9127H6.58922V42.9702ZM22.723 33.3557V31.5134L30.2138 29.959V46.7124H26.4684L26.526 32.6073L22.723 33.3557ZM35.1115 31.8013V29.959H50.0353V31.8013H51.8792V44.8701H50.0353V46.7124H35.1115V44.8701H33.2677V31.8013H35.1115ZM46.29 33.6436V31.8013H36.9554V41.1279H38.7993V39.2856H40.6431V37.4433H42.487V35.5434H44.3309V33.7011H46.29V33.6436ZM38.8569 42.9702V44.8125H48.1915V35.5434H46.3476V37.3857H44.5037V39.2281H42.6599V41.0704H40.816V42.9127H38.8569V42.9702ZM54.9331 33.3557V31.5134L62.4238 29.959V46.7124H58.6784L58.7361 32.6073L54.9331 33.3557Z" stroke="black" stroke-width="0.8"/>
</svg>
