<svg width="666" height="685" viewBox="0 0 666 685" fill="none" xmlns="http://www.w3.org/2000/svg">
<mask id="mask0" mask-type="alpha" maskUnits="userSpaceOnUse" x="0" y="2" width="666" height="683">
<rect y="2" width="666" height="683" fill="#C4C4C4"/>
</mask>
<g mask="url(#mask0)">
<g opacity="0.5">
<path opacity="0.5" d="M280.141 81.6664L302.365 181.896L143.825 64.9924L280.141 81.6664Z" stroke="#5A5A5B"/>
<path opacity="0.5" d="M280.141 81.6666L420.965 -17.7373L302.459 181.929L280.141 81.6666Z" stroke="#5A5A5B"/>
<path opacity="0.5" d="M420.966 -17.7375L417.587 162.518L302.398 181.802L420.966 -17.7375Z" stroke="#5A5A5B"/>
<path opacity="0.5" d="M551.807 -3.58789L417.588 162.518L420.905 -17.8649L551.807 -3.58789Z" stroke="#5A5A5B"/>
<path opacity="0.5" d="M389.411 397.478L302.366 181.897L417.588 162.519L389.411 397.478Z" stroke="#5A5A5B"/>
<path opacity="0.5" d="M534.338 310.703L389.409 397.477L417.586 162.518L534.338 310.703Z" stroke="#5A5A5B"/>
<path opacity="0.5" d="M534.338 310.703L533.808 442.54L389.503 397.51L534.338 310.703Z" stroke="#5A5A5B"/>
<path opacity="0.5" d="M717.001 117.94L417.586 162.518L551.743 -3.71481L717.001 117.94Z" stroke="#5A5A5B"/>
<path opacity="0.5" d="M743.173 -94.6497L717.002 117.94L551.711 -3.62022L743.173 -94.6497Z" stroke="#5A5A5B"/>
<path opacity="0.5" d="M717.002 117.94L635.859 222.809L417.555 162.613L717.002 117.94Z" stroke="#5A5A5B"/>
<path opacity="0.5" d="M670.84 400.116L533.808 442.541L534.338 310.704L670.84 400.116Z" stroke="#5A5A5B"/>
<path opacity="0.5" d="M417.588 162.519L635.893 222.715L534.34 310.703L417.588 162.519Z" stroke="#5A5A5B"/>
<path opacity="0.5" d="M635.858 222.809L670.84 400.116L534.338 310.703L635.858 222.809Z" stroke="#5A5A5B"/>
<path opacity="0.5" d="M717.002 117.941L764.639 360.969L635.892 222.715L717.002 117.941Z" stroke="#5A5A5B"/>
<path opacity="0.5" d="M670.841 400.116L702.765 540.295L533.842 442.446L670.841 400.116Z" stroke="#5A5A5B"/>
<path opacity="0.5" d="M764.639 360.968L670.84 400.115L635.859 222.809L764.639 360.968Z" stroke="#5A5A5B"/>
<path opacity="0.5" d="M702.764 540.294L650.186 692.678L533.841 442.446L702.764 540.294Z" stroke="#5A5A5B"/>
<path opacity="0.5" d="M764.639 360.969L702.764 540.294L670.841 400.116L764.639 360.969Z" stroke="#5A5A5B"/>
<path opacity="0.5" d="M825.469 184.669L764.606 361.064L717.002 117.941L825.469 184.669Z" stroke="#5A5A5B"/>
<path opacity="0.5" d="M142.39 69.1521C140.093 68.3595 138.873 65.8548 139.666 63.5576C140.459 61.2605 142.963 60.0408 145.261 60.8334C147.558 61.626 148.777 64.1308 147.985 66.4279C147.192 68.7251 144.687 69.9447 142.39 69.1521Z" fill="#5A5A5B"/>
<path opacity="0.5" d="M300.929 186.056C298.632 185.264 297.412 182.759 298.205 180.462C298.998 178.165 301.502 176.945 303.8 177.738C306.097 178.53 307.316 181.035 306.524 183.332C305.731 185.629 303.226 186.849 300.929 186.056Z" fill="#5A5A5B"/>
<path opacity="0.5" d="M278.707 85.826C276.409 85.0334 275.19 82.5286 275.982 80.2315C276.775 77.9343 279.28 76.7146 281.577 77.5072C283.874 78.2998 285.094 80.8046 284.301 83.1017C283.509 85.3989 281.004 86.6186 278.707 85.826Z" fill="#5A5A5B"/>
<path opacity="0.5" d="M416.152 166.678C413.855 165.885 412.635 163.38 413.428 161.083C414.22 158.786 416.725 157.566 419.022 158.359C421.319 159.151 422.539 161.656 421.747 163.953C420.954 166.25 418.449 167.47 416.152 166.678Z" fill="#5A5A5B"/>
<path opacity="0.5" d="M550.045 1.51739C547.747 0.724786 546.528 -1.77997 547.32 -4.07713C548.113 -6.37428 550.618 -7.59396 552.915 -6.80135C555.212 -6.00874 556.432 -3.504 555.639 -1.20685C554.846 1.09031 552.342 2.31 550.045 1.51739Z" fill="#5A5A5B"/>
<path opacity="0.5" d="M634.423 226.969C632.126 226.176 630.907 223.671 631.699 221.374C632.492 219.077 634.997 217.857 637.294 218.65C639.591 219.442 640.811 221.947 640.018 224.244C639.225 226.541 636.721 227.761 634.423 226.969Z" fill="#5A5A5B"/>
<path opacity="0.5" d="M532.838 315.052C530.54 314.259 529.321 311.754 530.113 309.457C530.906 307.16 533.411 305.94 535.708 306.733C538.005 307.525 539.225 310.03 538.432 312.327C537.639 314.625 535.135 315.844 532.838 315.052Z" fill="#5A5A5B"/>
<path opacity="0.5" d="M669.406 404.275C667.109 403.483 665.889 400.978 666.682 398.681C667.474 396.384 669.979 395.164 672.276 395.956C674.573 396.749 675.793 399.254 675 401.551C674.208 403.848 671.703 405.068 669.406 404.275Z" fill="#5A5A5B"/>
<path opacity="0.5" d="M532.373 446.7C530.076 445.907 528.856 443.403 529.648 441.105C530.441 438.808 532.946 437.589 535.243 438.381C537.54 439.174 538.76 441.679 537.967 443.976C537.175 446.273 534.67 447.493 532.373 446.7Z" fill="#5A5A5B"/>
<path opacity="0.5" d="M388.007 401.543C385.71 400.75 384.491 398.245 385.283 395.948C386.076 393.651 388.581 392.431 390.878 393.224C393.175 394.017 394.395 396.521 393.602 398.819C392.809 401.116 390.305 402.335 388.007 401.543Z" fill="#5A5A5B"/>
</g>
</g>
<g opacity="0.5">
<mask id="mask1" mask-type="alpha" maskUnits="userSpaceOnUse" x="128" y="0" width="538" height="634">
<rect x="128" width="538" height="634" fill="#C4C4C4"/>
</mask>
<g mask="url(#mask1)">
<g opacity="0.4">
<path opacity="0.4" d="M218.4 57.5L363.4 75.7L280 138.1L218.4 57.5Z" stroke="#919396"/>
<path opacity="0.4" d="M363.4 75.5996L357.3 260.2L280 138L363.4 75.5996Z" stroke="#919396"/>
<path opacity="0.4" d="M363.401 75.5996L467.301 166.9L357.301 260.3L363.401 75.5996Z" stroke="#919396"/>
<path opacity="0.4" d="M357.301 260.3L467.301 166.9L484.301 313.9L357.301 260.3Z" stroke="#919396"/>
<path opacity="0.4" d="M467.3 166.9L363.4 75.5996L497.1 -143.9L467.3 166.9Z" stroke="#919396"/>
<path opacity="0.4" d="M467.3 166.9L497.1 -143.9L575 7.3996L467.3 166.9Z" stroke="#919396"/>
<path opacity="0.4" d="M497.099 -143.9L636.199 -170.4L574.999 7.29959L497.099 -143.9Z" stroke="#919396"/>
<path opacity="0.4" d="M484.3 313.9L467.3 166.9L658.5 282.7L484.3 313.9Z" stroke="#919396"/>
<path opacity="0.4" d="M484.3 313.9L658.5 282.7L643.8 464.3L484.3 313.9Z" stroke="#919396"/>
<path opacity="0.4" d="M467.3 166.9L589.6 148.4L658.5 282.7L467.3 166.9Z" stroke="#919396"/>
<path opacity="0.4" d="M575.001 7.40019L636.201 -170.3L727.801 -101.7L575.001 7.40019Z" stroke="#919396"/>
<path opacity="0.4" d="M575 7.40039L589.5 148.4L467.2 166.9L575 7.40039Z" stroke="#919396"/>
<path opacity="0.4" d="M575 7.3998L727.9 -101.7L589.6 148.4L575 7.3998Z" stroke="#919396"/>
<path opacity="0.4" d="M589.6 148.4L822 35.2998L658.5 282.7L589.6 148.4Z" stroke="#919396"/>
<path opacity="0.4" d="M643.8 464.2L822 381.1V517.8L643.8 464.2Z" stroke="#919396"/>
<path opacity="0.4" d="M643.8 464.2L658.5 282.6L822 381.1L643.8 464.2Z" stroke="#919396"/>
<path opacity="0.4" d="M589.6 148.4L727.9 -101.7L822 35.2998L589.6 148.4Z" stroke="#919396"/>
<path opacity="0.4" d="M658.5 282.7L822 224.1V381.1L658.5 282.7Z" stroke="#919396"/>
<path opacity="0.4" d="M658.5 282.7L822 35.2998V224.1L658.5 282.7Z" stroke="#919396"/>
<path opacity="0.4" d="M643.799 469.6C640.817 469.6 638.399 467.182 638.399 464.2C638.399 461.217 640.817 458.8 643.799 458.8C646.782 458.8 649.199 461.217 649.199 464.2C649.199 467.182 646.782 469.6 643.799 469.6Z" fill="#919396"/>
<path opacity="0.4" d="M484.299 319.3C481.317 319.3 478.899 316.882 478.899 313.9C478.899 310.918 481.317 308.5 484.299 308.5C487.282 308.5 489.699 310.918 489.699 313.9C489.699 316.882 487.282 319.3 484.299 319.3Z" fill="#919396"/>
<path opacity="0.4" d="M357.299 265.7C354.317 265.7 351.899 263.283 351.899 260.3C351.899 257.318 354.317 254.9 357.299 254.9C360.282 254.9 362.699 257.318 362.699 260.3C362.699 263.283 360.282 265.7 357.299 265.7Z" fill="#919396"/>
<path opacity="0.4" d="M280 143.4C277.018 143.4 274.6 140.982 274.6 138C274.6 135.017 277.018 132.6 280 132.6C282.983 132.6 285.4 135.017 285.4 138C285.4 140.982 282.983 143.4 280 143.4Z" fill="#919396"/>
<path opacity="0.4" d="M363.401 82.2004C360.418 82.2004 358.001 79.7827 358.001 76.8004C358.001 73.818 360.418 71.4004 363.401 71.4004C366.383 71.4004 368.801 73.818 368.801 76.8004C368.801 79.7827 366.383 82.2004 363.401 82.2004Z" fill="#919396"/>
<path opacity="0.4" d="M467.299 172.3C464.317 172.3 461.899 169.882 461.899 166.9C461.899 163.918 464.317 161.5 467.299 161.5C470.282 161.5 472.699 163.918 472.699 166.9C472.699 169.882 470.282 172.3 467.299 172.3Z" fill="#919396"/>
<path opacity="0.4" d="M575 12.8C572.018 12.8 569.6 10.3823 569.6 7.39999C569.6 4.41766 572.018 2 575 2C577.983 2 580.4 4.41766 580.4 7.39999C580.4 10.3823 577.983 12.8 575 12.8Z" fill="#919396"/>
<path opacity="0.4" d="M589.6 153.8C586.618 153.8 584.2 151.382 584.2 148.4C584.2 145.418 586.618 143 589.6 143C592.582 143 595 145.418 595 148.4C595 151.382 592.582 153.8 589.6 153.8Z" fill="#919396"/>
<path opacity="0.4" d="M658.5 287.6C655.518 287.6 653.1 285.182 653.1 282.2C653.1 279.217 655.518 276.8 658.5 276.8C661.483 276.8 663.9 279.217 663.9 282.2C663.9 285.182 661.483 287.6 658.5 287.6Z" fill="#919396"/>
<path opacity="0.4" d="M218.401 62.0002C215.418 62.0002 213.001 59.5825 213.001 56.6002C213.001 53.6179 215.418 51.2002 218.401 51.2002C221.383 51.2002 223.801 53.6179 223.801 56.6002C223.801 59.5825 221.383 62.0002 218.401 62.0002Z" fill="#919396"/>
</g>
</g>
</g>
</svg>
