<svg width="57" height="60" viewBox="0 0 57 60" fill="none" xmlns="http://www.w3.org/2000/svg">
<g clip-path="url(#clip0)">
<path d="M1.68488 59.8112C1.49769 59.8112 1.40409 59.717 1.40409 59.5286V53.0294C1.40409 52.841 1.49769 52.7468 1.68488 52.7468H5.24153V21.0985H1.68488C1.49769 21.0985 1.40409 21.0043 1.40409 20.8159V14.7876H0.374538C0.280942 14.7876 0.187346 14.6934 0.09375 14.5992C0.09375 14.5051 0.09375 14.3167 0.187346 14.3167L28.2662 0.09375H28.3598H28.4534L56.5322 14.3167C56.6258 14.4109 56.7194 14.5051 56.6258 14.5992C56.6258 14.6934 56.5322 14.7876 56.345 14.7876H55.3154V20.8159C55.3154 21.0043 55.2218 21.0985 55.0346 21.0985H51.478V52.841H55.2218C55.409 52.841 55.5026 52.9352 55.5026 53.1236V59.6228C55.5026 59.8112 55.409 59.9054 55.2218 59.9054H1.68488V59.8112ZM1.96567 59.3402H55.0346V53.4062H1.96567V59.3402ZM42.5864 43.1393C42.7736 43.1393 42.8671 43.2335 42.8671 43.4218V52.841H51.1972V21.0985H42.8671V35.7923C42.8671 35.9807 42.7736 36.0749 42.5864 36.0749C42.3992 36.0749 42.3056 35.9807 42.3056 35.7923V21.0985H38.5617V24.9603C38.5617 25.1487 38.4681 25.2429 38.2809 25.2429H37.0642V48.7908H38.2809C38.4681 48.7908 38.5617 48.885 38.5617 49.0733V52.9352H42.3056V43.516C42.3056 43.3277 42.4928 43.1393 42.5864 43.1393ZM31.1676 52.841H38.0938V49.2617H31.1676V52.841ZM24.8967 48.6966H26.1135C26.3006 48.6966 26.3942 48.7908 26.3942 48.9792V52.841H30.6997V48.9792C30.6997 48.7908 30.7933 48.6966 30.9804 48.6966H32.1972V25.1487H30.8869C30.6997 25.1487 30.6061 25.0545 30.6061 24.8661V21.0043H26.3006V24.8661C26.3006 25.0545 26.207 25.1487 26.0199 25.1487H24.8031V48.6966H24.8967ZM18.9066 52.841H25.8327V49.2617H18.9066V52.841ZM14.4139 37.8646C14.6011 37.8646 14.6947 37.9587 14.6947 38.1471V52.841H18.4386V48.9792C18.4386 48.7908 18.5322 48.6966 18.7194 48.6966H19.9361V25.1487H18.7194C18.5322 25.1487 18.4386 25.0545 18.4386 24.8661V21.0043H14.6947V30.4234C14.6947 30.6118 14.6011 30.706 14.4139 30.706C14.2268 30.706 14.1332 30.6118 14.1332 30.4234V21.0043H5.80311V52.7468H14.1332V38.1471C14.1332 38.0529 14.2268 37.8646 14.4139 37.8646ZM32.5716 48.6966H36.5962V25.1487H32.5716V48.6966ZM20.4041 48.6966H24.4287V25.1487H20.4041V48.6966ZM31.1676 24.6777H38.0938V21.0985H31.1676V24.6777ZM18.9066 24.6777H25.8327V21.0985H18.9066V24.6777ZM1.96567 20.6275H55.0346V14.8818H1.96567V20.6275ZM1.49769 14.3167H55.5962L28.4534 0.658899L1.49769 14.3167Z" fill="black" stroke="black" stroke-width="0.3" stroke-miterlimit="10"/>
<path d="M14.4136 36.2631C14.2264 36.2631 14.1328 36.1689 14.1328 35.9806V32.4955C14.1328 32.4013 14.2264 32.2129 14.4136 32.2129C14.5072 32.2129 14.6944 32.3071 14.6944 32.4955V35.9806C14.6008 36.0747 14.5072 36.2631 14.4136 36.2631Z" fill="black" stroke="black" stroke-width="0.2512" stroke-miterlimit="10"/>
<path d="M21.8081 43.6098C21.7145 43.6098 21.5273 43.5156 21.5273 43.3272V29.0101C21.5273 28.9159 21.6209 28.7275 21.8081 28.7275C21.9017 28.7275 22.0889 28.8217 22.0889 29.0101V43.3272C22.0889 43.5156 21.9953 43.6098 21.8081 43.6098Z" fill="black" stroke="black" stroke-width="0.3" stroke-miterlimit="10"/>
<path d="M42.5855 41.5375C42.3983 41.5375 42.3047 41.4433 42.3047 41.255V37.7699C42.3047 37.6757 42.3983 37.4873 42.5855 37.4873C42.6791 37.4873 42.8663 37.5815 42.8663 37.7699V41.255C42.8663 41.4433 42.6791 41.5375 42.5855 41.5375Z" fill="black" stroke="black" stroke-width="0.2512" stroke-miterlimit="10"/>
<path d="M33.9761 47.5661H33.8825C33.7889 47.5661 33.6953 47.4719 33.6953 47.3777V39.2773C33.6953 39.1831 33.7889 39.0889 33.8825 39.0889H33.9761C34.0697 39.0889 34.1633 39.1831 34.1633 39.2773V47.3777C34.1633 47.4719 34.0697 47.5661 33.9761 47.5661Z" fill="black" stroke="black" stroke-width="0.2267" stroke-miterlimit="10"/>
<path d="M33.8824 38.1469C33.6952 38.1469 33.6016 38.0527 33.6016 37.8643V34.3793C33.6016 34.2851 33.6952 34.0967 33.8824 34.0967C33.9759 34.0967 34.1631 34.1909 34.1631 34.3793V37.8643C34.1631 37.9585 34.0695 38.1469 33.8824 38.1469Z" fill="black" stroke="black" stroke-width="0.2512" stroke-miterlimit="10"/>
</g>
<defs>
<clipPath id="clip0">
<rect width="57" height="60" fill="white"/>
</clipPath>
</defs>
</svg>
