<svg width="58" height="58" viewBox="0 0 58 58" fill="none" xmlns="http://www.w3.org/2000/svg">
<rect x="0.4" y="28.5816" width="28.2909" height="28.2909" stroke="black" stroke-width="0.8"/>
<rect x="28.6918" y="0.4" width="28.2909" height="28.2909" transform="rotate(90 28.6918 0.4)" stroke="black" stroke-width="0.8"/>
<rect x="28.5816" y="28.5816" width="28.2909" height="28.2909" stroke="black" stroke-width="0.8"/>
<rect x="56.8734" y="0.4" width="28.2909" height="28.2909" transform="rotate(90 56.8734 0.4)" stroke="black" stroke-width="0.8"/>
<path d="M12.7111 12.2508C12.6746 12.2784 12.6254 12.3188 12.564 12.3718C12.9311 11.5866 13.4851 10.8187 14.2353 10.0685C15.4274 8.87642 16.5841 8.28564 17.7066 8.214L17.9391 8.19915L18.0409 7.98957L18.2673 7.52348L18.4346 7.17897L18.0977 6.99684L17.1143 6.46525C16.6972 6.23372 16.3102 6.06687 15.9563 5.97588L15.8273 5.94269L15.7041 5.99355C13.6931 6.82377 12.0312 8.18916 10.7208 10.0769L10.7202 10.0778C9.37259 12.0304 8.6918 14.124 8.6918 16.3509C8.6918 18.1212 9.13063 19.5827 10.0485 20.6939L10.0485 20.6939L10.0509 20.6968C10.9859 21.807 12.2427 22.3572 13.7793 22.3572C15.4579 22.3572 16.8644 21.6737 17.9749 20.3358C19.0126 19.0996 19.5326 17.6546 19.5326 16.0179C19.5326 14.6787 19.0884 13.5586 18.1856 12.6942C17.2926 11.8217 16.14 11.3965 14.7647 11.3965C14.0981 11.3965 13.4097 11.711 12.7111 12.2508ZM15.7648 15.3864L15.7648 15.3864L15.769 15.3904C16.2918 15.8824 16.5487 16.4781 16.5487 17.2031C16.5487 17.8019 16.3612 18.2322 16.0156 18.5435C15.6699 18.8539 15.1958 19.027 14.5517 19.027C13.8418 19.027 13.2458 18.8296 12.7448 18.4441L12.7437 18.4433C12.1988 18.0271 11.9421 17.512 11.9421 16.8702C11.9421 16.1194 12.1625 15.5882 12.56 15.2191L12.56 15.2191L12.565 15.2144C12.9295 14.8641 13.4225 14.6734 14.0856 14.6734C14.7104 14.6734 15.2652 14.9024 15.7648 15.3864Z" stroke="black" stroke-width="0.8"/>
<path d="M45.3076 12.7079C45.6583 12.4418 45.9669 12.1219 46.2328 11.7496L46.2329 11.7496L46.2365 11.7443C46.7145 11.0518 46.9598 10.2986 46.9598 9.49296C46.9598 8.37375 46.4808 7.4682 45.5529 6.80969L45.5516 6.80877C44.7582 6.25048 43.8246 5.97306 42.7682 5.96354L42.7681 5.96354C41.6892 5.95407 40.6296 6.20545 39.5933 6.70962L39.4255 6.79125L39.3802 6.9723L38.8076 9.26278L38.722 9.60535L39.0513 9.73282L39.4641 9.89262L39.6966 9.98263L39.8798 9.81352C40.501 9.24013 41.192 8.97223 41.9689 8.9873C42.6642 9.00828 43.1154 9.17298 43.3904 9.41847C43.6553 9.655 43.8161 10.0203 43.8161 10.5849C43.8161 11.0706 43.5722 11.508 42.9615 11.8995L42.9615 11.8994L42.9578 11.9019C42.4242 12.2523 41.8322 12.4438 41.1737 12.4759L40.8932 12.4896L40.8108 12.758L40.2915 14.4492L40.2331 14.6391L40.3492 14.8004L40.5889 15.1333L40.7419 15.3458L40.9979 15.2906C41.4286 15.1977 41.8172 15.1531 42.1653 15.1531C42.8942 15.1531 43.5113 15.3341 44.0327 15.6842C44.6163 16.0784 44.8814 16.5718 44.8814 17.1901C44.8814 17.7854 44.5651 18.3052 43.7806 18.7455L43.78 18.7459C43.3596 18.9828 42.8654 19.1072 42.2852 19.1072C41.6411 19.1072 41.1481 18.9841 40.7811 18.7668C40.4202 18.5532 40.1533 18.2324 39.9826 17.781L39.8849 17.5225H39.6085H39.0891H38.7913L38.7059 17.8079C38.4244 18.7492 38.1257 19.6319 37.8101 20.4561L37.7143 20.7062L37.909 20.89C38.9385 21.8618 40.2108 22.3441 41.6992 22.3441C43.023 22.3441 44.1187 22.022 44.9393 21.3317C46.7756 19.7967 47.7588 18.1233 47.7588 16.3111C47.7588 15.3644 47.4872 14.5439 46.9259 13.8764C46.5193 13.3929 45.9748 13.0064 45.3076 12.7079Z" stroke="black" stroke-width="0.8"/>
<path d="M19.9511 47.9096L19.9143 48.1008L19.4215 50.6576L19.3565 50.9949L19.0133 50.9816C17.1784 50.9107 15.7443 50.8844 14.7076 50.902L14.7073 50.902C13.6141 50.9196 12.1019 50.9814 10.1685 51.0879L9.84039 51.1059L9.75896 50.7876L9.61248 50.215L9.58411 50.1041L9.61871 49.995L10.3112 47.811L10.3521 47.682L10.463 47.6043C11.9198 46.5836 13.1813 45.4477 14.2497 44.197C15.5622 42.6481 16.1518 41.3732 16.1518 40.3547C16.1518 39.6521 15.9006 39.1535 15.4129 38.8018C14.964 38.4803 14.3725 38.3044 13.6088 38.3044C12.8973 38.3044 12.1477 38.5702 11.3537 39.1469L11.1771 39.2752L10.9736 39.196L10.4942 39.0096L10.1524 38.8767L10.2553 38.5246C10.4288 37.931 10.7133 37.1283 11.1054 36.1213L11.1555 35.9926L11.2743 35.9223C12.2598 35.3386 13.4068 35.0541 14.7008 35.0541C15.9915 35.0541 17.0965 35.3996 17.9873 36.1142C18.9915 36.9196 19.482 38.0492 19.482 39.4491C19.482 41.1184 18.7986 42.7667 17.4893 44.3875C16.907 45.1132 15.869 46.141 14.3907 47.4641L19.9511 47.9096ZM19.9511 47.9096L19.8233 47.7627L19.557 47.4564L19.4217 47.3008L19.2164 47.3207C17.9511 47.4437 16.6723 47.5053 15.38 47.5053C15.144 47.5053 14.8255 47.4926 14.4215 47.4662L19.9511 47.9096ZM19.0288 50.5819C17.1911 50.5109 15.7484 50.4843 14.7008 50.502C13.6 50.5198 12.0819 50.5819 10.1465 50.6885L19.0288 50.5819Z" stroke="black" stroke-width="0.8"/>
<path d="M45.6851 46.4255L45.6854 46.425C47.0336 44.4806 47.7143 42.3867 47.7143 40.1513C47.7143 38.3805 47.2708 36.9222 46.3424 35.8194C45.408 34.7003 44.151 34.1449 42.6135 34.1449C40.9346 34.1449 39.5279 34.8287 38.4173 36.1669C37.3886 37.4034 36.8734 38.8482 36.8734 40.4842C36.8734 41.8308 37.3121 42.9557 38.2072 43.8213L38.2088 43.8228C39.1104 44.6853 40.2665 45.1056 41.6413 45.1056C42.3064 45.1056 42.9947 44.7969 43.6944 44.265L43.6946 44.2652L43.7047 44.257C43.7382 44.2297 43.7841 44.1903 43.842 44.1388C43.477 44.922 42.9276 45.6822 42.1852 46.4193L42.1841 46.4203C40.9825 47.6219 39.8214 48.2165 38.6995 48.2881L38.467 48.303L38.3652 48.5126L38.1388 48.9786L37.9749 49.3161L38.3011 49.5013C38.632 49.6891 38.9629 49.8724 39.2938 50.0513L39.2958 50.0523C39.7129 50.2748 40.0985 50.4359 40.4497 50.5262L40.5783 50.5593L40.7011 50.5089C42.7043 49.6874 44.3661 48.3215 45.6851 46.4255ZM40.3772 37.972L40.3775 37.9717C40.7336 37.6512 41.2129 37.4751 41.8544 37.4751C42.5641 37.4751 43.1598 37.6724 43.6608 38.0576C44.1966 38.4729 44.4507 38.9881 44.4507 39.6319C44.4507 40.395 44.2326 40.9307 43.8438 41.2985C43.4796 41.6411 42.9857 41.8287 42.3205 41.8287C41.6937 41.8287 41.1383 41.6027 40.6392 41.1271C40.1135 40.6246 39.8574 40.0273 39.8574 39.3123C39.8574 38.6998 40.0434 38.2717 40.3772 37.972Z" stroke="black" stroke-width="0.8"/>
</svg>
