<svg width="58" height="62" viewBox="0 0 58 62" fill="none" xmlns="http://www.w3.org/2000/svg">
<path d="M34.4378 15.4389L32.6632 16.5362L32.2322 16.611L30.0014 5.46384C29.9253 5.01496 29.6211 4.8404 29.1141 4.94015C28.7085 5.01496 27.9226 5.26434 26.7565 5.68828L26.3001 5.33915L26.3255 3.21945L31.0154 1L31.6238 1.12469L33.2463 10.1521C33.4998 11.4239 33.9054 13.1945 34.4378 15.4389ZM24.8298 58.5312L23.2073 61C21.2553 60.1521 19.7343 59.5037 18.5935 59.0798C17.402 58.6309 15.7542 58.0574 13.6247 57.3591L13.7008 56.6858L15.3739 54.6908C17.402 54.217 19.3033 53.5436 21.0272 52.6459C23.1313 51.5486 24.4242 50.3766 24.9312 49.1546C25.2861 48.2818 25.2354 47.5087 24.7537 46.7855C24.3481 46.1621 23.689 45.6633 22.8017 45.3142C21.9144 44.9651 20.9004 44.9401 19.7343 45.2394L19.3033 44.8404C19.7343 44.2918 20.368 43.5686 21.23 42.6708C22.4468 42.4713 23.7144 42.6459 25.0326 43.1696C26.3255 43.6933 27.2888 44.4414 27.8719 45.4888C28.531 46.6359 28.5817 47.8828 28.024 49.2544C27.3649 50.9003 25.9959 52.2718 23.9679 53.419C22.9285 53.9925 21.0525 54.7656 18.34 55.6883C18.4921 55.7631 18.847 55.9127 19.3794 56.187C19.8103 56.3865 20.1652 56.5362 20.4187 56.6359C21.813 57.1845 23.2327 57.6584 24.6523 58.0823L24.8298 58.5312ZM41.0543 54.5661C40.3699 56.1372 38.8235 57.2843 36.4912 57.9576C35.5278 58.2319 34.4378 58.1322 33.2209 57.6085C31.8773 57.0349 30.914 56.1122 30.3816 54.8903C31.0407 54.217 31.6999 53.4938 32.3843 52.7207L32.8914 52.9451C32.8407 54.1172 33.4744 54.9651 34.818 55.5387C35.4264 55.813 36.0349 55.9127 36.6179 55.8379C37.6573 55.7382 38.3418 55.3142 38.6713 54.5661C39.0009 53.8429 38.9249 53.1197 38.4432 52.3965C38.0376 51.7731 37.4545 51.2993 36.6686 50.9751C36.2884 50.8254 35.8828 50.7007 35.4011 50.601L35.2997 50.1771L36.5165 48.7805C37.2263 49.0549 37.9615 49.1297 38.722 49.005C39.584 48.8803 40.1417 48.5062 40.4206 47.8828C40.9529 46.6608 40.4966 45.7382 39.077 45.0648C38.215 44.6908 37.3277 44.6409 36.3898 44.9651L36.0602 44.6409L37.5813 42.6958C38.7474 42.6459 39.8121 42.8454 40.7755 43.2693C41.7134 43.6933 42.4486 44.2918 42.9303 45.0648C43.488 45.9626 43.5641 46.8853 43.1331 47.808C42.8289 48.4813 42.3472 49.0299 41.6627 49.4539C41.0543 49.8279 40.3699 50.0274 39.66 50.0524C41.3332 51.3741 41.7895 52.8953 41.0543 54.5661ZM56.9493 23.1696L57 25.4638L55.8846 25.6384L56.4169 28.8803L54.4649 29.6284L53.8565 25.9626L48.6089 26.8105L48.4314 24.2668C49.0652 21.5736 50.282 19.0299 52.0819 16.6359C52.9185 16.2868 53.6283 16.0623 54.2621 15.9626L55.479 23.394L56.9493 23.1696ZM53.5016 23.7182L52.6904 18.8055C51.3721 20.4264 50.5355 22.2219 50.2313 24.2419L53.5016 23.7182ZM11.0136 21.1247C11.5459 22.4713 11.8502 23.5686 11.9262 24.4414C10.7854 25.3641 9.31507 26.3117 7.54052 27.2594L5.28429 28.3317C5.36034 28.4564 5.51245 28.7307 5.76596 29.1546C6.01947 29.5786 6.19692 29.9027 6.32368 30.1022C6.57718 30.5511 6.88139 31.1247 7.23631 31.8229C7.81938 31.2743 8.45315 30.8504 9.08692 30.5012C10.7347 29.6284 12.2811 29.3541 13.7261 29.6783C15.1711 30.0274 16.3119 30.9252 17.1485 32.4214C18.3146 34.5162 18.5681 36.611 17.9344 38.7307C17.3006 40.7756 16.033 42.2968 14.081 43.3441C12.3065 44.2918 10.5573 44.5661 8.78271 44.192L8.02218 40.1521L8.70665 39.7781C9.31508 40.2269 10.0502 40.4763 10.8615 40.5761C11.6981 40.6509 12.4079 40.5262 13.0416 40.202C14.2078 39.5786 14.9937 38.7805 15.4246 37.8329C15.8302 36.8603 15.8049 35.9377 15.2979 35.015C14.1317 32.8953 12.129 32.596 9.31508 34.1172C8.40245 34.591 7.66727 35.2394 7.10955 36.0374L6.37438 36.1122C5.66455 34.3915 4.90403 32.7706 4.0928 31.2743C3.12947 29.5786 2.11544 28.0324 1 26.6608L1.07605 26.212C3.02807 25.2893 4.49842 24.5661 5.51245 24.0424C7.43911 22.995 9.08692 21.9975 10.4305 21L11.0136 21.1247ZM38.4178 28.6808C39.5333 31.0499 39.7361 33.4688 39.0516 35.9626C38.3418 38.606 36.77 40.5012 34.3364 41.5736C32.1055 42.5711 29.976 42.596 27.9226 41.6484C25.8692 40.6758 24.2467 38.9052 23.0299 36.2868C21.5088 32.995 21.0779 29.4539 21.7623 25.6384C22.4215 21.9476 23.9932 18.8055 26.4269 16.212C26.9593 16.1122 27.6184 16.0873 28.4043 16.1621L30.3309 16.2868L30.3056 17.1596C28.4043 18.1571 26.9339 20.0524 25.8945 22.7955C24.8551 25.5636 24.627 28.0823 25.2101 30.3516C25.8185 28.8803 26.1734 28.0075 26.3255 27.7332C26.9846 26.4613 27.7451 25.6384 28.5817 25.2643C30.5844 24.3666 32.5111 24.217 34.3364 24.8653C36.1616 25.4888 37.5306 26.7606 38.4178 28.6808ZM35.8828 32.0474C35.2743 30.7756 34.311 29.9027 32.9674 29.4539C31.6745 29.005 30.4577 29.0549 29.3169 29.5786C28.1507 30.1022 27.3649 30.8504 26.9846 31.8479C26.5283 32.8953 26.6043 34.0673 27.2128 35.3641C27.7705 36.5611 28.7085 37.2843 30.0774 37.5835C31.2943 37.8579 32.5364 37.7082 33.7533 37.1596C34.8687 36.6608 35.6292 35.9377 36.0349 35.015C36.4405 34.0923 36.3898 33.0948 35.8828 32.0474ZM52.1073 30.9003C51.5242 33.4439 50.9158 35.9626 50.3327 38.5062C49.6736 41.7481 49.4708 44.1172 49.7497 45.5885L49.8764 46.3616C49.3947 46.6359 48.6089 47.0349 47.5948 47.5835L47.0371 47.409C46.809 45.3641 47.0118 43.0449 47.6709 40.5012C48.33 38.3067 48.9638 36.1122 49.6229 33.9177C48.5835 34.1421 47.5695 34.3416 46.5808 34.5162C45.2879 34.7406 44.426 34.8404 43.9697 34.8653C43.1331 34.9152 42.5754 34.7905 42.2712 34.4913C42.2458 34.3416 42.3979 33.1945 42.7021 31.0998L43.2598 31C43.5894 31.4239 44.0457 31.6733 44.6288 31.6983C45.1358 31.7232 46.1245 31.6234 47.5948 31.3741C48.7356 31.1746 50.0539 30.8504 51.5749 30.3516L52.1073 30.9003ZM22.751 15.5885C22.6496 17.1347 21.9651 18.4564 20.723 19.5037C19.4301 20.601 17.909 21.0748 16.1598 20.9751C14.7909 20.9002 13.7515 20.4264 12.9909 19.5536C12.2304 18.6808 11.9009 17.6334 12.0023 16.3367C12.1037 14.7656 13.067 13.4439 14.9176 12.4214C13.6501 11.7232 13.0163 10.7506 13.0416 9.50374C13.067 8.05736 13.6501 6.83541 14.8162 5.86284C15.9823 4.89027 17.2752 4.4414 18.7456 4.54115C20.0131 4.61596 20.9765 4.99002 21.6356 5.68828C22.2947 6.3616 22.5736 7.30923 22.4975 8.45636C22.4468 9.25436 22.1426 9.97756 21.5595 10.6259C21.2807 10.9501 20.7737 11.3491 20.0385 11.8479C20.9511 12.2718 21.6102 12.7207 21.9905 13.1696C22.5736 13.793 22.8271 14.591 22.751 15.5885ZM20.1399 16.4863C20.2159 15.2643 18.9991 14.217 16.464 13.3192C15.2472 14.0673 14.6134 14.9402 14.5627 15.9377C14.512 16.6608 14.7402 17.2594 15.2472 17.783C15.7542 18.3067 16.4133 18.581 17.2245 18.6309C17.9597 18.6808 18.6442 18.5062 19.2019 18.1072C19.785 17.7082 20.0892 17.1596 20.1399 16.4863ZM20.0385 8.80549C20.0638 8.20698 19.861 7.73317 19.4554 7.33416C19.0498 6.93516 18.5174 6.73566 17.8837 6.68579C17.3259 6.66085 16.8189 6.78554 16.3626 7.10973C15.9063 7.43392 15.6528 7.83292 15.6274 8.33167C15.5514 9.40399 16.4894 10.2768 18.3907 10.9501C18.8216 10.8254 19.2019 10.5511 19.5315 10.1272C19.861 9.70324 20.0131 9.25436 20.0385 8.80549ZM48.1019 16.2618C47.4934 18.3317 46.2512 20.0773 44.4513 21.5237C42.6768 22.9202 40.7248 23.7431 38.6206 23.9426C38.3418 23.7681 38.0376 23.5436 37.708 23.2195C37.4292 22.9451 37.1756 22.6958 36.8968 22.4214L37.2517 22.0474C38.4939 22.3217 39.9135 22.0474 41.4853 21.1995C43.0317 20.3766 44.1471 19.3292 44.7809 18.0823C43.919 18.5062 43.412 18.7556 43.2345 18.8304C42.4486 19.1297 41.7641 19.2045 41.2318 19.0549C39.9642 18.6808 39.0516 18.0075 38.4939 17.0349C37.9362 16.0623 37.8094 14.9651 38.1897 13.7681C38.646 12.2968 39.5079 11.1247 40.7755 10.2768C42.1444 9.37905 43.5894 9.12968 45.1105 9.57855C46.5048 9.97756 47.4681 10.8005 48.0005 12.0224C48.5582 13.1945 48.5835 14.616 48.1019 16.2618ZM45.8456 15.0399C46.0738 14.2918 45.947 13.6185 45.4654 12.9701C45.0344 12.3716 44.426 11.9726 43.6401 11.7481C42.9303 11.5486 42.3219 11.5736 41.7641 11.8229C41.2318 12.0723 40.8515 12.5461 40.6487 13.2195C40.4206 14.0175 40.4966 14.7656 40.9276 15.4888C41.3332 16.1621 41.8909 16.611 42.6007 16.8354C43.3359 17.0599 43.9697 17.01 44.5527 16.7357C45.1865 16.4115 45.6175 15.8628 45.8456 15.0399Z" stroke="black" stroke-width="0.8"/>
</svg>
