<svg width="65" height="53" viewBox="0 0 65 53" fill="none" xmlns="http://www.w3.org/2000/svg">
<path d="M62.7714 31.7197C57.4935 43.5981 45.7081 51.9949 31.9755 51.9949C18.3967 51.9949 6.61123 43.7517 1.17969 31.8733" stroke="#343434" stroke-width="0.8" stroke-miterlimit="10" stroke-linecap="round"/>
<path d="M37.9199 35.6113C39.8158 35.7137 43.0953 36.2769 45.6573 39.0417C49.5004 42.9329 48.5781 47.5921 48.5781 47.5921" stroke="#343434" stroke-width="0.8" stroke-miterlimit="10" stroke-linecap="round"/>
<path d="M14.9128 47.2847C14.9128 47.2847 13.4268 42.1135 18.2947 38.0175C20.1906 36.4303 22.7014 35.6111 24.9048 35.4062" stroke="#343434" stroke-width="0.8" stroke-miterlimit="10" stroke-linecap="round"/>
<path d="M42.633 36.7373C42.1718 39.0413 39.5073 43.9565 31.7187 43.9565C24.5449 43.9565 21.0605 36.3789 21.0605 36.3789" stroke="#343434" stroke-width="0.8" stroke-miterlimit="10" stroke-linecap="round"/>
<path d="M29.9258 36.3789V39.6045" stroke="#343434" stroke-width="0.8" stroke-miterlimit="10" stroke-linecap="round"/>
<path d="M33.4102 36.1748V39.6052" stroke="#343434" stroke-width="0.8" stroke-miterlimit="10" stroke-linecap="round"/>
<path d="M23.1113 23.0158V12.0078" stroke="#343434" stroke-width="0.8" stroke-miterlimit="10" stroke-linecap="round"/>
<path d="M39.9688 12.9297V23.5793" stroke="#343434" stroke-width="0.8" stroke-miterlimit="10" stroke-linecap="round"/>
<path d="M23.1109 19.7904C23.1109 19.7904 21.1125 19.432 21.3175 21.8384C21.42 23.5792 23.1109 23.5792 23.1109 23.5792" stroke="#343434" stroke-width="0.8" stroke-miterlimit="10" stroke-linecap="round"/>
<path d="M39.9688 19.7904C39.9688 19.7904 41.9671 19.432 41.7622 21.8384C41.6597 23.5792 39.9688 23.5792 39.9688 23.5792" stroke="#343434" stroke-width="0.8" stroke-miterlimit="10" stroke-linecap="round"/>
<path d="M23.11 13.493C23.11 13.493 23.2124 9.80657 23.3149 9.03857C23.3149 8.11697 22.8537 5.81297 21.5215 4.94257C21.8802 4.27697 25.0059 2.17777 28.3878 4.73777C29.2589 2.89457 28.0291 1.51217 28.0291 1.51217C29.2589 1.05137 32.2821 0.948974 34.6392 3.81617C36.1252 3.15057 38.0211 2.33137 38.0211 2.33137C38.0211 2.33137 40.5831 5.76177 39.8145 12.8786C39.8145 14.3634 39.8145 14.3634 39.8145 14.3634C39.8145 14.3634 37.9186 12.0594 35.3053 11.8546C33.5119 11.7522 32.5895 12.6738 31.3598 12.8786C30.5911 12.981 29.5663 12.6738 28.5415 11.7522C27.7216 10.7794 23.8786 11.5474 23.11 13.493Z" stroke="#343434" stroke-width="0.8" stroke-miterlimit="10" stroke-linecap="round"/>
<path d="M30.0786 22.1971C30.0786 22.1971 25.0058 23.3235 23.1098 21.3779C23.1098 22.6579 23.1098 23.6819 23.1098 23.6819C23.1098 23.6819 21.3164 24.1427 21.3164 25.6275C21.3164 27.1123 22.5462 27.5731 22.5462 27.5731C22.085 28.2387 21.5214 28.9555 22.085 30.4403C21.5214 31.1059 21.0602 32.4883 22.29 33.7683C23.5198 35.0483 25.0058 34.5875 25.0058 34.5875C24.9033 35.5091 25.3644 37.1987 26.5942 37.5571C27.9265 37.9155 28.9513 37.6595 29.7199 36.4307C30.3861 37.4547 32.282 37.5571 33.4093 36.3283C34.8953 37.4547 36.8937 38.0691 38.021 34.8435C39.7119 35.4067 40.9417 34.9459 41.5054 33.8195C42.069 32.6931 41.864 31.4131 41.1467 30.9523C41.6078 30.4915 41.2492 29.1091 40.9417 28.8019C42.274 28.1363 43.6575 24.9107 39.8144 23.6307C39.8144 22.5043 39.8144 21.6851 39.8144 21.6851C39.8144 21.6851 35.9713 23.2723 32.6407 22.1459" stroke="#343434" stroke-width="0.8" stroke-miterlimit="10" stroke-linecap="round"/>
<path d="M30.2852 2.89453C30.2852 2.89453 32.7447 3.35533 33.3084 5.19853" stroke="#343434" stroke-width="0.8" stroke-miterlimit="10" stroke-linecap="round"/>
<path d="M38.5859 11.5469C38.5859 12.1101 38.5859 12.5709 38.5859 13.1341" stroke="#343434" stroke-width="0.8" stroke-miterlimit="10" stroke-linecap="round"/>
<path d="M37.459 4.37891C37.459 4.37891 38.3813 7.24611 38.5863 10.4205" stroke="#343434" stroke-width="0.8" stroke-miterlimit="10" stroke-linecap="round"/>
<path d="M29.9258 26.4463C29.9258 26.4463 31.4118 27.9311 32.6416 26.4463" stroke="#343434" stroke-width="0.8" stroke-miterlimit="10" stroke-linecap="round"/>
<path d="M30.0801 20.7119C30.0801 20.7119 30.0801 22.5551 30.0801 23.2207C30.0801 23.8863 30.5412 24.6031 31.4123 24.6031C32.3347 24.6031 32.6421 24.0399 32.6421 23.3231C32.6421 22.6575 32.6421 20.7119 32.6421 20.7119" stroke="#343434" stroke-width="0.8" stroke-miterlimit="10" stroke-linecap="round"/>
<path d="M25.3652 19.0229C25.3652 19.0229 25.8264 17.8965 26.8512 17.8965C27.876 17.8965 28.3372 18.7157 28.5422 19.0229" stroke="#343434" stroke-width="0.8" stroke-miterlimit="10" stroke-linecap="round"/>
<path d="M34.332 19.0229C34.332 19.0229 34.7932 17.8965 35.818 17.8965C36.8428 17.8965 37.304 18.7157 37.509 19.0229" stroke="#343434" stroke-width="0.8" stroke-miterlimit="10" stroke-linecap="round"/>
<path d="M25.1094 16.1553H28.2351" stroke="#343434" stroke-width="0.8" stroke-miterlimit="10" stroke-linecap="round"/>
<path d="M34.332 16.1553H37.4577" stroke="#343434" stroke-width="0.8" stroke-miterlimit="10" stroke-linecap="round"/>
<path d="M18.6003 37.5568C17.2681 36.1744 15.2184 35.1504 11.9902 35.1504" stroke="#343434" stroke-width="0.8" stroke-miterlimit="10" stroke-linecap="round"/>
<path d="M8.71245 35.1504C6.45785 35.1504 4.76689 35.6112 3.53711 36.2768" stroke="#343434" stroke-width="0.8" stroke-miterlimit="10" stroke-linecap="round"/>
<path d="M8.71094 33.3076V36.738" stroke="#343434" stroke-width="0.8" stroke-miterlimit="10" stroke-linecap="round"/>
<path d="M11.9902 33.3076V36.738" stroke="#343434" stroke-width="0.8" stroke-miterlimit="10" stroke-linecap="round"/>
<path d="M5.68945 35.458C5.68945 35.458 6.45807 40.0148 10.3011 40.0148C14.1442 40.0148 15.0153 36.482 15.0153 35.458" stroke="#343434" stroke-width="0.8" stroke-miterlimit="10" stroke-linecap="round"/>
<path d="M2.30705 23.9374C2.30705 23.9374 1.64092 21.9918 2.10209 20.6094" stroke="#343434" stroke-width="0.8" stroke-miterlimit="10" stroke-linecap="round"/>
<path d="M18.2426 23.6822C18.2426 23.6822 18.7038 19.9958 17.8839 18.2038C17.1153 16.3606 15.3219 16.0534 14.6045 14.671C13.9384 13.391 11.7862 10.319 9.53163 12.0598C6.96958 10.6774 3.1265 11.4966 1.53803 14.4662C0.0520416 17.3846 1.84548 21.5318 4.45877 22.2998C7.02082 23.119 10.7614 22.1974 11.0689 20.3542C11.4275 18.511 13.7846 18.0502 15.0144 18.767C16.7054 19.6886 17.0128 23.5798 17.0128 23.5798C17.0128 23.5798 17.0128 24.8598 17.0128 26.5494C17.0128 28.2902 16.0905 33.2054 10.249 33.2054C4.45877 33.2054 3.53643 28.0342 3.53643 26.191C3.53643 24.4502 3.53643 21.839 3.53643 21.839" stroke="#343434" stroke-width="0.8" stroke-miterlimit="10" stroke-linecap="round"/>
<path d="M3.63822 23.375C3.63822 23.375 1.94727 23.4774 1.94727 25.3206C1.94727 26.703 3.63822 27.2662 3.63822 27.2662" stroke="#343434" stroke-width="0.8" stroke-miterlimit="10" stroke-linecap="round"/>
<path d="M17.1152 23.375C17.1152 23.375 18.9087 23.4774 18.9087 25.3206C18.9087 26.703 17.2177 27.2662 17.2177 27.2662" stroke="#343434" stroke-width="0.8" stroke-miterlimit="10" stroke-linecap="round"/>
<path d="M10.4017 30.9005C11.0678 30.9005 11.6314 30.2861 11.6314 29.5181C11.6314 28.7501 11.0678 28.1357 10.4017 28.1357C9.73553 28.1357 9.17188 28.7501 9.17188 29.5181C9.17188 30.2861 9.73553 30.9005 10.4017 30.9005Z" stroke="#343434" stroke-width="0.8" stroke-miterlimit="10" stroke-linecap="round"/>
<path d="M10.9661 26.1904C10.9661 26.5488 10.6074 26.856 10.3 26.856C10.095 26.856 9.73633 26.6512 9.73633 26.1904" stroke="#343434" stroke-width="0.8" stroke-miterlimit="10" stroke-linecap="round"/>
<path d="M7.68774 24.7061C7.68774 25.1669 7.32905 25.5253 7.0216 25.5253C6.66291 25.5253 6.35547 25.0645 6.35547 24.7061" stroke="#343434" stroke-width="0.8" stroke-miterlimit="10" stroke-linecap="round"/>
<path d="M14.1936 24.7061C14.1936 25.1669 13.8349 25.5253 13.5275 25.5253C13.1688 25.5253 12.8613 25.1669 12.8613 24.7061" stroke="#343434" stroke-width="0.8" stroke-miterlimit="10" stroke-linecap="round"/>
<path d="M10.4018 29.5186C9.9406 29.5186 9.63316 29.7234 9.37695 30.1842C9.58192 30.5426 9.9406 30.8498 10.4018 30.8498C10.8629 30.8498 11.1704 30.645 11.4266 30.1842C11.1704 29.877 10.8629 29.5186 10.4018 29.5186Z" stroke="#343434" stroke-width="0.8" stroke-miterlimit="10" stroke-linecap="round"/>
<path d="M5.68945 24.3984H8.40523" stroke="#343434" stroke-width="0.8" stroke-miterlimit="10" stroke-linecap="round"/>
<path d="M6.25195 23.2207L7.84042 23.4255" stroke="#343434" stroke-width="0.8" stroke-miterlimit="10" stroke-linecap="round"/>
<path d="M14.3482 23.2207L12.7598 23.4255" stroke="#343434" stroke-width="0.8" stroke-miterlimit="10" stroke-linecap="round"/>
<path d="M12.1953 24.3984H14.9111" stroke="#343434" stroke-width="0.8" stroke-miterlimit="10" stroke-linecap="round"/>
<path d="M60.6193 35.8166C59.287 34.6902 57.1349 33.7686 53.8555 33.7686" stroke="#343434" stroke-width="0.8" stroke-miterlimit="10" stroke-linecap="round"/>
<path d="M50.5236 33.8702C50.5236 33.8702 45.7069 32.7438 42.8887 36.4814" stroke="#343434" stroke-width="0.8" stroke-miterlimit="10" stroke-linecap="round"/>
<path d="M50.7285 35.0486V31.9766" stroke="#343434" stroke-width="0.8" stroke-miterlimit="10" stroke-linecap="round"/>
<path d="M53.752 35.0486V31.9766" stroke="#343434" stroke-width="0.8" stroke-miterlimit="10" stroke-linecap="round"/>
<path d="M44.8887 17.9985C44.8887 17.9985 44.8887 21.7873 44.8887 23.7329C44.8887 25.6785 45.5548 31.7201 52.3186 31.7201C59.0824 31.7201 59.7486 26.3441 59.7486 24.1425C59.7486 21.9409 59.7486 17.9473 59.7486 17.9473" stroke="#343434" stroke-width="0.8" stroke-miterlimit="10" stroke-linecap="round"/>
<path d="M63.8984 17.9982H44.888C44.683 17.9982 44.5293 17.7934 44.5293 17.5374C44.888 15.899 46.4765 10.2158 52.3179 10.2158C58.1594 10.2158 59.3892 14.9262 59.6454 16.155C59.6454 16.2574 59.7479 16.3598 60.0041 16.3598C60.7214 16.3598 63.181 16.4622 63.8984 17.9982Z" stroke="#343434" stroke-width="0.8" stroke-miterlimit="10" stroke-linecap="round"/>
<path d="M45.6562 14.3125C45.6562 14.3125 47.5522 14.7733 47.5522 17.9989" stroke="#343434" stroke-width="0.8" stroke-miterlimit="10" stroke-linecap="round"/>
<path d="M44.8887 16.8213H47.4507" stroke="#343434" stroke-width="0.8" stroke-miterlimit="10" stroke-linecap="round"/>
<path d="M44.8882 20.6094C44.8882 20.6094 43.1973 20.9678 43.1973 22.6574C43.1973 24.7054 44.8882 24.603 44.8882 24.603" stroke="#343434" stroke-width="0.8" stroke-miterlimit="10" stroke-linecap="round"/>
<path d="M59.9531 20.6094C59.9531 20.6094 61.6441 20.9678 61.6441 22.6574C61.6441 24.7054 59.9531 24.603 59.9531 24.603" stroke="#343434" stroke-width="0.8" stroke-miterlimit="10" stroke-linecap="round"/>
<path d="M47.9121 19.791L49.7055 20.1494" stroke="#343434" stroke-width="0.8" stroke-miterlimit="10" stroke-linecap="round"/>
<path d="M55.1367 20.3534L56.8277 19.5342" stroke="#343434" stroke-width="0.8" stroke-miterlimit="10" stroke-linecap="round"/>
<path d="M46.8867 22.0941C46.8867 22.0941 48.3727 20.5069 50.1661 22.0941" stroke="#343434" stroke-width="0.8" stroke-miterlimit="10" stroke-linecap="round"/>
<path d="M51.396 24.04C51.396 24.04 51.191 25.064 52.0621 25.064C52.9845 25.064 52.7283 24.04 52.7283 24.04" stroke="#343434" stroke-width="0.8" stroke-miterlimit="10" stroke-linecap="round"/>
<path d="M47.9116 21.7363C47.9116 21.7363 47.7066 22.7603 48.5777 22.7603C49.5001 22.7603 49.2439 21.7363 49.2439 21.7363" stroke="#343434" stroke-width="0.8" stroke-miterlimit="10" stroke-linecap="round"/>
<path d="M44.9902 24.8595C44.9902 24.8595 46.0151 26.4467 48.1159 27.0099C50.2681 27.5731 51.0367 26.0883 52.0615 26.0883C53.0863 26.0883 54.2136 26.9075 55.9046 26.9075C57.5955 26.9075 58.9278 25.6275 59.5939 24.6035" stroke="#343434" stroke-width="0.8" stroke-miterlimit="10" stroke-linecap="round"/>
<path d="M57.3397 21.89C55.4438 20.866 54.5215 21.6852 54.5215 22.3508C54.8802 22.146 55.5463 21.9924 56.3149 22.3508" stroke="#343434" stroke-width="0.8" stroke-miterlimit="10" stroke-linecap="round"/>
<path d="M50.9336 27.7266H53.0857" stroke="#343434" stroke-width="0.5" stroke-miterlimit="10" stroke-linecap="round"/>
<path d="M47.1416 33.8701C47.1416 33.8701 46.1168 41.4477 52.0607 41.4477C58.0047 41.4477 56.9799 34.1261 56.9799 34.1261" stroke="#343434" stroke-width="0.8" stroke-miterlimit="10" stroke-linecap="round"/>
<path d="M2.4082 16.1556C2.4082 15.7972 2.51069 15.5924 2.61317 15.234C3.33054 13.0324 5.79011 12.2644 8.50588 12.93" stroke="#343434" stroke-width="0.5" stroke-miterlimit="10" stroke-linecap="round"/>
<path d="M2.97185 19.0229C2.97185 19.0229 2.61317 18.4597 2.4082 17.5381" stroke="#343434" stroke-width="0.5" stroke-miterlimit="10" stroke-linecap="round"/>
<path d="M54.2129 11.5469C55.6989 12.1101 57.3386 13.3901 58.6196 16.1037" stroke="#343434" stroke-width="0.5" stroke-miterlimit="10" stroke-linecap="round"/>
<path d="M50.5234 11.343C50.5234 11.343 51.4458 11.1382 52.778 11.2406" stroke="#343434" stroke-width="0.5" stroke-miterlimit="10" stroke-linecap="round"/>
</svg>
