<svg width="76" height="41" viewBox="0 0 76 41" fill="none" xmlns="http://www.w3.org/2000/svg">
<path d="M38.1645 2.83301H20.4805V20.7497H38.1645V2.83301Z" stroke="#303030" stroke-width="0.8"/>
<path d="M73.5336 2.83301H55.8496V20.7497H73.5336V2.83301Z" stroke="#303030" stroke-width="0.8"/>
<path d="M20.4809 20.75H2.79688V38.6667H20.4809V20.75Z" stroke="#303030" stroke-width="0.8"/>
<path d="M55.848 20.75H38.1641V38.6667H55.848V20.75Z" stroke="#303030" stroke-width="0.8"/>
<path d="M24.8398 6H32.4892V7.33333H33.8052V11.25H32.4892V12.5833H33.8052V16.5H32.4892V17.8333H24.8398V6ZM26.1559 11.1667H32.5714V7.25H26.1559V11.1667ZM32.4892 12.4167H26.0736V16.3333H32.4892V12.4167Z" fill="#303030"/>
<path d="M60.207 7.25H61.5231V6H67.9386V7.33333H69.2547V8.66667H67.9386V7.25H61.5231V16.3333H67.9386V12.4167H65.3889V11.0833H69.2547V16.25H67.9386V17.5833H61.5231V16.25H60.207V7.25Z" fill="#303030"/>
<path d="M14.8056 25.1663H8.39002V34.2497H13.4896V35.583H8.39002V34.2497H7.15625V25.1663H8.47227V23.833H14.8056V25.1663H16.1216V32.9163H14.8056V25.1663ZM12.2558 31.6663H13.5718V32.9997H14.8056V34.333H16.1216V35.6663H14.8056V34.333H13.4896V32.9997H12.1736V31.6663H12.2558Z" fill="#303030"/>
<path d="M42.5241 23.917H43.8401V26.5003H45.1561V27.8337H46.4721V29.167H47.7882V30.5003H49.1042V31.667H50.1734V23.917H51.4895V35.5837H50.1734V33.0003H48.8574V31.667H47.5414V30.3337H46.2254V29.0003H44.9094V27.667H43.5934V35.417H42.2773V23.917H42.5241Z" fill="#303030"/>
<path d="M14.3398 9.95018L12.8008 6.35742L6.91577 8.94507L8.45474 12.5378L14.3398 9.95018Z" fill="#303030"/>
<path d="M16.2035 0L0 7.16667L7.07359 23.5833L23.2771 16.4167L16.2035 0ZM14.8052 11.0833L8.96537 13.6667L11.0216 18.4167L9.87013 18.9167L5.75758 9.41667L6.90909 8.91667L6.41558 7.75L12.2554 5.16667L12.7489 6.33333L13.9827 5.83333L18.013 15.3333L16.8615 15.8333L14.8052 11.0833Z" fill="#303030"/>
<path d="M41.7018 0.333008L35.6152 17.1663L52.23 23.333L58.3165 6.49967L41.7018 0.333008ZM45.5676 6.41634L44.2516 10.083L50.2559 12.333L49.8447 13.583L43.8403 11.333L42.5243 14.9997L49.6802 17.6663L49.2689 18.9163L40.8793 15.833L44.8274 4.91634L53.217 7.99967L52.8057 9.24967L45.5676 6.41634Z" fill="#303030"/>
<path d="M19 22.3337L21.8788 40.0003L39.316 37.0837L36.4372 19.417L19 22.3337ZM33.2294 34.917L25.6623 36.167L23.8528 24.667L31.4199 23.417L31.5844 24.667L32.8182 24.5003L34.2164 33.417L32.9827 33.5837L33.2294 34.917Z" fill="#303030"/>
<path d="M25.3345 25.6744L26.7734 34.6396L33.1056 33.5964L31.6667 24.6312L25.3345 25.6744Z" fill="#303030"/>
<path d="M58.1518 18.917L53.957 36.3337L71.1475 40.5837L75.3423 23.167L58.1518 18.917ZM67.8575 35.417L66.6237 35.0837L66.2947 36.3337L65.0609 36.0003L65.3899 34.7503L64.1562 34.417L64.4852 33.167L63.2514 32.8337L62.8401 34.167L61.6064 33.8337L61.2774 35.0837L60.0436 34.8337L60.3726 33.5837L59.1389 33.2503L61.5241 23.167L62.7579 23.5003L60.3726 33.5837L61.6064 33.917L61.9354 32.667L63.1692 33.0003L64.0739 29.2503L65.3077 29.5837L64.4029 33.3337L65.6367 33.667L65.3077 34.917L66.5414 35.2503L68.9267 25.167L70.1605 25.5003L67.8575 35.417Z" fill="#303030"/>
</svg>
