<svg width="184" height="80" viewBox="0 0 184 80" fill="none" xmlns="http://www.w3.org/2000/svg">
<rect x="12" y="8" width="168" height="72" rx="36" fill="#8AF2F2"/>
<path d="M74.672 55.624C80.48 55.624 85.04 53.224 88.304 49.576V37.288H73.04V43.24H81.488V47.08C80.192 48.28 77.504 49.528 74.672 49.528C68.864 49.528 64.64 45.064 64.64 39.016C64.64 32.968 68.864 28.504 74.672 28.504C78.08 28.504 80.816 30.424 82.256 32.68L87.92 29.608C85.52 25.816 81.344 22.456 74.672 22.456C65.312 22.456 57.632 28.888 57.632 39.016C57.632 49.096 65.312 55.624 74.672 55.624ZM108.883 55.576C118.579 55.576 125.635 48.664 125.635 39.016C125.635 29.368 118.579 22.456 108.883 22.456C99.2349 22.456 92.1789 29.368 92.1789 39.016C92.1789 48.664 99.2349 55.576 108.883 55.576ZM108.883 49.528C102.979 49.528 99.1869 44.968 99.1869 39.016C99.1869 33.016 102.979 28.504 108.883 28.504C114.787 28.504 118.627 33.016 118.627 39.016C118.627 44.968 114.787 49.528 108.883 49.528Z" fill="#656565"/>
<rect x="1" y="1" width="182" height="78" rx="39" stroke="#656565" stroke-width="2"/>
</svg>
