<svg width="289" height="371" viewBox="0 0 289 371" fill="none" xmlns="http://www.w3.org/2000/svg">
<path d="M36.4158 351.135C44.632 363.795 62.6048 374.429 109.334 360.25C160.685 344.552 199.198 275.176 199.198 229.094C199.198 179.467 185.847 90.3412 87.7668 94.8987C-5.692 99.4563 0.98363 188.076 7.14575 211.876C13.8214 237.702 38.4698 268.592 67.7399 269.605C97.0099 270.618 97.5234 254.413 94.9559 243.273C92.3883 232.132 78.0101 227.068 70.8209 228.081C63.6318 229.6 61.0643 237.702 53.8751 234.158C46.686 230.613 20.497 211.876 36.4158 162.756C52.3346 113.635 119.091 113.635 151.955 150.096C184.82 186.556 179.171 259.477 139.118 298.976C133.469 304.04 121.145 307.079 131.929 292.899C142.712 278.72 163.766 230.106 152.469 188.076C141.172 146.045 100.605 132.878 69.7939 147.057C38.9833 161.237 46.1725 197.191 48.2265 197.697C50.2806 198.203 48.74 180.48 67.2264 173.39C85.7127 165.794 90.3343 169.845 89.8208 171.871C89.3073 173.39 56.9562 187.569 60.5507 216.94C61.0643 218.966 82.1181 202.761 104.199 226.055C118.577 241.247 112.929 269.605 88.7938 281.759C66.7129 292.899 52.3346 283.278 36.9293 303.027C22.0375 321.258 29.2267 339.994 36.4158 351.135Z" stroke="#656565" stroke-width="6.32551" stroke-miterlimit="10"/>
<path d="M104.875 66.291C174.199 70.8486 226.577 130.603 221.955 199.979" stroke="#656565" stroke-width="6.32551" stroke-miterlimit="10" stroke-linecap="round"/>
<path d="M106.418 41.4707C189.093 46.5347 252.255 118.443 246.606 201.492" stroke="#656565" stroke-width="6.32551" stroke-miterlimit="10" stroke-linecap="round"/>
<path d="M108.988 4C212.717 10.5831 291.284 100.215 284.609 204.026" stroke="#656565" stroke-width="6.32551" stroke-miterlimit="10" stroke-linecap="round"/>
</svg>
