<svg width="48" height="48" viewBox="0 0 48 48" fill="none" xmlns="http://www.w3.org/2000/svg">
<path d="M47.5833 23.833C47.5833 36.5989 37.6794 46.9163 25.5 46.9163C13.3206 46.9163 3.41667 36.5989 3.41667 23.833C3.41667 11.0672 13.3206 0.749675 25.5 0.749675C37.6794 0.749675 47.5833 11.0672 47.5833 23.833Z" stroke="#8AF2F2" stroke-width="0.833333"/>
<circle cx="24" cy="24" r="23.5833" stroke="#656565" stroke-width="0.833333"/>
<path d="M25.3612 25.0268C25.4072 25.0268 25.4072 25.0268 25.4532 25.0268C25.4532 25.0268 25.4532 25.0268 25.4992 25.0268H25.5452C27.2012 24.9815 28.5352 24.4378 29.5012 23.3506C31.6632 20.9496 31.2952 16.8724 31.2492 16.4647C31.1112 13.52 29.6852 12.1157 28.5352 11.4815C27.6612 10.9378 26.6492 10.666 25.4992 10.666H25.4532H25.4072C24.7632 10.666 23.5672 10.7566 22.4172 11.4362C21.2212 12.0704 19.7952 13.52 19.6572 16.4647C19.6112 16.8724 19.2432 20.9496 21.4052 23.3506C22.3712 24.4378 23.7052 24.9815 25.3612 25.0268Z" fill="#8AF2F2"/>
<path d="M21.222 25.5254C21.222 25.5254 19.1132 26.9702 16.5889 27.6061C16.5803 27.6082 16.5716 27.6093 16.5628 27.6093H16.5474C16.5359 27.6093 16.5241 27.6113 16.5132 27.615C14.0918 28.4364 14.0459 30.9642 14 32.0489C14 32.0942 14 32.1395 14 32.1848C14 32.4566 14 33.9516 14.276 34.6764C14.322 34.8123 14.414 34.9482 14.552 35.0388C14.736 35.1294 18.738 37.6664 25.5 37.6664C32.262 37.6664 36.264 35.1294 36.448 35.0388C36.586 34.9482 36.678 34.8123 36.724 34.6764C37 33.9516 37 32.4566 37 32.1848C37 32.1395 37 32.0942 37 32.0489C36.9541 30.9642 36.9082 28.4364 34.4869 27.615C34.4759 27.6113 34.4641 27.6093 34.4526 27.6093H34.4372C34.4284 27.6093 34.4197 27.6082 34.4111 27.6061C31.8868 26.9702 29.778 25.5254 29.778 25.5254" fill="#8AF2F2"/>
<path d="M23.9008 24.9271C23.9508 24.9271 23.9508 24.9271 24.0008 24.9271C24.0008 24.9271 24.0008 24.9271 24.0508 24.9271H24.1008C25.9008 24.8768 27.3508 24.2739 28.4008 23.0681C30.7508 20.4052 30.3508 15.8833 30.3008 15.4311C30.1508 12.1653 28.6008 10.6078 27.3508 9.90438C26.4008 9.30146 25.3008 9 24.0508 9H24.0008H23.9508C23.2508 9 21.9508 9.10049 20.7008 9.85413C19.4008 10.5575 17.8508 12.1653 17.7008 15.4311C17.6508 15.8833 17.2508 20.4052 19.6008 23.0681C20.6508 24.2739 22.1008 24.8768 23.9008 24.9271Z" stroke="#656565" stroke-width="0.833333" stroke-miterlimit="10"/>
<path d="M19.4008 25.4795C19.4008 25.4795 17.1008 27.0873 14.3508 27.7907H14.3008C11.6508 28.6951 11.6008 31.5087 11.5508 32.7145C11.5508 32.7647 11.5508 32.815 11.5508 32.8652C11.5508 33.1667 11.5508 34.8247 11.8508 35.6286C11.9008 35.7793 12.0008 35.9301 12.1508 36.0306C12.3508 36.131 16.7008 38.9447 24.0508 38.9447C31.4008 38.9447 35.7508 36.131 35.9508 36.0306C36.1008 35.9301 36.2008 35.7793 36.2508 35.6286C36.5508 34.8247 36.5508 33.1667 36.5508 32.8652C36.5508 32.815 36.5508 32.7647 36.5508 32.7145C36.5008 31.5087 36.4508 28.6951 33.8008 27.7907H33.7508C31.0008 27.0873 28.7008 25.4795 28.7008 25.4795" stroke="#656565" stroke-width="0.833333" stroke-miterlimit="10" stroke-linecap="round"/>
</svg>
