<svg width="1032" height="872" viewBox="0 0 1032 872" fill="none" xmlns="http://www.w3.org/2000/svg">
<g clip-path="url(#clip0)">
<path d="M885.152 859.543C902.659 859.543 916.852 845.357 916.852 827.858C916.852 810.36 902.659 796.174 885.152 796.174C867.645 796.174 853.452 810.36 853.452 827.858C853.452 845.357 867.645 859.543 885.152 859.543Z" fill="#92C8ED"/>
<path d="M924.438 170.067H806.309V323.615H924.438V170.067Z" fill="#FAFBFD"/>
<path d="M924.438 326.594H806.309L803.058 323.344V170.067L806.309 166.817H924.438L927.689 170.067V323.615L924.438 326.594ZM809.561 320.365H921.187V173.046H809.561V320.365Z" fill="#1D1D1B"/>
<path d="M852.91 157.61V154.902C852.91 147.591 858.871 141.633 866.187 141.633C873.502 141.633 879.462 147.591 879.462 154.902V157.61H898.157C905.472 157.61 911.433 163.568 911.433 170.88V178.192H820.94V170.88C820.94 163.568 826.9 157.61 834.216 157.61H852.91Z" fill="#F8C452"/>
<path d="M911.704 181.441H820.94L817.689 178.192V170.88C817.689 161.672 825.004 154.36 834.216 154.36H849.659C849.93 145.424 857.246 138.383 866.187 138.383C875.128 138.383 882.443 145.424 882.714 154.36H898.157C907.369 154.36 914.684 161.672 914.684 170.88V178.192L911.704 181.441ZM824.191 174.942H908.453V170.609C908.453 164.922 903.847 160.589 898.428 160.589H879.733L876.482 157.339V154.631C876.482 148.944 871.876 144.611 866.457 144.611C860.768 144.611 856.433 149.215 856.433 154.631V157.339L853.182 160.589H834.487C828.797 160.589 824.462 165.193 824.462 170.609V174.942H824.191Z" fill="#1D1D1B"/>
<path d="M866.457 158.694C869.001 158.694 871.063 156.632 871.063 154.09C871.063 151.547 869.001 149.486 866.457 149.486C863.913 149.486 861.851 151.547 861.851 154.09C861.851 156.632 863.913 158.694 866.457 158.694Z" fill="#1D1D1B"/>
<path d="M836.113 206.627H824.733V218.001H836.113V206.627Z" fill="#EE788A"/>
<path d="M836.112 221.25H824.732L821.481 218V206.626L824.732 203.377H836.112L839.363 206.626V218L836.112 221.25ZM827.984 215.021H833.131V209.876H827.984V215.021Z" fill="#1D1D1B"/>
<path d="M906.285 204.46H851.014V210.959H906.285V204.46Z" fill="#1D1D1B"/>
<path d="M906.285 213.938H851.014V220.438H906.285V213.938Z" fill="#1D1D1B"/>
<path d="M835.3 254.56H823.649L820.398 251.31V239.936L823.649 236.687H835.029L838.28 239.936V251.31L835.3 254.56ZM826.901 248.331H832.048V243.186H826.901V248.331Z" fill="#1D1D1B"/>
<path d="M907.369 237.77H852.097V244.269H907.369V237.77Z" fill="#1D1D1B"/>
<path d="M907.369 247.248H852.097V253.748H907.369V247.248Z" fill="#1D1D1B"/>
<path d="M835.3 287.868H823.649L820.398 284.619V273.245L823.649 269.995H835.029L838.28 273.245V284.619L835.3 287.868ZM826.901 281.64H832.048V276.495H826.901V281.64Z" fill="#1D1D1B"/>
<path d="M907.369 271.078H852.097V277.578H907.369V271.078Z" fill="#1D1D1B"/>
<path d="M907.369 280.556H852.097V287.056H907.369V280.556Z" fill="#1D1D1B"/>
<path d="M825.004 530.782H818.501V559.488H825.004V530.782Z" fill="#1D1D1B"/>
<path d="M835.841 542.156H807.122V548.656H835.841V542.156Z" fill="#1D1D1B"/>
<path d="M30.0738 487.183H23.5713V515.888H30.0738V487.183Z" fill="#1D1D1B"/>
<path d="M41.1825 498.286H12.4631V504.786H41.1825V498.286Z" fill="#1D1D1B"/>
<path d="M748.328 322.261H741.826V350.967H748.328V322.261Z" fill="#1D1D1B"/>
<path d="M759.437 333.635H730.718V340.134H759.437V333.635Z" fill="#1D1D1B"/>
<path d="M950.448 168.713H943.945V197.419H950.448V168.713Z" fill="#1D1D1B"/>
<path d="M961.557 179.817H932.837V186.316H961.557V179.817Z" fill="#1D1D1B"/>
<path d="M532.121 89.3662H525.619V144.069H532.121V89.3662Z" fill="#1D1D1B"/>
<path d="M552.171 140.82H505.027V147.32H552.171V140.82Z" fill="#1D1D1B"/>
<path d="M492.835 52.5365C473.599 52.5365 457.613 36.8297 457.613 17.3315V11.103L460.865 7.85327H492.835V14.3527H464.116V17.3315C464.116 33.0384 477.121 46.0371 492.835 46.0371V52.5365Z" fill="#1D1D1B"/>
<path d="M564.634 52.5364V46.0371C580.348 46.0371 593.353 33.0383 593.353 17.3315V14.3526H564.634V8.12402H596.604L599.855 11.3737V17.6023C599.584 36.8296 583.87 52.5364 564.634 52.5364Z" fill="#1D1D1B"/>
<path d="M528.599 89.3668C508.82 89.3668 492.835 73.3891 492.835 53.6202V3.25H564.363V53.6202C564.633 73.1183 548.377 89.3668 528.599 89.3668Z" fill="#F8C452"/>
<path d="M534.831 92.3453H522.909C504.757 92.3453 489.855 77.4509 489.855 59.3068V3.24969L493.106 0H564.634L567.885 3.24969V59.5776C567.614 77.7217 552.983 92.3453 534.831 92.3453ZM496.087 6.49938V59.5776C496.087 74.2012 508.008 86.1168 522.638 86.1168H534.56C549.19 86.1168 561.112 74.2012 561.112 59.5776V6.49938H496.087Z" fill="#1D1D1B"/>
<path d="M554.88 15.9775H548.377V56.8695H554.88V15.9775Z" fill="#1D1D1B"/>
<path d="M932.296 721.973C932.296 705.454 919.02 692.185 902.493 692.185C885.965 692.185 872.689 705.454 872.689 721.973V731.993H932.567V721.973H932.296Z" fill="#FAFBFD"/>
<path d="M932.295 735.243H872.418L869.167 731.993V721.973C869.167 703.829 884.068 688.935 902.221 688.935C920.374 688.935 935.276 703.829 935.276 721.973V731.993L932.295 735.243ZM875.669 729.014H929.044V721.973C929.044 707.349 917.123 695.163 902.221 695.163C887.591 695.163 875.398 707.079 875.398 721.973V729.014H875.669Z" fill="#1D1D1B"/>
<path d="M875.94 707.62C873.773 711.953 872.418 716.828 872.418 721.973V731.993H932.295V721.973C932.295 716.828 930.94 711.953 928.773 707.62H875.94Z" fill="#EE788A"/>
<path d="M932.295 735.243H872.418L869.167 731.993V721.973C869.167 716.557 870.521 711.141 873.231 706.266L875.94 704.642H928.502L931.212 706.266C933.921 711.141 935.276 716.557 935.276 721.973V731.993L932.295 735.243ZM875.669 729.014H929.044V721.973C929.044 718.182 928.231 714.391 926.606 710.87H877.837C876.211 714.391 875.398 718.182 875.398 721.973V729.014H875.669Z" fill="#1D1D1B"/>
<path d="M872.418 662.124C872.418 678.644 885.694 692.184 902.221 692.184C918.748 692.184 932.024 678.914 932.024 662.124V652.104H872.418V662.124Z" fill="#FAFBFD"/>
<path d="M902.492 695.163C884.34 695.163 869.438 680.268 869.438 662.124V652.104L872.689 648.854H932.566L935.818 652.104V662.124C935.547 680.268 920.645 695.163 902.492 695.163ZM875.67 655.083V662.124C875.67 676.748 887.591 688.934 902.492 688.934C917.123 688.934 929.315 677.018 929.315 662.124V655.083H875.67Z" fill="#1D1D1B"/>
<path d="M879.734 681.622C885.152 687.851 893.281 691.913 902.492 691.913C911.433 691.913 919.562 687.851 925.251 681.622H879.734Z" fill="#EE788A"/>
<path d="M902.492 695.163C893.009 695.163 883.798 691.101 877.566 683.789L880.004 678.644H925.251L927.689 683.789C921.187 690.83 911.975 695.163 902.492 695.163ZM888.404 684.601C892.468 687.039 897.344 688.663 902.492 688.663C907.369 688.663 912.246 687.309 916.581 684.601H888.404Z" fill="#1D1D1B"/>
<path d="M928.502 723.056H921.999C921.999 715.202 917.664 707.62 910.891 703.829L914.142 698.412C923.083 703.558 928.502 713.036 928.502 723.056Z" fill="#1D1D1B"/>
<path d="M916.581 682.164L912.517 677.289C917.394 672.956 920.374 666.998 920.374 660.499H926.876C926.605 668.623 923.083 676.477 916.581 682.164Z" fill="#1D1D1B"/>
<path d="M932.024 652.105H872.418C869.709 652.105 867.541 649.938 867.541 647.23C867.541 644.522 869.709 642.355 872.418 642.355H932.024C934.734 642.355 936.901 644.522 936.901 647.23C936.901 649.938 934.734 652.105 932.024 652.105Z" fill="#F8C452"/>
<path d="M932.024 655.083H872.418C868.083 655.083 864.29 651.563 864.29 646.959C864.29 642.626 867.812 638.835 872.418 638.835H932.024C936.359 638.835 940.152 642.355 940.152 646.959C940.152 651.563 936.63 655.083 932.024 655.083ZM872.689 645.605C871.876 645.605 871.063 646.418 871.063 647.23C871.063 648.042 871.876 648.855 872.689 648.855H932.295C933.108 648.855 933.921 648.042 933.921 647.23C933.921 646.418 933.108 645.605 932.295 645.605H872.689Z" fill="#1D1D1B"/>
<path d="M932.024 741.742H872.418C869.709 741.742 867.541 739.576 867.541 736.868C867.541 734.16 869.709 731.993 872.418 731.993H932.024C934.734 731.993 936.901 734.16 936.901 736.868C936.901 739.576 934.734 741.742 932.024 741.742Z" fill="#F8C452"/>
<path d="M932.024 744.992H872.418C868.083 744.992 864.29 741.471 864.29 736.867C864.29 732.534 867.812 728.743 872.418 728.743H932.024C936.359 728.743 940.152 732.264 940.152 736.867C940.152 741.471 936.63 744.992 932.024 744.992ZM872.689 735.243C871.876 735.243 871.063 736.055 871.063 736.867C871.063 737.68 871.876 738.492 872.689 738.492H932.295C933.108 738.492 933.921 737.68 933.921 736.867C933.921 736.055 933.108 735.243 932.295 735.243H872.689Z" fill="#1D1D1B"/>
<path d="M905.743 51.1829H899.24V60.1195H905.743V51.1829Z" fill="#1D1D1B"/>
<path d="M905.743 110.49H899.24V119.426H905.743V110.49Z" fill="#1D1D1B"/>
<path d="M936.359 82.3252H927.418V88.8246H936.359V82.3252Z" fill="#1D1D1B"/>
<path d="M877.295 82.3257H868.354V88.8251H877.295V82.3257Z" fill="#1D1D1B"/>
<path d="M928.88 63.525L924.281 58.9299L917.96 65.2499L922.558 69.845L928.88 63.525Z" fill="#1D1D1B"/>
<path d="M886.844 105.401L882.245 100.806L875.924 107.126L880.522 111.721L886.844 105.401Z" fill="#1D1D1B"/>
<path d="M928.624 107.19L922.302 100.871L917.704 105.467L924.026 111.786L928.624 107.19Z" fill="#1D1D1B"/>
<path d="M886.943 65.3458L880.62 59.0276L876.023 63.6239L882.346 69.9421L886.943 65.3458Z" fill="#1D1D1B"/>
<path d="M265.518 21.6641H259.016V30.6007H265.518V21.6641Z" fill="#1D1D1B"/>
<path d="M265.518 80.9705H259.016V89.9071H265.518V80.9705Z" fill="#1D1D1B"/>
<path d="M296.134 52.5359H287.193V59.0353H296.134V52.5359Z" fill="#1D1D1B"/>
<path d="M237.07 52.5361H228.129V59.0355H237.07V52.5361Z" fill="#1D1D1B"/>
<path d="M288.606 33.9576L284.008 29.3625L277.686 35.6825L282.285 40.2776L288.606 33.9576Z" fill="#1D1D1B"/>
<path d="M246.771 76.0215L242.173 71.4258L235.851 77.7449L240.449 82.3406L246.771 76.0215Z" fill="#1D1D1B"/>
<path d="M288.348 77.627L282.026 71.3079L277.428 75.9036L283.75 82.2227L288.348 77.627Z" fill="#1D1D1B"/>
<path d="M246.635 35.8083L240.313 29.4883L235.715 34.0833L242.036 40.4033L246.635 35.8083Z" fill="#1D1D1B"/>
<path d="M153.35 474.455C153.35 480.413 148.473 485.558 142.241 485.558C136.281 485.558 131.133 480.683 131.133 474.455H153.35Z" fill="#F8C452"/>
<path d="M142.241 488.536C134.384 488.536 128.153 482.037 128.153 474.455L131.404 471.205H153.35L156.601 474.455C156.33 482.308 150.099 488.536 142.241 488.536ZM135.197 477.704C136.552 480.412 139.261 482.308 142.241 482.308C145.493 482.308 148.202 480.412 149.286 477.704H135.197Z" fill="#1D1D1B"/>
<path d="M142.242 368.299C121.109 368.299 104.04 385.359 104.04 406.482C104.04 415.69 107.291 424.356 112.98 430.855C124.089 441.417 124.089 455.769 124.089 455.769H160.936C160.936 455.769 160.936 441.417 172.045 430.855C177.464 424.085 180.986 415.69 180.986 406.482C180.444 385.359 163.375 368.299 142.242 368.299Z" fill="#F8C452"/>
<path d="M160.666 459.019H123.818L120.567 455.769C120.567 455.769 120.296 442.77 110.542 433.292L110.271 433.021C104.04 425.709 100.788 416.231 100.788 406.482C100.788 383.734 119.483 365.049 142.242 365.049C165.001 365.049 183.695 383.734 183.695 406.482C183.695 416.231 180.173 425.439 174.212 433.021L173.941 433.292C163.917 442.77 163.917 455.769 163.917 455.769L160.666 459.019ZM126.798 452.79H157.956C158.498 447.645 160.937 437.354 169.607 428.959C174.754 422.731 177.464 414.877 177.464 406.753C177.464 387.526 161.749 371.548 142.242 371.548C123.005 371.548 107.02 387.255 107.02 406.753C107.02 414.877 109.729 422.731 114.877 428.959C123.818 437.354 125.986 447.645 126.798 452.79Z" fill="#1D1D1B"/>
<path d="M174.212 406.482H167.981C167.981 394.025 159.04 383.464 146.848 381.297L147.932 375.069C163.104 377.777 174.212 391.046 174.212 406.482Z" fill="#1D1D1B"/>
<path d="M117.044 406.483H110.542C110.542 397.546 114.335 389.151 120.838 383.194L125.173 387.797C120.025 392.672 117.044 399.442 117.044 406.483Z" fill="#1D1D1B"/>
<path d="M161.478 456.04H122.734V465.248H161.478V456.04Z" fill="#FAFBFD"/>
<path d="M161.749 468.226H122.734L119.483 464.977V455.769L122.734 452.52H161.478L164.73 455.769V464.977L161.749 468.226ZM125.986 461.998H158.498V459.019H125.986V461.998Z" fill="#1D1D1B"/>
<path d="M157.414 465.248H127.069V474.456H157.414V465.248Z" fill="#FAFBFD"/>
<path d="M157.414 477.705H127.069L123.818 474.455V465.248L127.069 461.998H157.414L160.666 465.248V474.455L157.414 477.705ZM130.321 471.206H154.434V468.227H130.321V471.206Z" fill="#1D1D1B"/>
<path d="M150.099 459.019H134.385L131.134 456.31L123.276 412.44L128.424 409.461C128.424 409.461 131.405 411.898 134.656 411.356C136.552 411.086 137.907 410.002 139.533 407.836H144.681C146.035 410.002 147.661 411.086 149.557 411.356C152.809 411.898 155.789 409.461 155.789 409.461L160.937 412.44L153.08 456.31L150.099 459.019ZM137.094 452.79H147.39L153.621 417.585C152.267 417.856 150.641 418.127 148.745 417.856C146.306 417.585 144.139 416.502 142.242 414.606C140.346 416.502 138.178 417.585 135.74 417.856C134.114 418.127 132.488 417.856 130.863 417.585L137.094 452.79Z" fill="#1D1D1B"/>
<path d="M145.764 323.615H139.261V349.883H145.764V323.615Z" fill="#1D1D1B"/>
<path d="M235.715 419.752H211.06V426.251H235.715V419.752Z" fill="#1D1D1B"/>
<path d="M73.9657 419.752H49.3104V426.251H73.9657V419.752Z" fill="#1D1D1B"/>
<path d="M210.677 354.982L205.93 350.54L188.523 369.12L193.269 373.562L210.677 354.982Z" fill="#1D1D1B"/>
<path d="M96.3408 369.16L78.9333 350.577L74.1865 355.019L91.594 373.602L96.3408 369.16Z" fill="#1D1D1B"/>
<path d="M212.957 715.744C212.957 719.535 209.706 722.785 205.913 722.785C202.12 722.785 198.868 719.535 198.868 715.744C198.868 711.953 202.12 708.703 205.913 708.703C209.706 708.703 212.957 711.682 212.957 715.744ZM244.386 721.16V710.328H231.923C231.11 707.078 230.026 703.828 228.13 701.12L236.8 692.455L229.213 684.872L220.543 693.538C217.834 691.642 214.583 690.559 211.332 689.746V677.019H200.494V689.476C197.243 690.288 193.992 691.371 191.282 693.267L182.612 684.601L175.026 692.184L183.696 700.85C181.799 703.558 180.716 706.807 179.903 710.057H167.44V720.889H179.903C180.716 724.139 181.799 727.389 183.696 730.097L175.026 738.763L182.612 746.345L191.282 737.679C193.992 739.575 197.243 740.658 200.494 741.471V753.928H211.332V741.471C214.583 740.658 217.834 739.575 220.543 737.679L229.213 746.345L236.8 738.763L228.13 730.097C230.026 727.389 231.11 724.139 231.923 720.889H244.386V721.16Z" fill="#65B1E2"/>
<path d="M211.332 757.177H200.494L197.243 753.928V743.908C195.346 743.366 193.45 742.554 191.824 741.741L184.78 748.782H180.174L172.588 741.2V736.596L179.632 729.555C178.819 727.93 178.006 726.034 177.464 724.139H167.44L164.188 720.889V710.057L167.44 706.807H177.464C178.006 704.911 178.819 703.016 179.632 701.391L172.588 694.35V689.746L180.174 682.164H184.78L191.824 689.205C193.45 688.392 195.346 687.58 197.243 687.038V677.018L200.494 673.769H211.332L214.583 677.018V687.038C216.479 687.58 218.376 688.392 220.002 689.205L227.046 682.164H231.652L239.238 689.746V694.35L232.194 701.391C233.007 703.016 233.819 704.911 234.361 706.807H244.386L247.637 710.057V720.889L244.386 724.139H234.361C233.819 726.034 233.007 727.93 232.194 729.555L239.238 736.596V741.2L231.652 748.782H227.046L220.002 741.741C218.376 742.554 216.479 743.366 214.583 743.908V753.928L211.332 757.177ZM203.745 750.949H208.351V741.741L210.79 738.492C213.77 737.95 216.479 736.867 218.918 735.242L222.982 735.783L229.484 742.283L232.736 739.033L226.233 732.534L225.691 728.472C227.317 726.034 228.401 723.326 228.942 720.347L232.194 717.91H241.135V713.306H231.923L228.672 710.869C228.13 707.89 227.046 705.182 225.42 702.745L225.962 698.683L232.465 692.183L229.213 688.934L222.711 695.433L218.647 695.975C216.208 694.35 213.499 693.267 210.519 692.725L208.08 689.475V680.268H203.474V689.475L201.036 692.725C198.056 693.267 195.346 694.35 192.908 695.975L188.844 695.433L182.341 688.934L179.09 692.183L185.593 698.683L186.134 702.745C184.509 705.182 183.425 707.89 182.883 710.869L179.632 713.306H170.691V717.91H179.903L183.154 720.347C183.696 723.326 184.78 726.034 186.405 728.472L185.863 732.534L179.361 739.033L182.612 742.283L189.115 735.783L193.179 735.242C195.617 736.867 198.327 737.95 201.307 738.492L203.745 741.741V750.949ZM205.913 725.764C200.223 725.764 195.888 721.16 195.888 715.744C195.888 710.328 200.494 705.724 205.913 705.724C211.332 705.724 215.937 710.328 215.937 715.744C215.937 721.16 211.602 725.764 205.913 725.764ZM205.913 711.952C203.745 711.952 202.12 713.577 202.12 715.744C202.12 717.91 203.745 719.535 205.913 719.535C208.08 719.535 209.706 717.91 209.706 715.744C209.706 713.577 208.08 711.952 205.913 711.952Z" fill="#1D1D1B"/>
<path d="M128.153 570.592C128.153 574.383 125.173 577.633 121.109 577.633C117.316 577.633 114.065 574.654 114.065 570.592C114.065 566.8 117.045 563.551 121.109 563.551C125.173 563.551 128.153 566.8 128.153 570.592ZM159.853 575.737V564.905H147.39C146.577 561.655 145.223 558.405 143.597 555.697L152.267 546.761L144.41 539.178L135.74 548.115C133.03 546.219 129.779 545.136 126.528 544.323V531.866H115.69V544.323C112.439 545.136 109.188 546.49 106.478 548.115L97.5375 539.449L89.9513 547.302L98.8922 555.968C96.9957 558.676 95.9119 561.926 95.0991 565.176H82.636V576.008H95.0991C95.9119 579.258 97.2666 582.507 98.8922 585.215L90.2222 594.152L98.0794 601.735L106.749 592.798C109.459 594.694 112.71 595.777 115.961 596.589V609.046H126.799V596.589C130.05 595.777 133.301 594.423 136.011 592.798L144.952 601.464L152.538 593.61L143.597 584.944C145.493 582.236 146.577 578.987 147.39 575.737H159.853Z" fill="#FAFBFD"/>
<path d="M116.232 612.296L112.981 609.046V599.026C111.084 598.484 109.188 597.672 107.562 596.86L100.518 603.901H95.9119L88.0548 596.318V591.714L95.0991 584.673C94.0154 583.048 93.4735 581.153 92.6607 579.257H82.636L79.3848 576.007V565.175L82.636 561.926H92.6607C93.2026 560.03 94.0154 558.134 94.8282 556.509L87.7838 549.468V544.865L95.3701 537.011H99.976L107.02 544.052C108.646 542.969 110.543 542.427 112.439 541.886V531.866L115.69 528.616H126.528L129.779 531.866V541.886C131.676 542.427 133.572 543.24 135.198 544.052L142.242 537.011H146.848L154.705 544.594V549.198L147.661 556.239C148.745 557.863 149.287 559.759 150.099 561.655H160.124L163.375 564.904V575.737L160.124 578.986H150.099C149.558 580.882 148.745 582.778 147.932 584.403L154.976 591.443V596.047L147.39 603.901H142.784L135.74 596.86C134.114 597.943 132.218 598.484 130.321 599.026V609.046L127.07 612.296H116.232ZM108.646 590.36C111.084 591.985 113.794 593.068 116.774 593.61L119.213 596.589V605.796H123.818V596.589L126.257 593.339C129.237 592.798 131.947 591.714 134.385 589.819L138.178 590.36L144.681 596.86L147.932 593.61L141.429 587.111L140.888 583.048C142.513 580.611 143.597 577.903 144.139 574.924L147.119 572.487H156.331V567.883H147.119L143.868 565.446C143.326 562.467 142.242 559.759 140.346 557.322L140.617 553.26L147.119 546.76L143.868 543.511L137.365 550.01L133.301 550.552C130.863 548.927 128.153 547.844 125.173 547.302L122.735 544.323V535.116H118.129V544.323L115.69 547.573C112.71 548.114 110.001 549.198 107.562 551.093L103.498 550.822L96.9957 544.323L93.7444 547.573L100.247 554.072L100.789 558.134C99.1632 560.571 98.0794 563.28 97.5376 566.258L94.5573 568.696H85.3454V573.299H94.5573L97.8085 575.737C98.3504 578.716 99.4341 581.424 101.331 583.861L101.06 587.923L94.5573 594.422L97.8085 597.672L104.311 591.173L108.646 590.36ZM121.38 580.611C115.69 580.611 111.355 576.007 111.355 570.591C111.355 564.904 115.961 560.301 121.38 560.301C124.089 560.301 126.528 561.384 128.424 563.28C130.321 565.175 131.405 567.612 131.405 570.321C131.405 576.007 127.07 580.611 121.38 580.611ZM121.38 566.8C119.213 566.8 117.587 568.425 117.587 570.591C117.587 572.758 119.483 574.383 121.38 574.383C123.548 574.383 125.173 572.758 125.173 570.591C125.173 568.425 123.277 566.8 121.38 566.8Z" fill="#1D1D1B"/>
<path d="M142.513 664.02C142.513 672.956 135.198 679.997 126.528 679.997C117.587 679.997 110.543 672.686 110.543 664.02C110.543 655.354 117.858 648.042 126.528 648.042C135.198 648.042 142.513 655.083 142.513 664.02ZM178.819 671.332V656.437H162.021C161.208 651.833 159.311 647.771 156.873 643.98L168.794 632.064L158.228 621.503L146.306 633.689C142.513 631.252 138.449 629.356 133.843 628.544V611.754H118.942V628.544C114.336 629.356 110.272 631.252 106.479 633.689L94.5574 621.774L83.9909 632.335L95.9121 644.251C93.4737 648.042 91.5771 652.104 90.7643 656.708H73.9662V671.602H90.7643C91.5771 676.206 93.4737 680.268 95.9121 684.06L83.9909 695.975L94.5574 706.536L106.479 694.621C110.272 697.058 114.336 698.954 118.942 699.766V716.556H133.843V699.766C138.449 698.954 142.513 697.058 146.306 694.621L158.228 706.536L168.794 695.975L156.873 684.06C159.311 680.268 161.208 676.206 162.021 671.602H178.819V671.332Z" fill="#F8C452"/>
<path d="M126.528 669.165C129.371 669.165 131.676 666.861 131.676 664.019C131.676 661.178 129.371 658.874 126.528 658.874C123.685 658.874 121.38 661.178 121.38 664.019C121.38 666.861 123.685 669.165 126.528 669.165Z" fill="#1D1D1B"/>
<path d="M52.2906 113.468V105.344C52.2906 96.9489 59.8769 90.1787 69.3597 90.1787H101.601V190.919H52.2906V113.468Z" fill="#B4BEBF"/>
<path d="M101.601 194.169H52.2908L49.0396 190.92V105.345C49.0396 95.3247 58.2514 87.2004 69.3598 87.2004H101.601L104.853 90.4501V191.19L101.601 194.169ZM55.542 187.941H98.3501V93.6998H69.3598C61.7736 93.6998 55.542 99.116 55.542 105.615V187.941Z" fill="#1D1D1B"/>
<path d="M102.414 222.062C92.9314 222.062 85.3451 215.292 85.3451 206.896L85.616 105.344C85.616 96.9487 78.0298 90.1785 68.547 90.1785H175.296C184.779 90.1785 192.365 96.9487 192.365 105.344V221.791H102.414V222.062Z" fill="#FAFBFD"/>
<path d="M192.094 225.312H102.414C91.3057 225.312 82.0939 217.188 82.0939 207.168L82.3648 105.615C82.3648 99.1155 76.1332 93.6993 68.547 93.6993V87.2H175.296C186.405 87.2 195.617 95.3242 195.617 105.344V221.791L192.094 225.312ZM83.7195 93.6993C86.6998 96.949 88.5964 101.011 88.5964 105.615L88.3254 207.168C88.3254 213.667 94.557 219.083 102.143 219.083H188.843V105.344C188.843 98.8447 182.612 93.4285 175.025 93.4285H83.7195V93.6993Z" fill="#1D1D1B"/>
<path d="M167.71 222.063V160.048H135.469C125.986 160.048 118.4 166.818 118.4 175.213V183.337V207.168C118.4 215.563 110.814 222.334 101.331 222.334H167.71V222.063Z" fill="#B4BEBF"/>
<path d="M167.71 225.313H101.331V218.813C108.917 218.813 115.149 213.397 115.149 206.898V174.943C115.149 164.923 124.36 156.799 135.469 156.799H167.71L170.962 160.048V222.063L167.71 225.313ZM116.774 218.813H164.73V163.298H135.469C127.883 163.298 121.651 168.714 121.651 175.213V207.169C121.651 211.502 119.755 215.564 116.774 218.813Z" fill="#1D1D1B"/>
<path d="M134.385 160.047C143.868 160.047 151.454 166.817 151.454 175.212V279.744C151.454 288.139 159.04 294.638 168.523 294.638H258.203V174.942C258.203 166.547 250.617 159.776 241.134 159.776H134.385V160.047Z" fill="#FAFBFD"/>
<path d="M258.203 297.888H168.523C157.415 297.888 148.203 289.764 148.203 279.744V174.941C148.203 168.442 141.971 163.026 134.385 163.026V156.526H241.134C252.243 156.526 261.455 164.651 261.455 174.67V294.367L258.203 297.888ZM149.558 163.297C152.538 166.546 154.434 170.608 154.434 175.212V279.744C154.434 286.243 160.666 291.659 168.252 291.659H254.681V175.212C254.681 168.713 248.45 163.297 240.863 163.297H149.558Z" fill="#1D1D1B"/>
<path d="M291.529 271.62V279.744C291.529 288.139 283.942 294.639 274.46 294.639H167.71C177.193 294.639 184.779 287.868 184.779 279.744V271.62H291.529Z" fill="#B4BEBF"/>
<path d="M274.46 297.888H167.71V291.389C175.297 291.389 181.528 285.973 181.528 279.474V271.349L184.779 268.1H291.529L294.78 271.349V279.474C294.78 289.764 285.568 297.888 274.46 297.888ZM183.154 291.66H274.46C282.046 291.66 288.277 286.244 288.277 279.744V274.87H188.031V279.744C188.031 284.348 186.134 288.41 183.154 291.66Z" fill="#1D1D1B"/>
<path d="M229.484 210.959H172.316V217.458H229.484V210.959Z" fill="#1D1D1B"/>
<path d="M229.484 222.875H172.316V229.374H229.484V222.875Z" fill="#1D1D1B"/>
<path d="M229.484 235.062H172.316V241.561H229.484V235.062Z" fill="#1D1D1B"/>
<path d="M210.518 246.976H172.316V253.476H210.518V246.976Z" fill="#1D1D1B"/>
<path d="M194.262 198.772H172.316V205.272H194.262V198.772Z" fill="#1D1D1B"/>
<path d="M359.805 200.939V286.514C359.805 306.824 376.061 323.073 396.381 323.073H452.736C473.057 323.073 489.313 306.824 489.313 286.514V200.939L471.431 175.483L437.835 161.942L364.14 182.524L359.805 200.939Z" fill="#65B1E2"/>
<path d="M452.736 326.051H396.381C374.435 326.051 356.554 308.178 356.554 286.243V200.938V200.126L360.889 181.711L363.056 179.274L436.751 158.692H438.919L472.515 172.233L473.869 173.316L491.751 198.772L492.293 200.668V286.243C492.564 308.178 474.682 326.051 452.736 326.051ZM363.056 201.209V286.243C363.056 304.658 377.958 319.552 396.381 319.552H452.736C471.16 319.552 486.062 304.658 486.062 286.243V201.751L469.264 177.92L437.564 165.192L366.849 184.961L363.056 201.209Z" fill="#1D1D1B"/>
<path d="M498.254 350.695V381.838C495.815 383.192 493.106 384.546 490.396 385.9C484.436 388.879 478.475 391.316 472.244 393.212C463.032 396.191 453.278 398.628 443.524 399.711C443.253 399.711 442.711 399.711 442.44 399.711C436.48 400.524 430.519 400.794 424.559 400.794C418.598 400.794 412.637 400.524 406.677 399.711C406.406 399.711 405.864 399.711 405.593 399.711C395.568 398.357 386.086 396.191 376.874 393.212C367.662 390.233 358.992 386.171 350.864 381.567V350.424C350.864 334.717 360.346 320.906 374.164 315.219C378.77 313.324 383.918 312.24 389.337 312.24H460.051C465.47 312.24 470.618 313.324 475.224 315.219C488.771 321.177 498.254 334.717 498.254 350.695Z" fill="#F8C452"/>
<path d="M424.559 404.315C418.327 404.315 412.366 404.044 406.406 403.232C406.135 403.232 405.864 403.232 405.322 403.232C395.297 401.878 385.273 399.711 375.79 396.462C366.578 393.483 357.637 389.421 349.238 384.546L347.612 381.838V350.695C347.612 334.176 357.637 319.011 372.81 312.511C377.957 310.345 383.647 309.262 389.066 309.262H459.78C465.47 309.262 470.889 310.345 476.037 312.511C491.48 319.011 501.234 334.176 501.234 350.695V381.838L499.066 384.005L499.608 384.817C496.899 386.442 494.189 387.796 491.48 389.15C485.52 392.129 479.288 394.566 473.056 396.733C463.574 399.982 453.549 402.149 443.795 403.503C443.524 403.503 442.982 403.503 442.44 403.503C437.022 403.774 430.79 404.315 424.559 404.315ZM354.115 379.942C361.701 384.005 369.829 387.525 377.957 390.233C387.169 393.212 396.381 395.379 406.135 396.733C406.406 396.733 406.677 396.733 406.948 396.733C418.869 398.087 430.79 398.087 442.17 396.733C442.711 396.733 442.982 396.733 443.253 396.733C452.736 395.649 462.219 393.483 471.431 390.233C477.391 388.338 483.352 385.9 489.313 382.921C491.209 381.838 493.377 380.755 495.273 379.672V350.424C495.273 336.342 486.874 323.615 473.869 317.928C469.534 316.032 464.928 315.219 460.051 315.219H389.337C384.46 315.219 379.854 316.303 375.519 317.928C362.514 323.615 354.115 336.342 354.115 350.424V379.942Z" fill="#1D1D1B"/>
<path d="M443.524 278.119H405.593V321.177C405.593 331.739 413.992 340.134 424.558 340.134C435.125 340.134 443.524 331.739 443.524 321.177V278.119Z" fill="#FAFBFD"/>
<path d="M424.559 343.112C412.366 343.112 402.342 333.092 402.342 320.906V278.119L405.593 274.869H443.524L446.775 278.119V320.906C446.775 333.363 436.751 343.112 424.559 343.112ZM408.844 281.368V321.177C408.844 329.843 415.889 336.884 424.559 336.884C433.229 336.884 440.273 329.843 440.273 321.177V281.368H408.844Z" fill="#1D1D1B"/>
<path d="M372.268 168.442V249.414C372.268 278.39 395.839 301.95 424.83 301.95C453.82 301.95 477.391 278.39 477.391 249.414V168.442H372.268Z" fill="#FAFBFD"/>
<path d="M424.559 304.929C393.943 304.929 369.016 280.014 369.016 249.413V168.442L372.268 165.192H477.12L480.372 168.442V249.413C480.372 280.014 455.174 304.929 424.559 304.929ZM375.248 171.692V249.413C375.248 276.494 397.465 298.7 424.559 298.7C451.652 298.7 473.869 276.494 473.869 249.413V171.692H375.248Z" fill="#1D1D1B"/>
<path d="M372.267 250.226C363.327 250.226 356.282 243.185 356.282 234.248C356.282 225.311 363.327 218.27 372.267 218.27V250.226Z" fill="#FAFBFD"/>
<path d="M372.268 253.204C361.701 253.204 353.031 244.539 353.031 233.977C353.031 223.416 361.701 214.75 372.268 214.75L375.519 217.999V249.955L372.268 253.204ZM369.016 221.791C363.598 223.145 359.533 228.29 359.533 234.248C359.533 240.206 363.598 245.08 369.016 246.705V221.791Z" fill="#1D1D1B"/>
<path d="M477.12 250.226C486.061 250.226 493.106 243.185 493.106 234.248C493.106 225.311 486.061 218.27 477.12 218.27V250.226Z" fill="#FAFBFD"/>
<path d="M477.12 253.204L473.869 249.954V218.27L477.12 215.02C487.687 215.02 496.357 223.686 496.357 234.248C496.086 244.809 487.687 253.204 477.12 253.204ZM480.371 221.79V246.434C485.79 245.08 489.854 239.935 489.854 233.977C489.854 228.019 485.79 223.415 480.371 221.79Z" fill="#1D1D1B"/>
<path d="M398.277 222.604C400.671 222.604 402.612 220.664 402.612 218.271C402.612 215.878 400.671 213.938 398.277 213.938C395.883 213.938 393.942 215.878 393.942 218.271C393.942 220.664 395.883 222.604 398.277 222.604Z" fill="#1D1D1B"/>
<path d="M452.465 222.603C454.859 222.603 456.8 220.663 456.8 218.27C456.8 215.877 454.859 213.938 452.465 213.938C450.071 213.938 448.13 215.877 448.13 218.27C448.13 220.663 450.071 222.603 452.465 222.603Z" fill="#1D1D1B"/>
<path d="M489.313 200.939C489.313 165.192 460.322 136.216 424.559 136.216C388.795 136.216 359.805 165.192 359.805 200.939L369.559 205.272H386.899C410.47 205.272 431.874 193.898 440.273 176.566L443.524 169.796V205.001C457.613 205.001 473.057 198.772 476.308 188.482L477.121 189.023L489.313 200.939Z" fill="#65B1E2"/>
<path d="M443.795 208.251L440.544 205.001V182.524C430.249 198.231 409.657 208.251 386.899 208.251H369.559L368.204 207.98L358.45 203.647L356.554 200.668C356.554 163.297 386.899 132.695 424.559 132.695C461.948 132.695 492.564 163.026 492.564 200.668L487.145 202.834L477.933 193.627C471.702 203.376 457.071 208.251 443.795 208.251ZM370.371 201.751H386.899C409.115 201.751 429.436 190.919 437.564 174.941L440.815 168.171L446.776 169.525V201.48C458.426 200.668 470.889 195.523 473.328 187.398L477.933 185.503L479.288 186.586L485.249 192.544C481.185 162.484 455.446 139.195 424.288 139.195C390.963 139.195 363.869 165.734 362.785 198.502L370.371 201.751Z" fill="#1D1D1B"/>
<path d="M498.254 350.695H350.864V376.693H498.254V350.695Z" fill="#EE788A"/>
<path d="M498.254 379.942H350.864L347.612 376.693V350.695L350.864 347.445H498.254L501.505 350.695V376.693L498.254 379.942ZM354.115 373.443H495.273V353.674H354.115V373.443Z" fill="#1D1D1B"/>
<path d="M398.277 238.311C386.356 238.311 376.873 228.561 376.873 216.917C376.873 205.001 386.627 195.523 398.277 195.523C409.927 195.523 419.681 205.272 419.681 216.917C419.681 228.832 409.927 238.311 398.277 238.311ZM398.277 201.752C389.878 201.752 383.105 208.522 383.105 216.917C383.105 225.312 389.878 232.082 398.277 232.082C406.676 232.082 413.45 225.312 413.45 216.917C413.179 208.522 406.405 201.752 398.277 201.752Z" fill="#1D1D1B"/>
<path d="M451.381 238.31C439.46 238.31 429.977 228.561 429.977 216.916C429.977 205.001 439.731 195.523 451.381 195.523C463.302 195.523 472.785 205.272 472.785 216.916C472.785 228.832 463.031 238.31 451.381 238.31ZM451.381 201.751C442.982 201.751 436.208 208.521 436.208 216.916C436.208 225.312 442.982 232.082 451.381 232.082C459.78 232.082 466.553 225.312 466.553 216.916C466.282 208.521 459.509 201.751 451.381 201.751Z" fill="#1D1D1B"/>
<path d="M477.12 212.312H469.534V218.812H477.12V212.312Z" fill="#1D1D1B"/>
<path d="M432.957 212.312H416.43V218.812H432.957V212.312Z" fill="#1D1D1B"/>
<path d="M380.125 212.312H372.267V218.812H380.125V212.312Z" fill="#1D1D1B"/>
<path d="M433.228 269.725C433.228 274.329 429.435 278.12 424.829 278.12C420.223 278.12 416.43 274.329 416.43 269.725H433.228Z" fill="#EE788A"/>
<path d="M424.829 281.369C418.327 281.369 413.179 276.224 413.179 269.725L416.43 266.475H433.228L436.48 269.725C436.48 276.224 431.061 281.369 424.829 281.369ZM420.765 272.974C421.849 274.328 423.204 274.87 424.829 274.87C426.455 274.87 428.081 274.057 428.893 272.974H420.765Z" fill="#1D1D1B"/>
<path d="M427.81 239.664H421.307V260.516H427.81V239.664Z" fill="#1D1D1B"/>
<path d="M393.942 619.336V650.479C391.504 651.833 388.795 653.187 386.085 654.541C380.125 657.52 374.164 659.957 367.932 661.853C358.721 664.832 348.967 667.269 339.213 668.352C338.942 668.352 338.4 668.352 338.129 668.352C332.169 669.165 326.208 669.435 320.247 669.435C314.287 669.435 308.326 669.165 302.366 668.352C302.095 668.352 301.553 668.352 301.282 668.352C291.257 666.998 281.774 664.832 272.562 661.853C263.351 658.874 254.681 654.812 246.552 650.208V619.065C246.552 597.942 263.622 580.611 285.026 580.611H355.74C376.873 581.152 393.942 598.213 393.942 619.336Z" fill="#65B1E2"/>
<path d="M320.248 672.956C314.016 672.956 308.056 672.686 302.095 671.873C301.824 671.873 301.553 671.873 301.011 671.873C290.987 670.519 281.233 668.353 271.75 665.103C262.538 662.124 253.597 658.062 245.198 653.187L243.573 650.479V619.336C243.573 596.318 262.267 577.632 285.297 577.632H356.011C379.041 577.632 397.736 596.318 397.736 619.336V650.479L395.568 652.646L396.11 653.458C393.401 655.083 390.691 656.437 387.982 657.791C382.021 660.77 375.79 663.207 369.558 665.374C360.076 668.623 350.051 670.79 340.297 672.144C340.026 672.144 339.484 672.144 338.942 672.144C332.711 672.685 326.479 672.956 320.248 672.956ZM249.804 648.584C257.39 652.646 265.518 656.166 273.647 658.874C282.858 661.853 292.07 664.02 301.824 665.374C302.095 665.374 302.366 665.374 302.637 665.374C314.558 666.728 326.479 666.728 337.859 665.374C338.401 665.374 338.671 665.374 338.942 665.374C348.425 664.29 357.908 662.124 367.12 658.874C373.081 656.979 379.041 654.541 385.002 651.563C386.898 650.479 389.066 649.396 390.962 648.313V619.066C390.962 599.567 375.248 583.861 355.741 583.861H285.026C265.518 583.861 249.804 599.567 249.804 619.066V648.584Z" fill="#1D1D1B"/>
<path d="M320.248 574.111L286.11 580.882L292.612 633.96L320.248 610.67L348.154 633.96L354.386 580.882L320.248 574.111Z" fill="#C0D361"/>
<path d="M345.987 636.397L320.248 614.732L294.509 636.397L289.361 634.23L282.858 581.152L285.297 577.632L319.435 570.861H320.79L354.928 577.632L357.366 581.152L350.864 634.23L345.987 636.397ZM318.351 608.233H322.415L345.716 627.731L351.135 583.318L320.519 577.09L289.903 583.318L295.322 627.731L318.351 608.233Z" fill="#1D1D1B"/>
<path d="M267.686 454.956H259.829V496.39H267.686V454.956Z" fill="#F8C452"/>
<path d="M267.957 499.639H260.1L256.849 496.39V454.956L260.1 451.706H267.957L271.208 454.956V496.39L267.957 499.639ZM263.08 493.411H264.706V458.476H263.08V493.411Z" fill="#1D1D1B"/>
<path d="M380.667 454.956H372.809V496.39H380.667V454.956Z" fill="#F8C452"/>
<path d="M380.667 499.639H372.81L369.558 496.39V454.956L372.81 451.706H380.667L383.918 454.956V496.39L380.667 499.639ZM375.79 493.411H377.415V458.476H375.79V493.411Z" fill="#1D1D1B"/>
<path d="M339.213 548.114H301.282V590.902C301.282 601.463 309.681 609.858 320.247 609.858C330.814 609.858 339.213 601.463 339.213 590.902V548.114Z" fill="#FAFBFD"/>
<path d="M320.247 613.108C308.055 613.108 298.031 603.088 298.031 590.902V548.114L301.282 544.864H339.213L342.464 548.114V590.902C342.464 603.088 332.44 613.108 320.247 613.108ZM304.533 551.093V590.902C304.533 599.567 311.577 606.608 320.247 606.608C328.917 606.608 335.962 599.567 335.962 590.902V551.093H304.533Z" fill="#1D1D1B"/>
<path d="M267.957 518.867C259.016 518.867 251.972 511.826 251.972 502.889C251.972 493.953 259.016 486.912 267.957 486.912V518.867Z" fill="#FAFBFD"/>
<path d="M267.957 522.117C257.391 522.117 248.721 513.451 248.721 502.889C248.721 492.328 257.391 483.662 267.957 483.662L271.208 486.912V518.867L267.957 522.117ZM264.706 490.703C259.287 492.057 255.223 497.202 255.223 503.16C255.223 509.118 259.287 513.992 264.706 515.617V490.703Z" fill="#1D1D1B"/>
<path d="M372.81 518.867C381.751 518.867 388.795 511.826 388.795 502.889C388.795 493.953 381.751 486.912 372.81 486.912V518.867Z" fill="#FAFBFD"/>
<path d="M372.81 522.117L369.558 518.867V486.912L372.81 483.662C383.376 483.662 392.046 492.328 392.046 502.889C391.775 513.722 383.376 522.117 372.81 522.117ZM375.79 490.703V515.347C381.209 513.992 385.273 508.847 385.273 502.889C385.544 497.202 381.48 492.057 375.79 490.703Z" fill="#1D1D1B"/>
<path d="M320.248 570.591C291.258 570.591 267.686 547.03 267.686 518.054V431.937H372.539V518.054C372.81 547.301 349.238 570.591 320.248 570.591Z" fill="#FAFBFD"/>
<path d="M320.248 573.841C289.632 573.841 264.706 548.927 264.706 518.325V432.209L267.957 428.959H372.81L376.061 432.209V518.325C375.79 548.927 350.864 573.841 320.248 573.841ZM270.937 435.458V518.325C270.937 545.406 293.154 567.612 320.248 567.612C347.342 567.612 369.559 545.406 369.559 518.325V435.458H270.937Z" fill="#1D1D1B"/>
<path d="M292.07 486.912C294.465 486.912 296.405 484.972 296.405 482.579C296.405 480.186 294.465 478.247 292.07 478.247C289.676 478.247 287.735 480.186 287.735 482.579C287.735 484.972 289.676 486.912 292.07 486.912Z" fill="#1D1D1B"/>
<path d="M348.425 486.912C350.82 486.912 352.76 484.972 352.76 482.579C352.76 480.186 350.82 478.246 348.425 478.246C346.031 478.246 344.09 480.186 344.09 482.579C344.09 484.972 346.031 486.912 348.425 486.912Z" fill="#1D1D1B"/>
<path d="M320.248 582.507C291.257 582.507 267.686 558.947 267.686 529.97C267.686 521.034 275.001 513.722 283.942 513.722H356.011C364.952 513.722 372.268 521.034 372.268 529.97C372.81 558.947 349.238 582.507 320.248 582.507Z" fill="#F8C452"/>
<path d="M320.248 585.486C289.632 585.486 264.706 560.571 264.706 529.97C264.706 519.138 273.376 510.472 284.213 510.472H356.283C367.12 510.472 375.79 519.138 375.79 529.97C375.79 560.571 350.864 585.486 320.248 585.486ZM284.213 516.7C276.898 516.7 270.937 522.658 270.937 529.97C270.937 557.051 293.154 579.257 320.248 579.257C347.342 579.257 369.558 557.051 369.558 529.97C369.558 522.658 363.598 516.7 356.283 516.7H284.213Z" fill="#1D1D1B"/>
<path d="M320.248 404.586C283.671 404.586 254.139 434.104 254.139 470.663C254.139 470.663 298.031 476.621 320.248 437.625C342.194 476.621 386.356 470.663 386.356 470.663C386.356 434.104 356.824 404.586 320.248 404.586Z" fill="#F8C452"/>
<path d="M380.396 473.913C367.662 473.913 338.401 470.663 320.248 443.312C296.676 478.787 254.139 473.642 253.868 473.371L251.159 470.122C251.159 431.938 282.317 401.066 320.519 401.066C358.721 401.066 389.879 432.209 389.879 470.122L387.169 473.371C386.627 473.642 384.189 473.913 380.396 473.913ZM257.39 467.684C267.144 468.226 299.657 467.413 317.268 436H322.957C340.568 467.143 373.081 468.226 382.834 467.684C381.209 434.375 353.844 407.836 319.977 407.836C286.652 407.565 259.016 434.375 257.39 467.684Z" fill="#1D1D1B"/>
<path d="M320.248 559.759C311.307 559.488 304.533 556.509 300.469 551.364C294.509 543.781 296.405 533.761 296.676 533.49L302.908 534.845C302.908 534.845 301.553 542.427 305.617 547.572C308.597 551.364 313.474 553.259 320.519 553.53L320.248 559.759Z" fill="#1D1D1B"/>
<path d="M325.395 516.159L321.331 511.285L332.44 502.077L317.267 466.602L323.228 464.164L339.213 501.807L338.4 505.598L325.395 516.159Z" fill="#1D1D1B"/>
<path d="M602.564 750.137V781.28C600.126 782.634 597.417 783.988 594.707 785.342C588.747 788.321 582.786 790.759 576.554 792.654C567.342 795.633 557.589 798.07 547.835 799.154C547.564 799.154 547.022 799.154 546.751 799.154C540.791 799.966 534.83 800.237 528.869 800.237C522.909 800.237 516.948 799.966 510.988 799.154C510.717 799.154 510.175 799.154 509.904 799.154C499.879 797.8 490.396 795.633 481.184 792.654C471.973 789.675 463.303 785.613 455.174 781.009V750.137C455.174 729.014 472.244 711.683 493.648 711.683H564.362C585.495 711.683 602.564 728.744 602.564 750.137Z" fill="#C0D361"/>
<path d="M528.869 803.757C522.638 803.757 516.677 803.486 510.717 802.674C510.446 802.674 510.175 802.674 509.633 802.674C499.608 801.32 489.584 799.153 480.101 795.903C470.889 792.925 461.948 788.862 453.549 783.988L451.923 781.28V750.137C451.923 727.118 470.618 708.433 493.648 708.433H564.362C587.392 708.433 605.816 727.118 605.816 750.137V781.28L604.19 783.988C601.481 785.613 598.771 786.967 596.062 788.321C590.101 791.3 583.87 793.737 577.638 795.903C568.155 799.153 558.131 801.32 548.377 802.674C548.106 802.674 547.564 802.674 547.022 802.674C541.333 803.215 535.101 803.757 528.869 803.757ZM458.426 779.384C466.012 783.446 473.869 786.967 482.268 789.946C491.209 792.925 500.692 795.091 510.446 796.445C510.717 796.445 510.988 796.445 511.258 796.445C523.18 797.799 535.101 797.799 546.48 796.445C547.022 796.445 547.293 796.445 547.564 796.445C557.047 795.362 566.53 793.195 575.742 789.946C581.702 788.05 587.663 785.613 593.623 782.634C595.52 781.551 597.688 780.738 599.584 779.384V750.137C599.584 730.639 583.87 714.932 564.362 714.932H493.648C474.14 714.932 458.426 730.639 458.426 750.137V779.384Z" fill="#1D1D1B"/>
<path d="M528.869 688.393L493.647 711.683L482.268 768.011L528.869 744.451L575.741 768.011L564.362 711.683L528.869 688.393Z" fill="#F8C452"/>
<path d="M574.387 770.718L529.14 747.971L483.894 770.718L479.288 767.198L490.667 710.87L492.022 708.974L527.244 685.685H530.766L565.987 708.974L567.342 710.87L578.722 767.198L574.387 770.718ZM530.495 741.742L571.406 762.323L561.382 713.849L528.869 692.455L496.357 713.849L486.332 762.323L527.244 741.742H530.495Z" fill="#1D1D1B"/>
<path d="M467.096 583.59L468.451 622.587L476.579 621.233V573.57L467.096 583.59Z" fill="#65B1E2"/>
<path d="M468.992 625.836L465.199 622.857L463.844 583.59L464.657 581.424L474.14 571.404L479.559 573.57V621.503L476.85 624.753L468.992 625.836ZM470.347 584.673L471.702 619.066L473.327 618.795V581.694L470.347 584.673Z" fill="#1D1D1B"/>
<path d="M589.288 579.799V622.587L581.431 621.233V573.571L589.288 579.799Z" fill="#65B1E2"/>
<path d="M588.746 625.836L580.889 624.482L578.18 621.233V573.3L583.328 570.863L591.185 577.362L592.269 579.799V622.587L588.746 625.836ZM584.682 618.525L586.308 618.795V581.424L584.682 580.07V618.525Z" fill="#1D1D1B"/>
<path d="M547.835 677.561H509.904V720.619C509.904 731.181 518.303 739.576 528.869 739.576C539.436 739.576 547.835 731.181 547.835 720.619V677.561Z" fill="#FAFBFD"/>
<path d="M528.869 742.554C516.677 742.554 506.653 732.534 506.653 720.348V677.56L509.904 674.311H547.835L551.086 677.56V720.348C551.086 732.805 541.062 742.554 528.869 742.554ZM513.155 680.81V720.619C513.155 729.285 520.199 736.326 528.869 736.326C537.539 736.326 544.584 729.285 544.584 720.619V680.81H513.155Z" fill="#1D1D1B"/>
<path d="M476.578 561.384V648.855C476.578 677.831 500.15 701.392 529.14 701.392C558.131 701.392 581.702 677.831 581.702 648.855V561.384H476.578Z" fill="#FAFBFD"/>
<path d="M528.869 704.642C498.254 704.642 473.327 679.727 473.327 649.126V561.655L476.579 558.406H581.431L584.683 561.655V649.126C584.683 679.456 559.756 704.642 528.869 704.642ZM479.83 564.634V648.855C479.83 675.936 502.047 698.142 529.14 698.142C556.234 698.142 578.451 675.936 578.451 648.855V564.634H479.83Z" fill="#1D1D1B"/>
<path d="M476.578 649.668C467.637 649.668 460.593 642.627 460.593 633.69C460.593 624.754 467.637 617.713 476.578 617.713V649.668Z" fill="#FAFBFD"/>
<path d="M476.578 652.918C466.012 652.918 457.342 644.252 457.342 633.69C457.342 623.129 466.012 614.463 476.578 614.463L479.83 617.713V649.668L476.578 652.918ZM473.327 621.233C467.908 622.587 463.844 627.732 463.844 633.69C463.844 639.648 467.908 644.523 473.327 646.147V621.233Z" fill="#1D1D1B"/>
<path d="M581.431 649.668C590.372 649.668 597.416 642.627 597.416 633.69C597.416 624.754 590.372 617.713 581.431 617.713V649.668Z" fill="#FAFBFD"/>
<path d="M581.431 652.918L578.18 649.668V617.713L581.431 614.463C591.998 614.463 600.667 623.129 600.667 633.69C600.667 644.252 591.998 652.918 581.431 652.918ZM584.682 621.233V645.877C590.101 644.523 594.165 639.377 594.165 633.419C594.165 627.462 590.101 622.858 584.682 621.233Z" fill="#1D1D1B"/>
<path d="M528.869 744.449L512.071 753.115L521.012 767.739H536.997L545.667 752.844L528.869 744.449Z" fill="#FAFBFD"/>
<path d="M536.998 770.989H521.012L518.303 769.364L509.362 754.74L510.717 750.137L527.786 741.471H530.766L547.293 749.866L548.648 754.199L539.978 769.093L536.998 770.989ZM522.638 764.489H534.83L540.791 753.928L528.599 747.699L516.135 753.928L522.638 764.489Z" fill="#1D1D1B"/>
<path d="M546.751 799.424C540.79 800.236 534.83 800.507 528.869 800.507C522.908 800.507 516.948 800.236 510.987 799.424L521.012 767.739H536.997L546.751 799.424Z" fill="#FAFBFD"/>
<path d="M528.869 803.757C522.638 803.757 516.677 803.486 510.716 802.674L508.007 798.612L518.032 766.927L521.012 764.761H536.997L539.978 766.927L550.002 798.612L547.293 802.674C541.332 803.215 535.101 803.757 528.869 803.757ZM515.322 796.716C524.534 797.528 533.746 797.528 542.687 796.716L534.559 770.989H523.179L515.322 796.716Z" fill="#1D1D1B"/>
<path d="M505.569 621.504C507.963 621.504 509.904 619.564 509.904 617.171C509.904 614.778 507.963 612.838 505.569 612.838C503.174 612.838 501.234 614.778 501.234 617.171C501.234 619.564 503.174 621.504 505.569 621.504Z" fill="#1D1D1B"/>
<path d="M552.17 621.504C554.564 621.504 556.505 619.564 556.505 617.171C556.505 614.778 554.564 612.838 552.17 612.838C549.776 612.838 547.835 614.778 547.835 617.171C547.835 619.564 549.776 621.504 552.17 621.504Z" fill="#1D1D1B"/>
<path d="M593.623 595.507C593.623 559.76 564.633 530.784 528.869 530.784C493.106 530.784 464.115 559.76 464.115 595.507L473.869 599.84H491.209C514.781 599.84 536.185 588.466 544.584 571.134L547.835 564.364V599.569C561.924 599.569 577.367 593.34 580.618 583.05L581.431 583.591L593.623 595.507Z" fill="#65B1E2"/>
<path d="M548.106 603.089L544.855 599.839V577.362C534.559 593.069 513.968 603.089 491.209 603.089H474.14L472.785 602.818L463.032 598.485L461.135 595.506C461.135 558.135 491.48 527.533 529.14 527.533C566.53 527.533 597.145 557.864 597.145 595.506L591.727 597.673L582.515 588.465C576.012 597.943 561.382 603.089 548.106 603.089ZM474.682 596.589H491.209C513.426 596.589 533.746 585.757 541.874 569.779L545.126 563.009L551.086 564.363V596.319C562.736 595.506 575.2 590.361 577.638 582.237L582.244 580.341L583.599 581.424L589.559 587.382C585.495 557.322 559.756 534.033 528.598 534.033C495.273 534.033 468.179 560.572 467.096 593.34L474.682 596.589Z" fill="#1D1D1B"/>
<path d="M502.317 637.212C490.396 637.212 480.913 627.463 480.913 615.818C480.913 603.903 490.667 594.424 502.317 594.424C514.239 594.424 523.721 604.173 523.721 615.818C523.721 627.463 514.239 637.212 502.317 637.212ZM502.317 600.653C493.918 600.653 487.145 607.423 487.145 615.818C487.145 624.213 493.918 630.983 502.317 630.983C510.716 630.983 517.49 624.213 517.49 615.818C517.49 607.423 510.716 600.653 502.317 600.653Z" fill="#1D1D1B"/>
<path d="M555.421 637.211C543.5 637.211 534.017 627.462 534.017 615.817C534.017 603.901 543.771 594.423 555.421 594.423C567.071 594.423 576.825 604.172 576.825 615.817C576.825 627.462 567.342 637.211 555.421 637.211ZM555.421 600.652C547.022 600.652 540.248 607.422 540.248 615.817C540.248 624.212 547.022 630.982 555.421 630.982C563.82 630.982 570.593 624.212 570.593 615.817C570.593 607.422 563.82 600.652 555.421 600.652Z" fill="#1D1D1B"/>
<path d="M581.431 611.214H573.845V617.713H581.431V611.214Z" fill="#1D1D1B"/>
<path d="M537.268 611.214H520.741V617.713H537.268V611.214Z" fill="#1D1D1B"/>
<path d="M484.165 611.214H476.308V617.713H484.165V611.214Z" fill="#1D1D1B"/>
<path d="M552.169 673.499H505.568C508.548 666.729 514.238 662.396 520.47 662.396H537.268C543.499 662.125 548.918 666.458 552.169 673.499Z" fill="#65B1E2"/>
<path d="M552.17 676.478H505.568L502.588 671.874C506.11 663.75 512.884 658.875 520.47 658.875H537.268C544.583 658.875 551.628 663.75 555.15 671.874L552.17 676.478ZM511.258 670.249H546.48C544.041 667.27 540.79 665.374 537.268 665.374H520.47C516.948 665.374 513.697 667.27 511.258 670.249Z" fill="#1D1D1B"/>
<path d="M530.766 664.291L526.702 659.417L537.811 650.209L525.889 614.733L532.121 612.567L544.584 650.209L543.5 653.73L530.766 664.291Z" fill="#1D1D1B"/>
<path d="M699.289 287.056H567.343V201.481L635.077 154.361L699.289 201.481V287.056Z" fill="#65B1E2"/>
<path d="M699.289 290.306H567.343L564.091 287.056V201.481L565.446 198.773L633.18 151.653H636.974L701.186 198.773L702.54 201.21V287.056L699.289 290.306ZM570.323 284.077H696.038V203.106L634.806 158.423L570.323 203.106V284.077Z" fill="#1D1D1B"/>
<path d="M706.875 350.695V381.838C704.437 383.192 701.727 384.546 699.018 385.9C693.057 388.879 687.097 391.317 680.865 393.212C671.653 396.191 661.899 398.628 652.146 399.712C645.914 400.524 639.683 400.795 633.18 400.795C626.678 400.795 620.446 400.524 614.214 399.712C604.19 398.358 594.707 396.191 585.495 393.212C576.283 390.233 567.613 386.171 559.485 381.567V350.425C559.485 331.468 573.303 315.49 591.727 312.512C593.623 312.241 595.791 311.97 597.958 311.97H668.673C670.84 311.97 673.008 312.241 674.904 312.512C693.057 315.761 706.875 331.468 706.875 350.695Z" fill="#EE788A"/>
<path d="M633.18 404.316C626.678 404.316 620.175 404.045 613.944 403.232C603.919 401.878 593.894 399.712 584.683 396.462C575.471 393.483 566.53 389.421 558.131 384.547L556.505 381.839V350.696C556.505 330.114 571.136 313.054 591.456 309.533C593.623 309.262 595.791 308.991 598.229 308.991H668.944C671.111 308.991 673.55 309.262 675.717 309.533C695.767 312.783 710.397 330.114 710.397 350.696V381.839L708.772 384.547C706.062 386.172 703.353 387.526 700.644 388.88C694.683 391.859 688.452 394.296 682.22 396.462C672.737 399.712 662.712 401.878 652.959 403.232C646.185 403.774 639.683 404.316 633.18 404.316ZM562.737 379.943C570.323 384.005 578.451 387.526 586.579 390.505C595.791 393.483 605.003 395.65 614.757 397.004C627.22 398.629 639.683 398.629 651.875 397.004C661.358 395.921 670.841 393.754 680.052 390.505C686.013 388.609 691.974 386.172 697.934 383.193C699.831 382.109 701.998 381.297 703.895 379.943V350.696C703.895 333.364 691.432 318.741 674.363 316.032C672.466 315.762 670.57 315.491 668.673 315.491H597.958C596.062 315.491 594.165 315.762 592.269 316.032C575.2 318.741 562.737 333.364 562.737 350.696V379.943Z" fill="#1D1D1B"/>
<path d="M681.136 368.298L672.195 376.422L681.136 382.38V393.212C671.924 396.191 662.17 398.628 652.417 399.711C646.185 400.524 639.954 400.795 633.451 400.795C626.949 400.795 620.717 400.524 614.485 399.711C604.461 398.357 594.978 396.191 585.766 393.212V382.38L594.707 376.422L585.766 368.298V334.447C585.766 326.323 587.934 319.011 591.998 312.511C596.333 305.47 602.835 299.783 610.421 296.263C611.776 295.721 613.131 295.18 614.485 294.638C618.549 293.284 622.884 292.472 627.49 292.472H639.412C644.018 292.472 648.353 293.284 652.417 294.638C653.771 295.18 655.126 295.721 656.481 296.263C664.067 299.783 670.569 305.47 674.904 312.511C678.698 318.74 681.136 326.323 681.136 334.447V368.298Z" fill="#B4BEBF"/>
<path d="M633.18 404.315C626.678 404.315 620.175 404.045 613.944 403.232C603.919 401.878 593.894 399.712 584.682 396.462L582.515 393.483V382.651L583.87 379.943L589.559 376.151L583.599 370.735L582.515 368.298V334.447C582.515 326.052 584.682 317.928 589.288 310.887C594.165 303.304 600.939 297.076 609.067 293.555C610.421 293.014 611.776 292.472 613.673 291.93C618.279 290.576 622.885 289.764 627.49 289.764H639.412C644.289 289.764 648.895 290.576 653.229 291.93C654.584 292.472 656.21 293.014 657.835 293.826C665.964 297.617 673.008 303.575 677.614 311.158C681.949 318.199 684.387 326.323 684.387 334.718V368.298L683.303 370.735L677.343 376.151L683.033 379.943L684.387 382.651V393.483L682.22 396.462C672.737 399.712 662.712 401.878 652.688 403.232C646.185 403.774 639.683 404.315 633.18 404.315ZM588.746 391.046C597.146 393.754 605.815 395.65 614.756 396.733C627.22 398.358 639.683 398.358 651.875 396.733C660.545 395.65 669.486 393.754 677.885 391.046V384.276L670.299 379.13L670.028 373.985L677.885 366.673V334.176C677.885 327.135 675.988 320.094 672.195 314.137C668.131 307.637 662.17 302.492 655.126 299.242C653.771 298.701 652.417 298.159 651.333 297.617C647.54 296.263 643.476 295.722 639.412 295.722H627.49C623.426 295.722 619.362 296.263 615.569 297.617C614.215 298.159 612.86 298.701 611.776 298.971C604.732 302.221 598.771 307.366 594.707 313.866C590.914 319.824 589.017 326.865 589.017 333.906V366.402L596.875 373.714L596.604 378.86L589.017 384.005V391.046H588.746Z" fill="#1D1D1B"/>
<path d="M652.146 308.991V399.712C645.914 400.524 639.682 400.795 633.18 400.795C626.677 400.795 620.446 400.524 614.214 399.712V308.991H652.146Z" fill="#EE788A"/>
<path d="M633.18 404.316C626.678 404.316 620.175 404.045 613.944 403.233L611.234 399.983V309.262L614.485 306.013H652.417L655.668 309.262V399.983L652.959 403.233C646.185 403.774 639.683 404.316 633.18 404.316ZM617.466 397.004C628.032 398.087 638.599 398.087 648.895 397.004V312.241H617.466V397.004Z" fill="#1D1D1B"/>
<path d="M652.146 278.119H614.214V320.906C614.214 331.468 622.613 339.863 633.18 339.863C643.747 339.863 652.146 331.468 652.146 320.906V278.119Z" fill="#FAFBFD"/>
<path d="M633.18 343.113C620.988 343.113 610.963 333.093 610.963 320.907V277.848L614.214 274.599H652.146L655.397 277.848V320.907C655.397 333.364 645.372 343.113 633.18 343.113ZM617.466 281.369V321.177C617.466 329.843 624.51 336.884 633.18 336.884C641.85 336.884 648.894 329.843 648.894 321.177V281.369H617.466Z" fill="#1D1D1B"/>
<path d="M580.89 168.442V249.414C580.89 278.39 604.461 301.95 633.452 301.95C662.442 301.95 686.013 278.39 686.013 249.414V168.442H580.89Z" fill="#FAFBFD"/>
<path d="M633.181 304.929C602.565 304.929 577.639 280.015 577.639 249.413V168.442L580.89 165.192H685.742L688.994 168.442V249.413C688.994 280.015 664.067 304.929 633.181 304.929ZM584.141 171.692V249.413C584.141 276.494 606.358 298.7 633.452 298.7C660.545 298.7 682.762 276.494 682.762 249.413V171.692H584.141Z" fill="#1D1D1B"/>
<path d="M580.89 250.226C571.949 250.226 564.904 243.185 564.904 234.248C564.904 225.312 571.949 218.271 580.89 218.271V250.226Z" fill="#FAFBFD"/>
<path d="M580.89 253.475C570.323 253.475 561.653 244.809 561.653 234.248C561.653 223.686 570.323 215.021 580.89 215.021L584.141 218.27V250.225L580.89 253.475ZM577.638 221.791C572.22 223.145 568.156 228.29 568.156 234.248C568.156 240.206 572.22 245.08 577.638 246.705V221.791Z" fill="#1D1D1B"/>
<path d="M685.742 250.226C694.683 250.226 701.728 243.185 701.728 234.248C701.728 225.312 694.683 218.271 685.742 218.271V250.226Z" fill="#FAFBFD"/>
<path d="M685.742 253.475L682.491 250.225V218.27L685.742 215.021C696.309 215.021 704.979 223.686 704.979 234.248C704.979 244.809 696.309 253.475 685.742 253.475ZM688.994 221.791V246.434C694.412 245.08 698.476 239.935 698.476 233.977C698.476 228.29 694.412 223.416 688.994 221.791Z" fill="#1D1D1B"/>
<path d="M605.003 225.041C607.397 225.041 609.338 223.101 609.338 220.708C609.338 218.315 607.397 216.375 605.003 216.375C602.609 216.375 600.668 218.315 600.668 220.708C600.668 223.101 602.609 225.041 605.003 225.041Z" fill="#1D1D1B"/>
<path d="M661.358 225.041C663.752 225.041 665.693 223.101 665.693 220.708C665.693 218.315 663.752 216.375 661.358 216.375C658.964 216.375 657.023 218.315 657.023 220.708C657.023 223.101 658.964 225.041 661.358 225.041Z" fill="#1D1D1B"/>
<path d="M633.18 135.404C596.604 135.404 567.071 164.922 567.071 201.481C567.071 201.481 610.963 207.438 633.18 168.442C655.126 207.438 699.289 201.481 699.289 201.481C699.289 164.922 669.757 135.404 633.18 135.404Z" fill="#65B1E2"/>
<path d="M693.328 204.731C680.594 204.731 651.333 201.481 633.18 174.129C609.609 209.605 567.072 204.46 566.801 204.189L564.091 200.939C564.091 162.755 595.249 131.613 633.18 131.613C671.383 131.613 702.54 162.755 702.54 200.939L699.831 204.189C699.56 204.46 697.392 204.731 693.328 204.731ZM570.594 198.502C580.348 199.044 612.86 198.231 630.471 166.818H636.161C654.043 198.231 686.284 199.044 696.038 198.502C694.412 165.193 667.048 138.654 633.18 138.654C599.584 138.654 571.949 165.193 570.594 198.502Z" fill="#1D1D1B"/>
<path d="M636.702 229.103H630.2V249.955H636.702V229.103Z" fill="#1D1D1B"/>
<path d="M631.013 279.473C621.259 279.473 616.653 271.078 615.569 266.204L621.801 264.85L618.821 265.662L621.801 264.85C622.072 265.933 624.51 274.87 633.993 272.974L635.348 279.203C633.451 279.473 632.097 279.473 631.013 279.473Z" fill="#1D1D1B"/>
<path d="M803.6 619.337V654.542C783.821 664.291 761.333 669.707 737.762 669.707C707.688 669.707 679.781 660.77 656.21 645.605V619.066C656.21 597.943 673.279 580.611 694.683 580.611H765.397C786.26 581.153 803.6 598.214 803.6 619.337Z" fill="#B4BEBF"/>
<path d="M737.491 672.956C707.688 672.956 678.968 664.561 654.313 648.313L652.958 645.605V619.065C652.958 596.047 671.653 577.361 694.683 577.361H765.397C788.427 577.361 807.122 596.047 807.122 619.065V654.27L805.225 657.249C783.821 667.811 761.333 672.956 737.491 672.956ZM659.19 643.98C682.491 658.874 709.584 666.457 737.491 666.457C759.437 666.457 780.57 661.853 800.077 652.375V619.065C800.077 599.567 784.363 583.86 764.856 583.86H694.141C674.634 583.86 658.919 599.567 658.919 619.065V643.98H659.19Z" fill="#1D1D1B"/>
<path d="M729.904 557.591L694.412 581.151L683.032 637.209L729.904 613.919L776.506 637.209L765.126 581.151L729.904 557.591Z" fill="#C0D361"/>
<path d="M775.151 640.188L729.905 617.44L684.658 640.188L680.052 636.667L691.431 580.339L692.786 578.444L728.008 555.154H731.53L766.752 578.444L768.107 580.339L779.486 636.667L775.151 640.188ZM731.259 610.94L772.171 631.522L762.146 583.047L729.634 561.653L697.121 583.047L687.097 631.522L728.008 610.94H731.259Z" fill="#1D1D1B"/>
<path d="M667.589 439.791L669.215 491.244L677.343 489.619V437.353L667.589 439.791Z" fill="#F8C452"/>
<path d="M670.028 494.494L666.235 491.515L664.609 440.062L667.047 436.812L676.53 434.375L680.594 437.354V489.62L677.885 492.869L670.028 494.494ZM670.841 442.228L672.195 487.453L673.821 487.182V441.416L670.841 442.228Z" fill="#1D1D1B"/>
<path d="M791.949 439.791L790.324 491.244L782.196 489.619V437.353L791.949 439.791Z" fill="#F8C452"/>
<path d="M789.511 494.494L781.654 492.869L778.944 489.62V437.354L783.008 434.375L792.491 436.812L794.93 440.062L793.304 491.515L789.511 494.494ZM785.447 487.182L787.073 487.453L788.427 442.228L785.176 441.416V487.182H785.447Z" fill="#1D1D1B"/>
<path d="M748.599 547.031H710.668V590.09C710.668 600.651 719.067 609.046 729.633 609.046C740.2 609.046 748.599 600.651 748.599 590.09V547.031Z" fill="#FAFBFD"/>
<path d="M729.905 612.025C717.712 612.025 707.688 602.005 707.688 589.819V547.031L710.939 543.781H748.87L752.121 547.031V589.819C751.85 602.005 742.097 612.025 729.905 612.025ZM713.919 550.281V590.089C713.919 598.755 720.964 605.796 729.634 605.796C738.304 605.796 745.348 598.755 745.348 590.089V550.281H713.919Z" fill="#1D1D1B"/>
<path d="M677.343 437.353V518.325C677.343 547.301 700.914 570.861 729.905 570.861C758.895 570.861 782.467 547.301 782.467 518.325V437.353H677.343Z" fill="#FAFBFD"/>
<path d="M729.905 573.84C699.289 573.84 674.363 548.926 674.363 518.324V437.353L677.614 434.103H782.467L785.718 437.353V518.324C785.447 548.926 760.521 573.84 729.905 573.84ZM680.594 440.603V518.324C680.594 545.405 702.811 567.611 729.905 567.611C756.999 567.611 779.215 545.405 779.215 518.324V440.603H680.594Z" fill="#1D1D1B"/>
<path d="M677.343 518.866C668.402 518.866 661.358 511.825 661.358 502.889C661.358 493.952 668.402 486.911 677.343 486.911V518.866Z" fill="#FAFBFD"/>
<path d="M677.343 522.116C666.777 522.116 658.107 513.45 658.107 502.888C658.107 492.327 666.777 483.661 677.343 483.661L680.594 486.911V518.866L677.343 522.116ZM674.092 490.702C668.673 492.056 664.609 497.202 664.609 503.159C664.609 509.117 668.673 513.992 674.092 515.616V490.702Z" fill="#1D1D1B"/>
<path d="M782.196 518.866C791.137 518.866 798.181 511.825 798.181 502.889C798.181 493.952 791.137 486.911 782.196 486.911V518.866Z" fill="#FAFBFD"/>
<path d="M782.196 522.116L778.944 518.866V486.911L782.196 483.661C792.762 483.661 801.432 492.327 801.432 502.888C801.432 513.721 792.762 522.116 782.196 522.116ZM785.447 490.702V515.346C790.866 513.992 794.93 508.846 794.93 502.888C794.93 497.201 790.866 492.056 785.447 490.702Z" fill="#1D1D1B"/>
<path d="M701.727 486.911C704.121 486.911 706.062 484.971 706.062 482.578C706.062 480.185 704.121 478.245 701.727 478.245C699.333 478.245 697.392 480.185 697.392 482.578C697.392 484.971 699.333 486.911 701.727 486.911Z" fill="#1D1D1B"/>
<path d="M758.082 486.911C760.476 486.911 762.417 484.971 762.417 482.578C762.417 480.185 760.476 478.245 758.082 478.245C755.688 478.245 753.747 480.185 753.747 482.578C753.747 484.971 755.688 486.911 758.082 486.911Z" fill="#1D1D1B"/>
<path d="M819.043 399.982H710.397C686.555 399.982 667.589 419.209 667.589 442.769H797.639C809.56 442.769 819.043 433.291 819.043 421.376H797.91L799.806 421.105C810.915 420.021 819.043 410.814 819.043 399.982Z" fill="#F8C452"/>
<path d="M797.639 446.019H667.589L664.338 442.769C664.338 417.314 684.929 396.732 710.397 396.732H819.043L822.294 399.982C822.294 407.294 819.314 413.793 814.166 418.126H819.043L822.294 421.376C822.294 434.916 811.186 446.019 797.639 446.019ZM671.111 439.791H797.91C806.851 439.791 814.437 433.291 815.792 424.625H798.181L797.91 418.397L799.806 418.126C807.935 417.314 814.437 411.085 815.792 403.232H710.668C689.806 403.232 672.737 419.209 671.111 439.791Z" fill="#1D1D1B"/>
<path d="M703.352 504.243C691.431 504.243 681.948 494.494 681.948 482.849C681.948 470.933 691.702 461.455 703.352 461.455C715.274 461.455 724.756 471.204 724.756 482.849C724.756 494.494 715.274 504.243 703.352 504.243ZM703.352 467.684C694.953 467.684 688.18 474.454 688.18 482.849C688.18 491.244 694.953 498.014 703.352 498.014C711.752 498.014 718.525 491.244 718.525 482.849C718.525 474.454 711.752 467.684 703.352 467.684Z" fill="#1D1D1B"/>
<path d="M756.456 504.242C744.535 504.242 735.052 494.493 735.052 482.849C735.052 470.933 744.806 461.455 756.456 461.455C768.377 461.455 777.86 471.204 777.86 482.849C777.86 494.493 768.377 504.242 756.456 504.242ZM756.456 467.683C748.057 467.683 741.284 474.454 741.284 482.849C741.284 491.244 748.057 498.014 756.456 498.014C764.855 498.014 771.629 491.244 771.629 482.849C771.629 474.454 764.855 467.683 756.456 467.683Z" fill="#1D1D1B"/>
<path d="M782.466 478.245H774.88V484.744H782.466V478.245Z" fill="#1D1D1B"/>
<path d="M738.304 478.245H721.777V484.744H738.304V478.245Z" fill="#1D1D1B"/>
<path d="M685.2 478.245H677.343V484.744H685.2V478.245Z" fill="#1D1D1B"/>
<path d="M741.555 541.073C741.555 547.572 736.407 552.718 729.905 552.718C723.402 552.718 718.255 547.572 718.255 541.073H741.555Z" fill="#EE788A"/>
<path d="M729.905 555.967C721.777 555.967 715.003 549.197 715.003 541.073L718.254 537.823H741.555L744.806 541.073C744.535 549.197 738.033 555.967 729.905 555.967ZM721.777 544.322C723.131 547.301 726.112 549.738 729.634 549.738C733.156 549.738 736.136 547.572 737.491 544.322H721.777Z" fill="#1D1D1B"/>
<path d="M730.176 528.887C730.176 528.887 729.905 528.887 730.176 528.887C724.486 528.887 720.964 523.741 720.693 522.929L726.111 519.409L723.402 521.033L726.111 519.138C726.653 519.95 728.55 522.117 730.446 522.117C732.072 522.117 733.427 520.492 734.511 519.138L739.658 522.658C736.678 526.991 733.427 528.887 730.176 528.887Z" fill="#1D1D1B"/>
<path d="M342.465 794.821L276.085 783.718V739.305L342.465 728.473V794.821Z" fill="#FAFBFD"/>
<path d="M341.923 797.8L275.543 786.697L272.834 783.447V739.305L275.543 736.056L341.923 724.953L345.716 728.202V794.55L341.923 797.8ZM279.336 781.01L339.484 791.03V732.264L279.336 742.284V781.01Z" fill="#1D1D1B"/>
<path d="M276.085 815.673H289.903L276.085 783.717H262.267L276.085 815.673Z" fill="#EE788A"/>
<path d="M289.903 818.923H276.085L273.105 817.027L259.287 785.072L262.267 780.739H276.085L279.065 782.634L292.883 814.59L289.903 818.923ZM277.982 812.694H284.755L273.647 787.238H266.873L277.982 812.694Z" fill="#1D1D1B"/>
<path d="M331.898 792.924L312.932 789.946V733.347L331.898 730.097V792.924Z" fill="#C0D361"/>
<path d="M331.356 796.174L312.391 792.925L309.681 789.675V733.076L312.391 729.826L331.356 726.577L335.149 729.826V792.654L331.356 796.174ZM316.184 787.238L328.647 789.404V733.888L316.184 736.055V787.238Z" fill="#1D1D1B"/>
<path d="M256.578 768.011H263.893V755.012H256.578C253.055 755.012 250.075 757.991 250.075 761.512C250.075 765.303 253.055 768.011 256.578 768.011Z" fill="#EE788A"/>
<path d="M263.893 771.26H256.578C251.159 771.26 246.824 766.927 246.824 761.511C246.824 756.095 251.159 751.762 256.578 751.762H263.893L267.144 755.012V768.011L263.893 771.26ZM256.578 758.262C254.681 758.262 253.326 759.886 253.326 761.511C253.326 763.407 254.952 764.761 256.578 764.761H260.642V758.262H256.578Z" fill="#1D1D1B"/>
<path d="M276.085 739.305H262.267V783.718H276.085V739.305Z" fill="#FAFBFD"/>
<path d="M276.085 786.967H262.267L259.016 783.717V739.305L262.267 736.055H276.085L279.337 739.305V783.717L276.085 786.967ZM265.248 780.738H272.834V742.555H265.248V780.738Z" fill="#1D1D1B"/>
<path d="M378.77 752.845H355.199V759.344H378.77V752.845Z" fill="#1D1D1B"/>
<path d="M300.199 780.738L286.923 778.572L287.194 772.072L300.741 774.239L300.199 780.738Z" fill="#1D1D1B"/>
<path d="M374.188 722.401L369.591 717.804L352.921 734.461L357.519 739.058L374.188 722.401Z" fill="#1D1D1B"/>
<path d="M373.985 789.972L357.318 773.312L352.72 777.908L369.387 794.567L373.985 789.972Z" fill="#1D1D1B"/>
<path d="M569.51 414.877C554.88 414.877 542.958 426.792 542.958 441.416V489.349H556.505L550.545 513.992L578.18 489.349H601.21C615.84 489.349 627.762 477.433 627.762 462.81V414.877H569.51Z" fill="#FAFBFD"/>
<path d="M552.712 516.429L547.564 513.179L552.712 492.598H543.229L539.978 489.348V441.416C539.978 425.167 553.254 411.627 569.781 411.627H628.033L631.284 414.876V462.809C631.284 479.058 618.008 492.598 601.481 492.598H579.806L552.712 516.429ZM546.21 486.099H556.505L559.486 490.161L555.963 504.784L576.013 486.911L578.18 486.099H601.21C613.944 486.099 624.511 475.537 624.511 462.809V418.126H569.51C556.776 418.126 546.21 428.688 546.21 441.416V486.099Z" fill="#1D1D1B"/>
<path d="M609.337 443.853H562.194V450.353H609.337V443.853Z" fill="#1D1D1B"/>
<path d="M608.525 459.019H561.653V465.518H608.525V459.019Z" fill="#1D1D1B"/>
<path d="M353.302 44.4131C363.597 44.4131 371.996 52.8081 371.996 63.0988V96.6789H362.513L366.848 114.011L347.341 96.6789H331.085C320.789 96.6789 312.39 88.2839 312.39 77.9932V44.4131H353.302Z" fill="#FAFBFD"/>
<path d="M364.681 116.448L346.257 99.9283H331.356C319.435 99.9283 309.41 90.1792 309.41 77.9929V44.4128L312.661 41.1631H353.573C365.494 41.1631 375.519 50.9122 375.519 63.0985V96.6786L372.267 99.9283H366.849L370.1 113.198L364.681 116.448ZM315.641 47.6625V78.2637C315.641 86.6587 322.686 93.6997 331.085 93.6997H347.341L349.509 94.5122L361.159 105.074L359.262 97.7618L362.243 93.6997H368.745V63.0985C368.745 54.7035 361.701 47.6625 353.302 47.6625H315.641Z" fill="#1D1D1B"/>
<path d="M358.45 63.9111H325.395V70.4105H358.45V63.9111Z" fill="#1D1D1B"/>
<path d="M358.992 74.4727H325.937V80.972H358.992V74.4727Z" fill="#1D1D1B"/>
<path d="M929.586 491.516L941.236 433.021C937.443 432.209 933.65 431.938 929.586 431.938C896.532 431.938 869.98 458.748 869.98 491.516C869.98 524.554 896.803 551.094 929.586 551.094C962.64 551.094 989.192 524.284 989.192 491.516C989.192 487.454 988.65 483.662 988.109 479.871L929.586 491.516Z" fill="#EE788A"/>
<path d="M929.586 554.343C894.906 554.343 866.729 526.179 866.729 491.516C866.729 456.852 894.906 428.688 929.586 428.688C933.65 428.688 937.985 429.23 942.049 430.042L944.488 433.834L933.65 487.724L987.567 476.892L991.36 479.329C992.173 483.391 992.714 487.453 992.714 491.786C992.444 526.179 964.266 554.343 929.586 554.343ZM929.586 434.917C898.428 434.917 872.96 460.373 872.96 491.516C872.96 522.658 898.428 548.114 929.586 548.114C960.744 548.114 986.212 522.658 986.212 491.516C986.212 488.807 985.941 486.099 985.67 483.662L930.399 494.765L926.606 490.974L937.714 435.729C934.734 435.188 932.025 434.917 929.586 434.917Z" fill="#1D1D1B"/>
<path d="M1005.72 461.997C1001.11 438.437 982.418 420.022 958.847 415.147L947.197 473.642L1005.72 461.997Z" fill="#65B1E2"/>
<path d="M948.01 476.892L944.217 473.1L955.867 414.606L959.66 412.169C984.586 417.043 1004.09 436.541 1008.97 461.456L1006.53 465.247L948.01 476.892ZM961.557 418.939L951.532 469.58L1002.2 459.56C996.778 439.52 981.335 424.084 961.557 418.939Z" fill="#1D1D1B"/>
<path d="M348.697 314.95C344.903 318.741 338.943 318.47 335.15 314.679L348.968 301.409C352.49 305.2 352.49 311.158 348.697 314.95Z" fill="#FAFBFD"/>
<path d="M341.923 320.636C338.401 320.636 335.15 319.282 332.711 316.845V312.241L346.529 298.972H351.135C353.573 301.409 354.928 304.659 354.657 308.179C354.657 311.7 353.302 314.679 350.864 317.116C348.426 319.553 345.174 320.636 341.923 320.636ZM340.297 314.137C340.839 314.408 341.381 314.408 341.923 314.408C343.549 314.408 345.174 313.866 346.529 312.512C347.613 311.429 348.426 309.804 348.426 308.179C348.426 307.638 348.426 307.096 348.155 306.554L340.297 314.137Z" fill="#1D1D1B"/>
<path d="M259.016 261.6C280.713 261.6 298.302 244.019 298.302 222.333C298.302 200.646 280.713 183.065 259.016 183.065C237.319 183.065 219.73 200.646 219.73 222.333C219.73 244.019 237.319 261.6 259.016 261.6Z" fill="#FAFBFD"/>
<path d="M259.016 264.85C247.908 264.85 237.07 260.517 228.671 252.122C212.144 235.332 212.415 208.522 229.213 192.002C246.011 175.483 272.834 175.754 289.361 192.544C305.888 209.334 305.617 236.144 288.819 252.663C280.691 260.787 269.853 264.85 259.016 264.85ZM259.016 186.045C249.804 186.045 240.592 189.565 233.548 196.335C219.459 210.417 219.188 233.165 233.277 247.518C247.366 261.6 270.124 261.871 284.484 247.789C298.573 233.707 298.844 210.959 284.755 196.606C277.711 189.836 268.228 186.045 259.016 186.045Z" fill="#1D1D1B"/>
<path d="M280.691 244.539C267.957 256.726 247.908 256.455 235.716 243.727C223.523 231.27 223.794 210.959 236.528 199.044C248.992 186.857 269.312 187.128 281.233 199.856C293.425 212.313 293.154 232.353 280.691 244.539Z" fill="#92C8ED"/>
<path d="M289.432 247.338L283.005 253.551L293.176 264.062L299.603 257.849L289.432 247.338Z" fill="#B4BEBF"/>
<path d="M295.592 266.475H290.986L280.691 255.913V251.31L287.193 245.081H291.799L302.095 255.643V260.246L295.592 266.475ZM287.735 253.747L293.425 259.705L295.321 258.08L289.632 252.122L287.735 253.747Z" fill="#1D1D1B"/>
<path d="M303.394 254.389L289.761 267.567L296.354 274.38L309.986 261.202L303.394 254.389Z" fill="#FAFBFD"/>
<path d="M298.572 276.766H293.967L287.193 269.995V265.392L301.011 252.122H305.617L312.39 258.892V263.496L298.572 276.766ZM294.237 267.829L296.405 270.266L305.617 261.33L303.449 258.892L294.237 267.829Z" fill="#1D1D1B"/>
<path d="M308.284 259.678L294.651 272.856L335.148 314.708L348.78 301.529L308.284 259.678Z" fill="#F8C452"/>
<path d="M337.317 316.844H332.711L292.341 275.14V270.536L306.159 257.267H310.765L351.135 298.971V303.575L337.317 316.844ZM299.115 272.973L335.149 310.074L344.361 301.137L308.327 264.037L299.115 272.973Z" fill="#1D1D1B"/>
<path d="M334.268 294.999L311.853 271.835L307.179 276.354L329.594 299.518L334.268 294.999Z" fill="#1D1D1B"/>
<path d="M272.834 207.439C265.789 200.398 254.952 199.314 246.824 205.001L243.03 199.856C253.597 192.273 268.228 193.627 277.169 202.835L272.834 207.439Z" fill="#1D1D1B"/>
<path d="M239.508 240.206C234.361 235.06 231.651 227.749 231.922 220.166L238.425 220.437C238.154 226.124 240.321 231.54 244.114 235.602L239.508 240.206Z" fill="#1D1D1B"/>
<path d="M876.482 810.798H832.048V817.297H876.482V810.798Z" fill="#1D1D1B"/>
<path d="M872.689 824.609H832.048V831.109H872.689V824.609Z" fill="#1D1D1B"/>
<path d="M897.073 838.149H832.048V844.649H897.073V838.149Z" fill="#1D1D1B"/>
<path d="M872.689 851.961H832.048V858.46H872.689V851.961Z" fill="#1D1D1B"/>
<path d="M860.497 865.501H832.048V872H860.497V865.501Z" fill="#1D1D1B"/>
<path d="M652.417 815.13H747.516V708.432L729.092 691.371H652.417V815.13Z" fill="#FAFBFD"/>
<path d="M747.516 818.109H652.417L649.165 814.859V691.1L652.417 687.851H729.092L731.259 688.663L749.683 705.724L750.767 708.161V815.13L747.516 818.109ZM655.668 811.88H744.535V709.786L728.008 694.35H655.668V811.88Z" fill="#1D1D1B"/>
<path d="M788.156 842.21C784.634 845.731 778.945 845.731 775.423 842.21L788.156 829.482C791.679 833.274 791.679 838.69 788.156 842.21Z" fill="#F8C452"/>
<path d="M781.925 848.169C778.944 848.169 775.693 847.085 773.255 844.648V840.044L785.989 827.316H790.595C795.471 832.191 795.471 839.774 790.595 844.377C788.156 846.815 784.905 848.169 781.925 848.169ZM780.57 841.669C782.467 841.94 784.363 841.398 785.718 840.044C787.072 838.69 787.614 836.524 787.343 834.899L780.57 841.669Z" fill="#1D1D1B"/>
<path d="M750.362 791.735L737.719 804.375L775.849 842.476L788.492 829.836L750.362 791.735Z" fill="#65B1E2"/>
<path d="M778.132 844.918H773.526L735.324 806.734V802.131L748.058 789.403H752.664L790.866 827.587V832.19L778.132 844.918ZM742.368 804.568L775.964 838.148L784.092 830.024L750.496 796.444L742.368 804.568Z" fill="#1D1D1B"/>
<path d="M784.227 833.699L746.486 795.976L741.888 800.571L779.629 838.294L784.227 833.699Z" fill="#1D1D1B"/>
<path d="M750.496 791.84L729.092 783.445L737.762 804.568L750.496 791.84Z" fill="#FAFBFD"/>
<path d="M739.929 806.735L734.782 805.652L726.112 784.529L730.176 780.467L751.309 789.133L752.393 794.278L739.929 806.735ZM735.053 789.133L739.117 798.882L744.806 793.195L735.053 789.133Z" fill="#1D1D1B"/>
<path d="M723.402 730.097H676.53V736.596H723.402V730.097Z" fill="#1D1D1B"/>
<path d="M723.402 717.91H676.53V724.41H723.402V717.91Z" fill="#1D1D1B"/>
<path d="M723.402 742.283H676.53V748.783H723.402V742.283Z" fill="#1D1D1B"/>
<path d="M729.092 780.196H694.954V786.696H729.092V780.196Z" fill="#1D1D1B"/>
<path d="M747.516 708.432L729.092 691.371V708.432H747.516Z" fill="#B4BEBF"/>
<path d="M747.516 711.681H729.092L725.841 708.432V691.371L731.26 688.934L749.683 705.994L747.516 711.681ZM732.343 705.182H739.388L732.343 698.683V705.182Z" fill="#1D1D1B"/>
<path d="M3.25122 305.742V300.597C3.25122 294.368 8.39903 289.223 14.6306 289.223H17.34V317.116H14.6306C8.39903 317.116 3.25122 311.971 3.25122 305.742Z" fill="#F8C452"/>
<path d="M17.069 320.095H12.1922C5.41874 320.095 0 314.679 0 307.909V297.889C0 291.119 5.41874 285.703 12.1922 285.703H17.34L20.5912 288.952V316.846L17.069 320.095ZM12.1922 292.473C8.94093 292.473 6.50249 294.91 6.50249 298.16V308.18C6.50249 311.429 8.94093 313.867 12.1922 313.867H14.0887V292.473H12.1922Z" fill="#1D1D1B"/>
<path d="M100.518 289.223H16.2562V317.116H100.518V289.223Z" fill="#65B1E2"/>
<path d="M100.518 320.095H16.2563L13.005 316.845V288.952L16.2563 285.702H100.518L103.769 288.952V316.845L100.518 320.095ZM19.5075 313.866H97.2665V292.473H19.5075V313.866Z" fill="#1D1D1B"/>
<path d="M100.518 299.784H17.0693V306.284H100.518V299.784Z" fill="#1D1D1B"/>
<path d="M100.517 317.116L133.572 303.034L100.517 289.223V317.116Z" fill="#FAFBFD"/>
<path d="M101.872 319.824L97.5375 316.845V288.952L101.872 285.973L134.927 299.784V305.742L101.872 319.824ZM103.769 294.097V312.241L125.444 303.034L103.769 294.097Z" fill="#1D1D1B"/>
<path d="M745.077 140.82C745.077 143.799 742.639 145.965 739.929 145.965C736.949 145.965 734.781 143.528 734.781 140.82C734.781 137.841 737.22 135.674 739.929 135.674C742.639 135.404 745.077 137.841 745.077 140.82ZM768.378 144.611V136.487H759.166C758.624 134.05 757.811 131.612 756.456 129.717L762.959 123.217L757.269 117.53L750.767 124.03C748.599 122.676 746.432 121.593 743.993 121.322V112.114H735.865V121.322C733.427 121.863 730.988 122.676 729.092 124.03L722.589 117.53L716.9 123.217L723.402 129.717C722.047 131.883 720.964 134.05 720.693 136.487H711.481V144.611H720.693C721.235 147.048 722.047 149.486 723.402 151.381L716.9 157.881L722.589 163.568L729.092 157.068C731.259 158.422 733.427 159.506 735.865 159.776V168.984H743.993V159.776C746.432 159.235 748.87 158.422 750.767 157.068L757.269 163.568L762.959 157.881L756.456 151.381C757.811 149.215 758.895 147.048 759.166 144.611H768.378Z" fill="#65B1E2"/>
<path d="M743.722 172.504H735.594L732.343 169.255V162.484C731.259 162.214 730.176 161.672 729.363 161.13L724.486 166.005H719.88L714.19 160.318V155.714L719.067 150.84C718.525 149.756 718.254 148.944 717.712 147.861H710.939L707.688 144.611V136.487L710.939 133.237H717.712C717.983 132.154 718.525 131.071 719.067 130.258L714.19 125.384V120.78L719.88 115.093H724.486L729.363 119.968C730.447 119.426 731.259 119.155 732.343 118.614V111.843L735.594 108.594H743.722L746.974 111.843V118.614C748.057 118.884 749.141 119.426 749.954 119.968L754.831 115.093H759.437L765.126 120.78V125.384L760.25 130.258C760.791 131.342 761.062 132.154 761.604 133.237H768.378L771.629 136.487V144.611L768.378 147.861H761.604C761.333 148.944 760.791 150.027 760.25 150.84L765.126 155.714V160.318L759.437 166.005H754.831L749.954 161.13C748.87 161.672 748.057 161.943 746.974 162.484V169.255L743.722 172.504ZM738.846 166.005H740.471V160.047L742.91 156.797C745.077 156.256 746.974 155.714 748.599 154.36L752.663 154.902L756.998 159.235L758.082 158.152L753.747 153.819L753.205 149.756C754.289 148.132 755.102 145.965 755.644 144.07L758.895 141.632H764.855V140.007H758.895L755.644 137.57C755.102 135.674 754.56 133.508 753.205 131.883L753.747 127.821L758.082 123.488L756.998 122.405L752.663 126.738L748.599 127.279C746.974 126.196 744.806 125.384 742.91 124.842L740.471 121.593V115.635H738.846V121.593L736.407 124.842C734.24 125.384 732.343 125.925 730.717 127.279L726.653 126.738L722.318 122.405L721.235 123.488L725.57 127.821L726.111 131.883C725.028 133.508 724.215 135.674 723.673 137.57L720.422 140.007H714.461V141.632H720.422L723.673 144.07C724.215 145.965 724.757 148.132 726.111 149.756L725.57 153.819L721.235 158.152L722.318 159.235L726.653 154.902L730.717 154.36C732.343 155.443 734.511 156.256 736.407 156.797L738.846 160.047V166.005ZM739.658 148.944C735.052 148.944 731.259 145.153 731.259 140.549C731.259 135.945 735.052 132.154 739.658 132.154C744.264 132.154 748.057 135.945 748.057 140.549C748.057 145.424 744.264 148.944 739.658 148.944ZM739.658 138.653C738.575 138.653 737.762 139.466 737.762 140.549C737.762 141.632 738.575 142.445 739.658 142.445C740.742 142.445 741.555 141.632 741.555 140.549C741.826 139.737 740.742 138.653 739.658 138.653Z" fill="#1D1D1B"/>
<path d="M482.268 486.099C482.268 489.619 479.559 492.327 476.036 492.327C472.514 492.327 469.805 489.619 469.805 486.099C469.805 482.578 472.514 479.87 476.036 479.87C479.559 479.87 482.268 482.578 482.268 486.099ZM510.716 490.973V481.224H499.608C499.066 478.245 497.711 475.537 496.086 473.1L503.943 465.246L497.17 458.476L489.312 466.33C486.874 464.705 484.165 463.622 481.184 462.809V451.706H471.431V462.809C468.45 463.351 465.741 464.705 463.302 466.33L455.445 458.476L448.672 465.246L456.529 473.1C454.903 475.537 453.82 478.245 453.007 481.224H441.898V490.973H453.007C453.549 493.952 454.903 496.66 456.529 499.097L448.672 506.951L455.445 513.721L463.302 505.868C465.741 507.492 468.45 508.576 471.431 509.388V520.491H481.184V509.388C484.165 508.846 486.874 507.492 489.312 505.868L497.17 513.721L503.943 506.951L496.086 499.097C497.711 496.66 498.795 493.952 499.608 490.973H510.716Z" fill="#F8C452"/>
<path d="M480.913 523.741H471.16L467.908 520.491V511.826C466.283 511.284 464.928 510.742 463.303 509.93L457.071 516.158H452.465L445.692 509.388V504.785L451.923 498.556C451.11 497.202 450.568 495.577 450.027 493.952H441.357L438.105 490.703V480.954L441.357 477.704H450.027C450.568 476.079 451.11 474.725 451.923 473.1L445.692 466.872V462.268L452.465 455.498H457.071L463.303 461.726C464.657 460.914 466.283 460.372 467.908 459.831V451.165L471.16 447.915H480.913L484.165 451.165V459.831C485.79 460.372 487.145 460.914 488.771 461.726L495.002 455.498H499.608L506.382 462.268V466.872L500.15 473.1C500.963 474.454 501.505 476.079 502.047 477.704H510.717L513.968 480.954V490.703L510.717 493.952H502.047C501.505 495.577 500.963 496.931 500.15 498.556L506.382 504.785V509.388L499.608 516.158H495.002L488.771 509.93C487.416 510.742 485.79 511.284 484.165 511.826V520.491L480.913 523.741ZM474.411 517.513H477.933V509.659L480.372 506.409C482.81 505.868 485.248 504.785 487.416 503.431L491.48 503.972L497.17 509.659L499.608 507.222L493.918 501.535L493.377 497.473C494.731 495.306 495.815 492.869 496.357 490.432L499.608 487.995H507.465V484.474H499.608L496.357 482.037C495.815 479.6 494.731 477.162 493.377 474.996L493.918 470.934L499.608 465.247L497.17 462.809L491.48 468.496L487.416 469.038C485.248 467.684 482.81 466.601 480.372 466.059L477.933 462.809V454.956H474.411V462.809L471.973 466.059C469.534 466.601 467.096 467.684 464.928 469.038L460.864 468.496L455.174 462.809L452.736 465.247L458.426 470.934L458.968 474.996C457.613 477.162 456.529 479.6 455.987 482.037L452.736 484.474H444.879V487.995H452.736L455.987 490.432C456.529 492.869 457.613 495.306 458.968 497.473L458.426 501.535L452.736 507.222L455.174 509.659L460.864 503.972L464.928 503.431C467.096 504.785 469.534 505.868 471.973 506.409L474.411 509.659V517.513ZM476.037 495.577C470.889 495.577 466.554 491.244 466.554 486.099C466.554 480.954 470.889 476.621 476.037 476.621C481.184 476.621 485.519 480.954 485.519 486.099C485.519 491.244 481.184 495.577 476.037 495.577ZM476.037 483.12C474.411 483.12 473.056 484.474 473.056 486.099C473.056 487.724 474.411 489.078 476.037 489.078C477.662 489.078 479.017 487.724 479.017 486.099C479.017 484.474 477.662 483.12 476.037 483.12Z" fill="#1D1D1B"/>
<path d="M427.81 450.353C427.81 455.228 423.746 459.29 418.869 459.29C413.992 459.29 409.928 455.228 409.928 450.353C409.928 445.478 413.992 441.416 418.869 441.416C423.746 441.416 427.81 445.478 427.81 450.353ZM448.13 454.415V446.291H438.647C438.106 443.854 437.022 441.416 435.667 439.25L442.441 432.48L436.48 426.522L429.707 433.292C427.539 431.938 425.372 430.855 422.662 430.313V420.835H414.534V430.313C412.096 430.855 409.657 431.938 407.49 433.292L400.716 426.522L394.756 432.48L401.529 439.25C400.174 441.416 399.091 443.583 398.549 446.291H389.066V454.415H398.549C399.091 456.852 400.174 459.29 401.529 461.456L394.756 468.226L400.716 474.184L407.49 467.414C409.657 468.768 411.825 469.851 414.534 470.393V479.871H422.662V470.393C425.101 469.851 427.539 468.768 429.707 467.414L436.48 474.184L442.441 468.226L435.667 461.456C437.022 459.29 438.106 457.123 438.647 454.415H448.13Z" fill="#65B1E2"/>
<path d="M418.869 453.332C420.515 453.332 421.849 451.998 421.849 450.353C421.849 448.708 420.515 447.374 418.869 447.374C417.223 447.374 415.889 448.708 415.889 450.353C415.889 451.998 417.223 453.332 418.869 453.332Z" fill="#1D1D1B"/>
<path d="M596.333 865.501H455.175V872H596.333V865.501Z" fill="#1D1D1B"/>
<path d="M573.845 841.67H510.717V848.169H573.845V841.67Z" fill="#1D1D1B"/>
<path d="M435.938 688.935H341.652V695.434H435.938V688.935Z" fill="#1D1D1B"/>
<path d="M633.18 865.501H609.338V872H633.18V865.501Z" fill="#1D1D1B"/>
<path d="M660.816 865.501H644.018V872H660.816V865.501Z" fill="#1D1D1B"/>
<path d="M485.519 839.503H468.721V846.002H485.519V839.503Z" fill="#1D1D1B"/>
<path d="M217.563 549.739H200.764V556.239H217.563V549.739Z" fill="#1D1D1B"/>
<path d="M906.285 609.588H843.699V616.087H906.285V609.588Z" fill="#1D1D1B"/>
<path d="M933.65 609.588H914.142V616.087H933.65V609.588Z" fill="#1D1D1B"/>
<path d="M950.491 333.586L887.905 333.158L887.861 339.657L950.447 340.085L950.491 333.586Z" fill="#1D1D1B"/>
<path d="M978.129 333.711L958.621 333.577L958.576 340.076L978.084 340.21L978.129 333.711Z" fill="#1D1D1B"/>
<path d="M1032 634.502H969.414V641.001H1032V634.502Z" fill="#1D1D1B"/>
<path d="M922.541 586.027H875.127V592.527H922.541V586.027Z" fill="#1D1D1B"/>
<path d="M756.186 79.6172H712.565V86.1166H756.186V79.6172Z" fill="#1D1D1B"/>
<path d="M794.659 79.6172H764.043V86.1166H794.659V79.6172Z" fill="#1D1D1B"/>
<path d="M204.558 780.196H102.685V786.696H204.558V780.196Z" fill="#1D1D1B"/>
<path d="M93.4734 780.196H76.1334V786.696H93.4734V780.196Z" fill="#1D1D1B"/>
<path d="M68.2759 780.196H56.0837V786.696H68.2759V780.196Z" fill="#1D1D1B"/>
<path d="M197.784 512.639H125.173V519.138H197.784V512.639Z" fill="#1D1D1B"/>
<path d="M118.942 512.639H106.479V519.138H118.942V512.639Z" fill="#1D1D1B"/>
<path d="M100.789 512.639H92.1185V519.138H100.789V512.639Z" fill="#1D1D1B"/>
<path d="M520.742 210.418C525.38 210.418 529.141 206.659 529.141 202.023C529.141 197.387 525.38 193.628 520.742 193.628C516.103 193.628 512.343 197.387 512.343 202.023C512.343 206.659 516.103 210.418 520.742 210.418Z" fill="#FAFBFD"/>
<path d="M520.742 213.667C514.239 213.667 509.091 208.522 509.091 202.023C509.091 195.523 514.239 190.378 520.742 190.378C527.244 190.378 532.392 195.523 532.392 202.023C532.121 208.251 526.973 213.667 520.742 213.667ZM520.742 196.877C517.761 196.877 515.594 199.315 515.594 202.023C515.594 205.002 518.032 207.168 520.742 207.168C523.722 207.168 525.89 204.731 525.89 202.023C525.89 199.044 523.451 196.877 520.742 196.877Z" fill="#1D1D1B"/>
<path d="M672.466 46.3086C677.105 46.3086 680.865 42.55 680.865 37.9136C680.865 33.2771 677.105 29.5186 672.466 29.5186C667.827 29.5186 664.067 33.2771 664.067 37.9136C664.067 42.55 667.827 46.3086 672.466 46.3086Z" fill="#FAFBFD"/>
<path d="M672.466 49.558C665.964 49.558 660.816 44.4127 660.816 37.9133C660.816 31.4139 665.964 26.2686 672.466 26.2686C678.969 26.2686 684.117 31.4139 684.117 37.9133C684.117 44.4127 678.969 49.558 672.466 49.558ZM672.466 32.7679C669.486 32.7679 667.318 35.2052 667.318 37.9133C667.318 40.6214 669.757 43.0586 672.466 43.0586C675.447 43.0586 677.614 40.6214 677.614 37.9133C677.614 35.2052 675.447 32.7679 672.466 32.7679Z" fill="#1D1D1B"/>
<path d="M961.556 234.52C966.195 234.52 969.955 230.761 969.955 226.125C969.955 221.488 966.195 217.729 961.556 217.729C956.918 217.729 953.157 221.488 953.157 226.125C953.157 230.761 956.918 234.52 961.556 234.52Z" fill="#FAFBFD"/>
<path d="M961.556 237.769C955.054 237.769 949.906 232.624 949.906 226.124C949.906 219.625 955.054 214.479 961.556 214.479C968.059 214.479 973.207 219.625 973.207 226.124C973.207 232.624 968.059 237.769 961.556 237.769ZM961.556 220.979C958.576 220.979 956.408 223.416 956.408 226.124C956.408 229.103 958.847 231.27 961.556 231.27C964.537 231.27 966.704 228.832 966.704 226.124C966.704 223.145 964.537 220.979 961.556 220.979Z" fill="#1D1D1B"/>
<path d="M868.083 397.546C872.721 397.546 876.482 393.788 876.482 389.151C876.482 384.515 872.721 380.756 868.083 380.756C863.444 380.756 859.684 384.515 859.684 389.151C859.684 393.788 863.444 397.546 868.083 397.546Z" fill="#FAFBFD"/>
<path d="M868.083 400.796C861.58 400.796 856.432 395.65 856.432 389.151C856.432 382.651 861.58 377.506 868.083 377.506C874.585 377.506 879.733 382.651 879.733 389.151C879.462 395.379 874.314 400.796 868.083 400.796ZM868.083 384.005C865.102 384.005 862.935 386.443 862.935 389.151C862.935 391.859 865.373 394.296 868.083 394.296C871.063 394.296 873.231 391.859 873.231 389.151C873.231 386.443 870.792 384.005 868.083 384.005Z" fill="#1D1D1B"/>
<path d="M626.407 578.986C631.046 578.986 634.806 575.228 634.806 570.591C634.806 565.955 631.046 562.196 626.407 562.196C621.768 562.196 618.008 565.955 618.008 570.591C618.008 575.228 621.768 578.986 626.407 578.986Z" fill="#FAFBFD"/>
<path d="M626.407 582.236C619.905 582.236 614.757 577.09 614.757 570.591C614.757 564.092 619.905 558.946 626.407 558.946C632.91 558.946 638.057 564.092 638.057 570.591C638.057 577.09 632.639 582.236 626.407 582.236ZM626.407 565.446C623.427 565.446 621.259 567.883 621.259 570.591C621.259 573.57 623.698 575.736 626.407 575.736C629.387 575.736 631.555 573.299 631.555 570.591C631.555 567.612 629.116 565.446 626.407 565.446Z" fill="#1D1D1B"/>
<path d="M257.119 373.985C261.758 373.985 265.518 370.227 265.518 365.59C265.518 360.954 261.758 357.195 257.119 357.195C252.481 357.195 248.72 360.954 248.72 365.59C248.72 370.227 252.481 373.985 257.119 373.985Z" fill="#FAFBFD"/>
<path d="M257.119 377.235C250.617 377.235 245.469 372.089 245.469 365.59C245.469 359.091 250.617 353.945 257.119 353.945C263.622 353.945 268.77 359.091 268.77 365.59C268.499 372.089 263.351 377.235 257.119 377.235ZM257.119 360.445C254.139 360.445 251.971 362.882 251.971 365.59C251.971 368.569 254.41 370.735 257.119 370.735C260.1 370.735 262.267 368.298 262.267 365.59C262.267 362.882 259.829 360.445 257.119 360.445Z" fill="#1D1D1B"/>
</g>
<defs>
<clipPath id="clip0">
<rect width="1032" height="872" fill="white"/>
</clipPath>
</defs>
</svg>
