<svg width="196" height="203" viewBox="0 0 196 203" fill="none" xmlns="http://www.w3.org/2000/svg">
<g clip-path="url(#clip0)">
<path d="M94.6445 112.885V82.2983L95.6496 77.0628V64.5711L94.6445 60.6675V27.8308L91.4005 23.2383V20.0694L94.2332 13.5021L91.0807 3.90366L75.5009 0L65.495 3.21478L50.1436 15.6146L47.9048 25.3508L40.9602 32.01L41.0515 40.9655L32.2793 50.7935L31.0914 73.0673L35.3861 76.5577L31 82.8035L33.6043 97.1323L42.8334 105.169L43.5187 113.252L57.3167 126.57H65.6321L73.3535 132.954L91.2178 132.908L96.7004 122.345L94.6445 112.885ZM74.1759 128.545L68.6932 123.999L78.6534 117.615L74.1759 128.545ZM40.0464 75.1799L56.6314 57.6364L50.8289 83.2169L40.1834 76.5117L40.0464 75.1799ZM44.0213 43.6291L55.5806 53.8246L37.2594 51.2068L44.0213 43.6291ZM45.0721 42.4351L44.9808 35.087L69.8811 50.7476L59.1443 53.8705L58.0021 53.9164L45.0721 42.4351ZM76.0948 4.27106L76.3233 4.31699L87.6541 18.7376L87.4256 19.2887V23.5597L70.6122 27.4175L76.0948 4.27106ZM90.6695 29.1167V60.7593L72.1656 66.5L72.5768 51.2068L88.7049 26.3612L90.6695 29.1167ZM91.6747 65.1222V76.6954L91.035 80.048L73.1707 67.8778L90.9437 62.3667L91.6747 65.1222ZM83.5878 116.054L90.898 114.354L91.9945 119.59L83.5878 116.054ZM59.6925 55.3401L70.9777 52.0335L70.6122 65.7652L60.4236 56.1209H60.6063L59.6925 55.3401ZM71.9828 69.0259L90.7152 81.7932L90.6695 81.9309L69.4699 88.4983L71.9828 69.0259ZM87.6541 25.1212L72.3483 48.635L70.3837 29.1167L87.6541 25.1212ZM58.5503 56.5342L70.5208 67.9237L67.8708 88.5901L52.3367 83.9517L58.5503 56.5342ZM90.6695 83.5843V112.747L81.0749 114.997L80.9835 114.951L69.6527 90.1057L90.6695 83.5843ZM89.9842 13.3643L88.3851 17.0843L78.8818 5.00587L87.9739 7.34807L89.9842 13.3643ZM67.4139 6.79696L74.4043 4.54662L68.9217 27.6012L51.8341 25.8101L53.6616 17.865L67.4139 6.79696ZM51.5143 27.4175L68.8303 29.2086L70.8406 49.4157L45.3006 33.3419L51.5143 27.4175ZM35.1577 71.2303L36.1628 52.6764L56.4486 55.5698L38.8128 74.1695L35.1577 71.2303ZM37.2594 95.0656L35.2034 83.722L39.2697 77.8436L50.4177 84.8242L44.7523 101.587L37.2594 95.0656ZM46.6256 103.24L46.0316 102.735L51.1031 87.7635L56.54 120.371L47.3109 111.461L46.6256 103.24ZM58.8701 122.621L58.5046 122.253L52.428 85.6509L68.0079 90.2894L79.3844 115.273L67.4596 122.942L67.0484 122.621H58.8701ZM88.7963 128.959L75.7293 129.004L80.7551 116.696L80.8464 116.651L92.36 121.978L88.7963 128.959Z" fill="url(#paint0_linear)"/>
<path d="M159.66 76.5117L163.955 73.0214L162.767 50.7476L153.949 40.9195L154.04 31.9641L147.096 25.3049L144.857 15.6146L129.506 3.21478L119.5 0L103.92 3.99551L100.767 13.5939L103.6 20.1613V23.3301L100.356 27.9226V59.6571H97.5691H97.5234V62.4586H97.5691H99.9449L99.351 64.7089V77.2006L100.356 82.4361V113.022L98.3458 122.529L103.828 133.092L121.693 133.138L129.414 126.754H137.73L151.528 113.436L152.213 105.353L161.442 97.3159L164.046 82.9872L159.66 76.5117ZM156.188 74.1695L138.552 55.5697L158.838 52.6764L159.843 71.2303L156.188 74.1695ZM154.817 76.5577L144.172 83.2628L138.369 57.6823L154.954 75.2258L154.817 76.5577ZM116.347 117.615L126.307 123.999L120.825 128.545L116.347 117.615ZM103.326 76.6954V65.1222L104.057 62.3208L121.83 67.8318L103.966 80.0021L103.326 76.6954ZM106.296 26.4071L122.424 51.2528L122.835 66.5459L104.331 60.8052V29.1167L106.296 26.4071ZM107.392 18.7376L118.723 4.31699L118.951 4.27106L124.434 27.4175L107.621 23.5597V19.2887L107.392 18.7376ZM150.979 43.6291L157.787 51.2068L139.466 53.8246L150.979 43.6291ZM149.974 42.4351L136.999 53.9164L135.856 53.8705L125.119 50.7476L150.02 35.087L149.974 42.4351ZM104.331 81.9309L104.285 81.7932L123.018 69.0259L125.531 88.4983L104.331 81.9309ZM124.388 65.8111L124.023 52.0794L135.308 55.386L134.394 56.2127H134.577L124.388 65.8111ZM122.652 48.635L107.347 25.1212L124.571 29.1167L122.652 48.635ZM104.103 114.354L111.413 116.054L103.006 119.59L104.103 114.354ZM114.063 114.951L113.971 114.997L104.377 112.747V83.5842L125.394 90.1057L114.063 114.951ZM127.13 88.5901L124.48 67.9237L136.45 56.5342L142.664 83.9516L127.13 88.5901ZM149.7 33.3878L124.16 49.4617L126.17 29.2545L143.486 27.4175V27.4634L149.7 33.3878ZM141.293 17.865L143.121 25.8101L126.033 27.6012L120.551 4.54662L127.495 6.79696L141.293 17.865ZM107.027 7.34807L116.119 5.00587L106.615 17.0843L105.016 13.3643L107.027 7.34807ZM102.595 121.978L114.108 116.651L114.2 116.696L119.226 129.004L106.159 128.959L102.595 121.978ZM127.998 122.575L127.587 122.896L115.662 115.273L127.038 90.2894L142.618 85.6509L136.542 122.253L136.176 122.621L127.998 122.575ZM147.69 111.461L138.461 120.37L143.898 87.7635L148.969 102.735L148.375 103.24L147.69 111.461ZM157.741 95.0656L150.248 101.633L144.583 84.8702L155.731 77.8895L159.797 83.7679L157.741 95.0656Z" fill="url(#paint1_linear)"/>
<path d="M123.656 52.9981C125.069 52.9981 126.215 51.8467 126.215 50.4263C126.215 49.0059 125.069 47.8545 123.656 47.8545C122.243 47.8545 121.098 49.0059 121.098 50.4263C121.098 51.8467 122.243 52.9981 123.656 52.9981Z" fill="#7D4BC6"/>
<path d="M102.365 63.5616C103.778 63.5616 104.924 62.4102 104.924 60.9898C104.924 59.5694 103.778 58.418 102.365 58.418C100.952 58.418 99.8066 59.5694 99.8066 60.9898C99.8066 62.4102 100.952 63.5616 102.365 63.5616Z" fill="#B7249F"/>
<path d="M125.758 31.046C127.171 31.046 128.316 29.8945 128.316 28.4742C128.316 27.0538 127.171 25.9023 125.758 25.9023C124.345 25.9023 123.199 27.0538 123.199 28.4742C123.199 29.8945 124.345 31.046 125.758 31.046Z" fill="#5E5FDB"/>
<path d="M137.637 57.5909C139.05 57.5909 140.195 56.4395 140.195 55.0191C140.195 53.5987 139.05 52.4473 137.637 52.4473C136.224 52.4473 135.078 53.5987 135.078 55.0191C135.078 56.4395 136.224 57.5909 137.637 57.5909Z" fill="#615DD8"/>
<path d="M143.623 87.0753C145.036 87.0753 146.182 85.9238 146.182 84.5035C146.182 83.0831 145.036 81.9316 143.623 81.9316C142.21 81.9316 141.064 83.0831 141.064 84.5035C141.064 85.9238 142.21 87.0753 143.623 87.0753Z" fill="#8247C3"/>
<path d="M126.488 92.1729C127.901 92.1729 129.047 91.0215 129.047 89.6011C129.047 88.1807 127.901 87.0293 126.488 87.0293C125.075 87.0293 123.93 88.1807 123.93 89.6011C123.93 91.0215 125.075 92.1729 126.488 92.1729Z" fill="#AC2BA7"/>
<path d="M123.428 70.1739C124.841 70.1739 125.986 69.0225 125.986 67.6021C125.986 66.1817 124.841 65.0303 123.428 65.0303C122.015 65.0303 120.869 66.1817 120.869 67.6021C120.869 69.0225 122.015 70.1739 123.428 70.1739Z" fill="#943BB7"/>
<path d="M114.656 118.258C116.069 118.258 117.215 117.106 117.215 115.686C117.215 114.266 116.069 113.114 114.656 113.114C113.243 113.114 112.098 114.266 112.098 115.686C112.098 117.106 113.243 118.258 114.656 118.258Z" fill="#D6108B"/>
<path d="M71.3886 52.9981C72.8017 52.9981 73.9472 51.8467 73.9472 50.4263C73.9472 49.0059 72.8017 47.8545 71.3886 47.8545C69.9756 47.8545 68.8301 49.0059 68.8301 50.4263C68.8301 51.8467 69.9756 52.9981 71.3886 52.9981Z" fill="#28BAFE"/>
<path d="M92.6797 63.5606C94.0927 63.5606 95.2382 62.4092 95.2382 60.9888C95.2382 59.5684 94.0927 58.417 92.6797 58.417C91.2666 58.417 90.1211 59.5684 90.1211 60.9888C90.1211 62.4092 91.2666 63.5606 92.6797 63.5606Z" fill="#28A9FE"/>
<path d="M69.2422 31.046C70.6552 31.046 71.8007 29.8945 71.8007 28.4742C71.8007 27.0538 70.6552 25.9023 69.2422 25.9023C67.8291 25.9023 66.6836 27.0538 66.6836 28.4742C66.6836 29.8945 67.8291 31.046 69.2422 31.046Z" fill="#28C7FE"/>
<path d="M57.3633 57.59C58.7763 57.59 59.9218 56.4385 59.9218 55.0181C59.9218 53.5977 58.7763 52.4463 57.3633 52.4463C55.9502 52.4463 54.8047 53.5977 54.8047 55.0181C54.8047 56.4385 55.9502 57.59 57.3633 57.59Z" fill="#28BEFE"/>
<path d="M51.4238 87.0743C52.8369 87.0743 53.9824 85.9229 53.9824 84.5025C53.9824 83.0821 52.8369 81.9307 51.4238 81.9307C50.0107 81.9307 48.8652 83.0821 48.8652 84.5025C48.8652 85.9229 50.0107 87.0743 51.4238 87.0743Z" fill="#28B0FE"/>
<path d="M68.5566 92.172C69.9697 92.172 71.1152 91.0205 71.1152 89.6001C71.1152 88.1798 69.9697 87.0283 68.5566 87.0283C67.1436 87.0283 65.998 88.1798 65.998 89.6001C65.998 91.0205 67.1436 92.172 68.5566 92.172Z" fill="#28A6FE"/>
<path d="M71.5722 70.1739C72.9853 70.1739 74.1308 69.0225 74.1308 67.6021C74.1308 66.1817 72.9853 65.0303 71.5722 65.0303C70.1592 65.0303 69.0137 66.1817 69.0137 67.6021C69.0137 69.0225 70.1592 70.1739 71.5722 70.1739Z" fill="#28B1FE"/>
<path d="M80.3887 118.258C81.8017 118.258 82.9472 117.106 82.9472 115.686C82.9472 114.266 81.8017 113.114 80.3887 113.114C78.9756 113.114 77.8301 114.266 77.8301 115.686C77.8301 117.106 78.9756 118.258 80.3887 118.258Z" fill="#28A0FE"/>
<path d="M97.5677 59.5654H94.2324V62.3669H97.5677V59.5654Z" fill="#28A9FE"/>
</g>
<path d="M14.544 188.576C23.184 188.576 27.36 184.16 27.36 178.304C27.36 166.352 8.976 169.76 8.976 164.672C8.976 162.752 10.608 161.456 13.536 161.456C16.8 161.456 20.256 162.56 22.848 164.96L26.64 159.968C23.472 157.04 19.248 155.504 14.16 155.504C6.624 155.504 2.016 159.92 2.016 165.248C2.016 177.296 20.448 173.408 20.448 179.072C20.448 180.896 18.624 182.624 14.88 182.624C10.464 182.624 6.96 180.656 4.704 178.304L1.008 183.488C3.984 186.512 8.4 188.576 14.544 188.576ZM53.5493 188V164.816H47.4533V180.512C46.3973 181.856 44.5253 183.152 42.1733 183.152C39.5813 183.152 37.9013 182.096 37.9013 178.88V164.816H31.8053V181.28C31.8053 185.792 34.2053 188.576 39.2933 188.576C43.0853 188.576 45.8693 186.848 47.4533 185.072V188H53.5493ZM72.8501 188.576C78.8021 188.576 83.1221 184.112 83.1221 176.384C83.1221 168.656 78.8021 164.24 72.8501 164.24C70.0181 164.24 67.4741 165.488 65.6981 167.744V164.816H59.6021V196.832H65.6981V185.024C67.5701 187.424 70.1141 188.576 72.8501 188.576ZM70.9301 183.152C68.9621 183.152 66.7061 181.952 65.6981 180.512V172.304C66.7061 170.816 68.9621 169.664 70.9301 169.664C74.4341 169.664 76.7861 172.4 76.7861 176.384C76.7861 180.416 74.4341 183.152 70.9301 183.152ZM98.4825 188.576C102.083 188.576 105.731 187.472 108.035 185.36L105.347 181.424C103.859 182.864 101.123 183.728 99.1545 183.728C95.2185 183.728 92.8665 181.28 92.4825 178.352H109.715V177.008C109.715 169.424 105.011 164.24 98.0985 164.24C91.0425 164.24 86.0985 169.664 86.0985 176.384C86.0985 183.824 91.4265 188.576 98.4825 188.576ZM103.811 174.224H92.3865C92.6745 171.92 94.3065 169.088 98.0985 169.088C102.131 169.088 103.667 172.016 103.811 174.224ZM120.214 188V172.688C121.222 171.2 123.91 170.048 125.926 170.048C126.598 170.048 127.174 170.096 127.606 170.192V164.24C124.726 164.24 121.846 165.92 120.214 167.984V164.816H114.118V188H120.214ZM166.263 188V155.984H156.663L148.887 175.328L141.111 155.984H131.559V188H138.375V165.584L147.399 188H150.375L159.399 165.584V188H166.263ZM183.373 188.576C186.973 188.576 190.621 187.472 192.925 185.36L190.237 181.424C188.749 182.864 186.013 183.728 184.045 183.728C180.109 183.728 177.757 181.28 177.373 178.352H194.605V177.008C194.605 169.424 189.901 164.24 182.989 164.24C175.933 164.24 170.989 169.664 170.989 176.384C170.989 183.824 176.317 188.576 183.373 188.576ZM188.701 174.224H177.277C177.565 171.92 179.197 169.088 182.989 169.088C187.021 169.088 188.557 172.016 188.701 174.224Z" fill="url(#paint2_linear)"/>
<defs>
<linearGradient id="paint0_linear" x1="38.8608" y1="20.7967" x2="86.9473" y2="84.183" gradientUnits="userSpaceOnUse">
<stop stop-color="#28D6FE"/>
<stop offset="0.9964" stop-color="#28A0FE"/>
</linearGradient>
<linearGradient id="paint1_linear" x1="100.978" y1="77.9767" x2="160.492" y2="40.3918" gradientUnits="userSpaceOnUse">
<stop offset="0.00356509" stop-color="#D6108B"/>
<stop offset="0.3831" stop-color="#923CB8"/>
<stop offset="1" stop-color="#2882FE"/>
</linearGradient>
<linearGradient id="paint2_linear" x1="5.96522" y1="160.014" x2="195.952" y2="180.687" gradientUnits="userSpaceOnUse">
<stop stop-color="#D6108B"/>
<stop offset="1" stop-color="#327BF7"/>
</linearGradient>
<clipPath id="clip0">
<rect width="133" height="133" fill="white" transform="translate(31)"/>
</clipPath>
</defs>
</svg>
