<svg width="16" height="16" viewBox="0 0 16 16" fill="none" xmlns="http://www.w3.org/2000/svg">
<circle cx="8" cy="8" r="7.75" stroke="#343434" stroke-width="0.5"/>
<path d="M7.08631 10.1688C7.09618 9.63528 7.16276 9.21385 7.28607 8.90451C7.40937 8.59516 7.66091 8.25219 8.04069 7.87559L9.00986 6.96772C9.42417 6.54181 9.63132 6.08451 9.63132 5.59583C9.63132 5.12508 9.49568 4.75745 9.22441 4.49294C8.95314 4.22394 8.55857 4.08944 8.04069 4.08944C7.53761 4.08944 7.13317 4.21049 6.82737 4.45259C6.52158 4.69469 6.36868 5.01973 6.36868 5.42771H5C5.00986 4.70141 5.29346 4.11634 5.8508 3.67249C6.41307 3.22416 7.14303 3 8.04069 3C8.97287 3 9.6979 3.22865 10.2158 3.68594C10.7386 4.13876 11 4.76194 11 5.55548C11 6.34006 10.6005 7.11343 9.80148 7.87559L8.99507 8.60188C8.63502 8.96503 8.45499 9.48733 8.45499 10.1688H7.08631ZM7.02713 12.3006C7.02713 12.0989 7.09371 11.9307 7.22688 11.7962C7.36498 11.6573 7.5672 11.5878 7.83354 11.5878C8.09988 11.5878 8.3021 11.6573 8.4402 11.7962C8.5783 11.9307 8.64735 12.0989 8.64735 12.3006C8.64735 12.5024 8.5783 12.6705 8.4402 12.805C8.3021 12.935 8.09988 13 7.83354 13C7.5672 13 7.36498 12.935 7.22688 12.805C7.09371 12.6705 7.02713 12.5024 7.02713 12.3006Z" fill="#343434"/>
</svg>
