<svg width="129" height="200" viewBox="0 0 129 200" fill="none" xmlns="http://www.w3.org/2000/svg">
<path fill-rule="evenodd" clip-rule="evenodd" d="M88.5301 180.377C89.1563 183.508 96.8804 184.343 99.5943 184.343C101.891 184.343 103.143 184.761 103.77 186.848C105.372 193.459 98.7083 195.264 92.0797 197.059C91.8009 197.135 91.5221 197.21 91.2439 197.286C84.3549 199.165 73.0818 199.791 64.1051 200C55.1285 199.791 43.8554 199.165 36.9663 197.286C36.6882 197.21 36.4094 197.135 36.1305 197.059C29.5019 195.264 22.8381 193.459 24.4408 186.848C25.067 184.969 26.1108 184.343 28.4072 184.343C31.1211 184.134 38.8452 183.299 39.4715 180.377C39.868 178.394 42.5237 177.918 44.7568 177.517C44.8752 177.496 44.9924 177.475 45.108 177.454C52.4146 175.993 55.9635 170.148 56.7985 162.632C57.6336 154.908 52.4146 146.975 46.5693 140.504C30.9123 123.177 1.89468 87.0616 0.0158446 44.8924C-0.192915 42.5961 1.68592 40.5085 4.19104 40.5085H14.8378C19.2402 40.5085 23.0695 43.5888 26.2418 46.1406C28.485 47.945 30.3996 49.4851 31.9561 49.4851H96.0454C97.6019 49.4851 99.5165 47.945 101.76 46.1406C104.932 43.5888 108.761 40.5085 113.164 40.5085H123.81C126.316 40.5085 128.194 42.3873 127.986 44.8924C125.898 87.2704 97.0892 123.386 81.4322 140.504C75.5869 146.767 70.3679 154.699 71.203 162.632C71.8293 170.148 75.5869 175.993 82.8935 177.454C83.0091 177.475 83.1263 177.496 83.2447 177.517C85.4778 177.918 88.1336 178.394 88.5301 180.377ZM119.427 49.2763C112.537 49.2763 104.396 59.088 102.099 69.5259C97.1281 91.1202 91.8098 107.165 89.5002 114.133C88.7063 116.528 88.2679 117.851 88.3213 117.958C100.221 105.641 117.548 69.9434 119.427 49.2763ZM25.9021 69.5259C23.397 59.088 15.2553 49.2763 8.575 49.2763C10.4538 69.9434 27.7809 105.641 39.889 117.958C39.889 117.888 39.6815 117.295 39.3045 116.22C37.4442 110.912 31.4566 93.827 25.9021 69.5259ZM38.0101 41.761H89.9914L100.221 10.2385C100.429 9.82098 100.012 9.61223 99.5943 9.82098L78.5096 26.7304L64.5227 0.218092C64.3139 0.0093338 63.8964 0.0093338 63.6876 0.218092L49.7007 26.7304L28.616 9.82098C28.4072 9.61223 27.7809 9.82098 27.9897 10.2385L38.0101 41.761ZM73.987 59.9343V126.528H60.6071V75.1101L48.1421 86.3922L40.3657 79.3035L62.3225 59.9343H73.987Z" fill="#F36666"/>
</svg>
