<svg width="152" height="192" viewBox="0 0 152 192" fill="none" xmlns="http://www.w3.org/2000/svg">
<path fill-rule="evenodd" clip-rule="evenodd" d="M99.4524 125.065C102.979 118.98 108.269 116.117 114.97 115.759C122.023 115.759 125.197 112.18 125.55 105.021C125.55 97.8619 128.724 92.8508 134.367 89.2714C140.362 85.692 141.42 81.0388 138.246 74.5959C134.719 68.5109 134.719 62.4259 138.246 56.341C141.773 50.256 140.362 45.2448 134.367 41.6654C128.371 38.086 125.55 32.7169 125.55 25.9161C125.55 19.1152 122.023 15.5359 114.97 15.1779C107.916 15.1779 102.979 11.9565 99.4524 5.87149C95.9258 -0.213478 91.3411 -1.2873 85.3457 1.93416C79.3504 5.51355 73.355 5.51355 67.3596 1.93416C61.3643 -1.64524 56.4269 -0.213478 52.9002 5.87149C49.3736 11.9565 44.0835 14.82 37.3828 15.1779C30.6821 15.1779 27.1555 18.7573 26.8028 25.9161C26.8028 33.0749 23.6288 38.086 17.6334 41.6654C11.6381 45.2448 10.2274 49.898 13.7541 56.341C17.2807 62.4259 17.2807 68.5109 13.7541 74.5959C10.2274 80.6808 11.6381 85.692 17.6334 89.2714C23.6288 92.8508 26.4501 98.2199 26.8028 105.021C26.8028 112.18 30.3295 115.759 37.3828 115.759C44.4362 115.759 49.3736 118.98 52.9002 125.065C56.4269 131.15 61.0116 132.224 67.007 129.003C73.0023 125.781 78.9977 125.781 84.993 129.003C90.9884 132.224 95.9258 130.792 99.4524 125.065ZM76.1763 108.958C52.5476 108.958 33.5035 89.6293 33.5035 65.6474C33.5035 41.6654 52.5476 22.3367 76.1763 22.3367C99.8051 22.3367 118.849 41.6654 118.849 65.6474C118.849 89.6293 99.8051 108.958 76.1763 108.958ZM36.6775 121.486C29.2715 121.486 28.5661 117.907 28.5661 117.907L0 174.461L22.5708 171.955L35.2668 191.284C35.2668 191.284 61.3643 135.804 61.3643 136.161C47.9629 135.804 53.2529 121.844 36.6775 121.486ZM123.434 120.054C102.626 122.202 106.858 127.571 102.274 131.508C96.9838 137.235 89.9304 136.161 89.9304 136.161L122.023 192L129.782 171.24L152 174.103L123.434 120.054Z" fill="#4FA3E1"/>
<path d="M76.0477 98.4004C90.7435 98.4004 100 90.8764 100 80.3801C100 70.8126 91.4115 65.8895 85.2087 65.3322C91.7932 64.2175 99.0457 59.3873 99.0457 51.1203C99.0457 40.7168 89.7893 34.4004 76.0477 34.4004C65.4553 34.4004 57.7256 38.5804 52.8588 44.1537L58.5845 50.9345C63.165 46.4759 68.5089 44.0608 74.998 44.0608C82.1551 44.0608 87.8807 47.0332 87.8807 52.7923C87.8807 58.4584 82.2505 60.9664 74.8072 60.9664C72.326 60.9664 68.6044 60.9664 67.4592 60.8735V70.6268C68.4135 70.5339 72.1352 70.5339 74.8072 70.5339C83.8728 70.5339 88.9304 73.1348 88.9304 79.2654C88.9304 85.0245 84.0636 88.74 75.666 88.74C68.8907 88.74 62.1153 85.8605 58.0119 81.2161L52 88.3685C56.2942 93.9418 64.6918 98.4004 76.0477 98.4004Z" fill="#4FA3E1"/>
</svg>
