<svg width="193" height="178" viewBox="0 0 193 178" fill="none" xmlns="http://www.w3.org/2000/svg">
<path d="M144.644 123.918H59.9111V174.514H144.644V123.918Z" fill="#FFD84C"/>
<path d="M47.1097 145.863H13.5823V174.514H47.1097V145.863Z" fill="#FFD84C"/>
<path d="M192.192 160.798H152.188V176.8H192.192V160.798Z" fill="#FFD84C"/>
<path d="M87.3425 111.726C94.6576 107.459 99.5343 101.363 101.973 93.4386L102.582 95.8769C105.021 103.192 110.507 106.85 115.993 111.726C111.117 112.336 105.021 111.726 100.144 111.726C97.0959 111.726 94.048 111.726 91 111.726C90.3904 111.726 87.9521 111.726 87.3425 111.726ZM96.4863 78.1988V73.9317L92.2192 72.7125C90.3904 72.1029 89.1713 71.4933 87.3425 70.8837L90.3904 67.2262C82.4658 56.2536 76.9795 36.7467 76.3699 14.8015H127.575C126.966 32.4796 123.918 51.9864 113.555 67.2262C114.774 68.4454 115.384 69.6645 116.603 70.8837C115.384 71.4933 113.555 72.1029 112.336 72.1029C111.117 72.7125 109.897 72.7125 108.678 73.3221C108.069 73.9317 106.849 78.1988 107.459 78.1988H96.4863Z" fill="#FFD84C"/>
<path d="M144.644 112.336H47.7194V175.123H144.644V112.336Z" stroke="#656565" stroke-width="4" stroke-miterlimit="10"/>
<path d="M47.7193 134.281H2V175.124H47.7193V134.281Z" stroke="#656565" stroke-width="4" stroke-miterlimit="10"/>
<path d="M190.363 151.959H144.644V174.514H190.363V151.959Z" stroke="#656565" stroke-width="4" stroke-miterlimit="10"/>
<path d="M96.4862 112.336H132.452V105.021H125.137V101.973H116.603C107.459 97.7056 101.363 89.1714 100.753 78.1988H107.459V72.7124C117.212 69.6645 130.014 61.7398 139.158 51.3768C148.301 40.4042 151.349 25.1644 146.473 13.5822C143.425 6.26713 137.329 2 130.623 2C129.404 2 128.185 2 126.356 2.60959H96.4862H66.6163C65.3971 2.60959 64.178 2 62.3492 2C55.0341 2.60959 49.5478 6.26713 45.8903 13.5822C41.0135 25.1644 44.0615 41.0138 53.2053 51.3768C61.7396 61.7398 74.541 69.6645 84.904 72.7124V78.1988H91.6095C91.6095 88.5618 84.904 97.7056 75.7602 101.973H67.2259V105.021H59.9108V112.336H96.4862ZM57.4725 47.7193C48.9382 37.3562 47.719 23.9452 51.3766 16.0206C52.5957 12.9726 55.6437 8.0959 62.3492 8.0959C62.9588 8.0959 63.5684 8.0959 64.178 8.0959C64.7875 31.8699 70.8834 53.2056 79.4177 64.7878C72.1026 61.1302 64.178 55.6439 57.4725 47.7193ZM112.945 64.7878C121.479 53.2056 127.575 32.4795 128.185 8.0959C128.794 8.0959 129.404 8.0959 130.014 8.0959C136.719 8.0959 139.767 12.9726 140.986 16.0206C144.644 23.9452 143.425 37.3562 134.89 47.7193C128.794 55.6439 120.26 61.1302 112.945 64.7878Z" stroke="#656565" stroke-width="4" stroke-miterlimit="10"/>
<path d="M94.6579 170.857V140.377L87.9524 147.692L83.0757 142.206L96.4867 128.795H103.802V170.857H94.6579Z" fill="#F3F3F3"/>
<path d="M91.0003 167.199V136.719L84.2948 144.034L79.4181 138.548L92.8291 125.137H100.754V167.199H91.0003Z" fill="#656565"/>
</svg>
