<svg width="16" height="16" viewBox="0 0 16 16" fill="none" xmlns="http://www.w3.org/2000/svg">
<path d="M3 0H9V1C9 1.55228 8.55228 2 8 2H4C3.44772 2 3 1.55228 3 1V0Z" fill="#92FFFF"/>
<path d="M2 5C2 4.44772 2.44772 4 3 4H9C9.55228 4 10 3.55228 10 3V1.25417C10 1.11379 10.1138 1 10.2542 1C10.3912 1 10.5036 1.1087 10.5082 1.2457L10.9656 14.9667C10.9844 15.5317 10.5315 16 9.96611 16H3C2.44772 16 2 15.5523 2 15V5Z" fill="#92FFFF"/>
<path d="M14.5 1.75C14.5 1.33579 14.8358 1 15.25 1C15.6642 1 16 1.33579 16 1.75V11H14.5V1.75Z" fill="#92FFFF"/>
<rect x="0.25" y="0.25" width="10.5" height="15.5" rx="0.75" stroke="#656565" stroke-width="0.5"/>
<path d="M13.25 1C13.25 0.585786 13.5858 0.25 14 0.25H15C15.4142 0.25 15.75 0.585787 15.75 1V10.75H13.25V1Z" stroke="#656565" stroke-width="0.5"/>
<path d="M14.5 15.288L13.3608 12.25H15.6393L14.5 15.288Z" stroke="#656565" stroke-width="0.5"/>
<path d="M2 5H5.60194" stroke="#656565" stroke-width="0.5" stroke-miterlimit="10" stroke-linecap="round"/>
<path d="M2.06799 7.33333H9.00003" stroke="#656565" stroke-width="0.5" stroke-miterlimit="10" stroke-linecap="round"/>
<path d="M2.06799 9.66666H9.00003" stroke="#656565" stroke-width="0.5" stroke-miterlimit="10" stroke-linecap="round"/>
<path d="M2.06799 12H9.00003" stroke="#656565" stroke-width="0.5" stroke-miterlimit="10" stroke-linecap="round"/>
<path d="M2.25 0.25H8.75V2C8.75 2.41421 8.41421 2.75 8 2.75H3C2.58579 2.75 2.25 2.41421 2.25 2V0.25Z" stroke="#656565" stroke-width="0.5"/>
</svg>
