<svg width="228" height="48" viewBox="0 0 228 48" fill="none" xmlns="http://www.w3.org/2000/svg">
<rect x="13" y="7" width="212" height="39" rx="19.5" fill="#8AF2F2"/>
<rect x="1.09651" y="1.09651" width="225.807" height="45.807" rx="22.9035" stroke="#656565" stroke-width="2.19303"/>
<path d="M80.696 34.384C86.456 34.384 89.24 31.44 89.24 27.536C89.24 19.568 76.984 21.84 76.984 18.448C76.984 17.168 78.072 16.304 80.024 16.304C82.2 16.304 84.504 17.04 86.232 18.64L88.76 15.312C86.648 13.36 83.832 12.336 80.44 12.336C75.416 12.336 72.344 15.28 72.344 18.832C72.344 26.864 84.632 24.272 84.632 28.048C84.632 29.264 83.416 30.416 80.92 30.416C77.976 30.416 75.64 29.104 74.136 27.536L71.672 30.992C73.656 33.008 76.6 34.384 80.696 34.384ZM107.308 34L101.004 25.552L107.116 18.544H102.124L96.2675 25.424V12.656H92.2035V34H96.2675V30.032L98.1235 28.048L102.22 34H107.308ZM111.345 16.88C112.689 16.88 113.777 15.792 113.777 14.448C113.777 13.104 112.689 12.048 111.345 12.048C110.033 12.048 108.913 13.104 108.913 14.448C108.913 15.792 110.033 16.88 111.345 16.88ZM113.393 34V18.544H109.329V34H113.393ZM126.254 34.384C130.222 34.384 133.102 31.408 133.102 26.256C133.102 21.104 130.222 18.16 126.254 18.16C124.366 18.16 122.67 18.992 121.486 20.496V18.544H117.422V39.888H121.486V32.016C122.734 33.616 124.43 34.384 126.254 34.384ZM124.974 30.768C123.662 30.768 122.158 29.968 121.486 29.008V23.536C122.158 22.544 123.662 21.776 124.974 21.776C127.31 21.776 128.878 23.6 128.878 26.256C128.878 28.944 127.31 30.768 124.974 30.768Z" fill="#656565"/>
</svg>
