<svg width="100" height="40" viewBox="0 0 100 40" fill="none" xmlns="http://www.w3.org/2000/svg">
<rect x="6" y="5" width="92" height="34" rx="17" fill="#8AF2F2"/>
<rect x="0.660937" y="0.660937" width="98.6781" height="38.6781" rx="19.3391" stroke="#656565" stroke-width="1.32187"/>
<path d="M29.1918 25.192C32.0718 25.192 33.4638 23.72 33.4638 21.768C33.4638 17.784 27.3358 18.92 27.3358 17.224C27.3358 16.584 27.8798 16.152 28.8558 16.152C29.9438 16.152 31.0958 16.52 31.9598 17.32L33.2238 15.656C32.1678 14.68 30.7598 14.168 29.0638 14.168C26.5518 14.168 25.0158 15.64 25.0158 17.416C25.0158 21.432 31.1598 20.136 31.1598 22.024C31.1598 22.632 30.5518 23.208 29.3038 23.208C27.8318 23.208 26.6638 22.552 25.9118 21.768L24.6798 23.496C25.6718 24.504 27.1438 25.192 29.1918 25.192ZM42.1935 25V17.272H40.1615V22.504C39.8095 22.952 39.1855 23.384 38.4015 23.384C37.5375 23.384 36.9775 23.032 36.9775 21.96V17.272H34.9455V22.76C34.9455 24.264 35.7455 25.192 37.4415 25.192C38.7055 25.192 39.6335 24.616 40.1615 24.024V25H42.1935ZM46.2431 22.52V19.784C46.5791 19.272 47.3311 18.888 47.9871 18.888C49.1711 18.888 49.9551 19.8 49.9551 21.144C49.9551 22.488 49.1711 23.384 47.9871 23.384C47.3311 23.384 46.5791 23.016 46.2431 22.52ZM46.2431 25V24.008C46.8511 24.776 47.6991 25.192 48.6271 25.192C50.5791 25.192 52.0511 23.72 52.0511 21.144C52.0511 18.616 50.5951 17.08 48.6271 17.08C47.7151 17.08 46.8511 17.48 46.2431 18.264V14.328H44.2111V25H46.2431ZM65.2181 25V19.416C65.2181 17.832 64.3701 17.08 62.9461 17.08C61.7621 17.08 60.7381 17.784 60.2901 18.488C60.0021 17.608 59.2821 17.08 58.1461 17.08C56.9621 17.08 55.9381 17.816 55.6181 18.28V17.272H53.5861V25H55.6181V19.8C55.9221 19.368 56.5141 18.888 57.2181 18.888C58.0501 18.888 58.3701 19.4 58.3701 20.12V25H60.4181V19.784C60.7061 19.368 61.2981 18.888 62.0181 18.888C62.8501 18.888 63.1701 19.4 63.1701 20.12V25H65.2181ZM68.2191 16.44C68.8911 16.44 69.4351 15.896 69.4351 15.224C69.4351 14.552 68.8911 14.024 68.2191 14.024C67.5631 14.024 67.0031 14.552 67.0031 15.224C67.0031 15.896 67.5631 16.44 68.2191 16.44ZM69.2431 25V17.272H67.2111V25H69.2431ZM73.85 25.192C74.698 25.192 75.242 24.968 75.546 24.696L75.114 23.16C75.002 23.272 74.714 23.384 74.41 23.384C73.962 23.384 73.706 23.016 73.706 22.536V19.048H75.274V17.272H73.706V15.16H71.658V17.272H70.378V19.048H71.658V23.08C71.658 24.456 72.426 25.192 73.85 25.192Z" fill="#656565"/>
</svg>
